<?xml version="1.0" encoding="UTF-8" standalone="no"?>
<svg width="327px" height="272px" viewBox="0 0 327 272" version="1.1" xmlns="http://www.w3.org/2000/svg" xmlns:xlink="http://www.w3.org/1999/xlink" xmlns:sketch="http://www.bohemiancoding.com/sketch/ns">
    <!-- Generator: Sketch 3.2.2 (9983) - http://www.bohemiancoding.com/sketch -->
    <title>US</title>
    <desc>Created with Sketch.</desc>
    <defs>
        <filter x="-50%" y="-50%" width="200%" height="200%" filterUnits="objectBoundingBox" id="filter-1">
            <feOffset dx="0" dy="2" in="SourceAlpha" result="shadowOffsetOuter1"></feOffset>
            <feGaussianBlur stdDeviation="2" in="shadowOffsetOuter1" result="shadowBlurOuter1"></feGaussianBlur>
            <feColorMatrix values="0 0 0 0 0   0 0 0 0 0   0 0 0 0 0  0 0 0 0.175 0" in="shadowBlurOuter1" type="matrix" result="shadowMatrixOuter1"></feColorMatrix>
            <feMerge>
                <feMergeNode in="shadowMatrixOuter1"></feMergeNode>
                <feMergeNode in="SourceGraphic"></feMergeNode>
            </feMerge>
        </filter>
    </defs>
    <g id="UI-kit" stroke="none" stroke-width="1" fill="none" fill-rule="evenodd" sketch:type="MSPage">
        <g id="PROFILY.ME" sketch:type="MSArtboardGroup" transform="translate(-72.000000, -1213.000000)" filter="url(#filter-1)" fill="#C7C7C7">
            <g id="MODULES-VECTOR" sketch:type="MSLayerGroup" transform="translate(75.000000, 1154.000000)">
                <g id="USA_vector" transform="translate(0.000000, 46.000000)" sketch:type="MSShapeGroup">
                    <path d="M308.344776,20.8261434 C302.099424,23.3228418 297.353358,24.7379715 294.105806,24.9043667 C293.022774,24.9043667 290.691752,26.0691331 287.111197,28.2330412 C283.280889,30.4801469 281.282099,31.6456837 280.865845,31.7288813 C277.202039,32.6440549 274.703744,34.2255798 273.288481,36.6390806 L273.20523,36.7222782 C272.788976,35.8903022 272.372722,35.223951 271.956468,34.5583702 C271.956468,34.5583702 271.956468,34.5583702 271.956468,34.4759429 C271.289691,33.3936037 270.540433,32.5616277 269.957678,32.2280669 C269.12517,31.6456837 267.709135,31.3953205 265.711116,31.3953205 C265.12759,31.3953205 264.211831,31.4792885 263.04632,31.6456837 C261.797558,31.8952765 260.964279,31.9784741 260.548025,31.9784741 C259.882018,31.9784741 259.465764,31.7288813 259.04951,31.3128933 C258.799758,31.0625301 258.466755,30.8129373 258.04973,30.7297397 C258.217002,30.3969493 259.299263,30.1473564 261.380533,29.8977636 C263.379323,29.814566 264.628085,29.7313684 265.044339,29.7313684 C265.794367,29.6481708 266.626875,29.4817756 267.376132,29.2321828 C268.625665,28.898622 269.208421,28.3162388 269.208421,27.5674604 C269.208421,27.0682747 268.874646,26.6522867 268.292662,26.2355283 C267.958888,26.0691331 267.12638,25.7363427 265.711116,25.2371571 L268.292662,25.2371571 C269.707925,25.2371571 270.540433,25.3203547 270.956687,25.5699475 C271.372941,25.7363427 271.705945,25.9027379 272.122199,26.3194963 C272.372722,26.5683188 272.622474,26.734714 272.788976,26.734714 C273.20523,26.734714 273.454982,26.4851212 273.704735,25.7363427 C273.871236,25.3203547 273.871236,24.7379715 273.871236,24.1548179 C273.871236,23.7388299 273.871236,23.4884667 273.621484,23.3228418 C273.371731,23.2396442 273.20523,23.073249 272.954707,22.9068538 C273.288481,22.4076682 274.120989,22.2405026 275.536252,22.2405026 C276.369531,22.2405026 277.868045,22.3237002 280.116588,22.4076682 C285.944915,22.4076682 289.442219,21.741317 290.52525,20.5757802 L290.52525,19.9101994 C288.44321,19.8270018 287.027946,19.7430338 286.361169,19.7430338 C282.530861,19.993397 280.36634,20.2429898 279.866835,20.2429898 C278.867055,20.2429898 278.201049,20.0765946 277.868045,19.993397 C277.451791,19.7430338 276.952287,19.4942113 276.369531,19.1614209 C277.118788,18.4950697 279.117578,18.0790817 282.614112,17.9126865 C284.4464,17.8294889 286.861444,17.7462913 289.942495,17.5798961 C290.192247,17.5798961 292.356768,17.2471057 296.520079,16.5807545 C299.434628,16.0815689 301.932923,15.7487784 303.68196,15.7487784 C307.261745,15.6655808 311.425055,15.5823832 316.255144,15.4991856 C318.670188,15.4991856 320.917959,15.3327904 322.916749,15 L323,15 C321.501486,15.4991856 316.588147,17.4135009 308.344776,20.8261434 L308.344776,20.8261434 Z M257.217222,25.5699475 C254.802949,25.0707619 253.053911,24.4876083 251.8884,23.7388299 C252.221403,23.2396442 252.554406,22.8236562 253.053911,22.5740634 C253.553416,22.4076682 253.96967,22.2405026 254.302673,22.0748778 C254.719698,21.9909098 255.385704,21.741317 256.218212,21.5749218 C256.634466,21.4085266 257.800748,20.8261434 259.632266,19.9101994 C261.297282,19.0782233 262.630066,18.6622353 263.379323,18.6622353 C263.962078,18.6622353 264.545605,18.9118281 265.12759,19.2446185 C263.878828,23.4060394 261.214802,25.5699475 257.217222,25.5699475 L257.217222,25.5699475 Z M257.467745,34.2255798 C257.966479,34.2255798 259.465764,34.391975 261.964059,34.7247654 C263.04632,34.807963 264.795357,34.7247654 267.20963,34.5583702 C269.624675,34.5583702 270.706935,34.807963 270.706935,35.3071486 C270.706935,36.4726854 269.874427,37.3046615 268.042138,37.8046174 C266.710126,38.2206055 265.12759,38.3870007 263.462574,38.3870007 C263.04632,38.3870007 261.964059,38.3038031 260.298272,38.1374079 C258.466755,37.8046174 257.217222,37.6382222 256.800968,37.5550246 C253.637438,36.8054758 252.054902,36.4726854 251.971651,36.4726854 C251.388895,36.4726854 250.472365,36.555883 249.390105,36.8054758 C248.307845,37.055839 247.641838,37.3046615 247.392086,37.4710567 C246.975832,37.7206495 246.309055,37.8046174 245.310045,37.8046174 C244.144534,37.8878151 243.477757,37.9710127 243.394506,38.0534399 C243.477757,37.7206495 243.228004,37.4710567 242.645249,37.2214639 C242.645249,37.2214639 242.645249,37.2214639 242.561998,37.2214639 C242.395496,37.055839 242.312245,37.055839 242.228995,36.9726414 L242.062493,36.9726414 C242.81175,35.723907 243.894011,34.7247654 245.143543,33.7263941 C246.392305,32.8112205 247.392086,32.3944621 248.058092,32.3944621 C248.8906,32.3944621 249.88961,32.7272525 251.222394,33.3936037 C252.471156,34.1423822 253.720688,34.4759429 254.8862,34.4759429 L257.467745,34.2255798 L257.467745,34.2255798 Z M245.559797,42.2156312 C246.975832,41.2164896 247.974841,40.717304 248.640848,40.717304 L249.306854,40.717304 C249.306854,40.8012719 249.390105,41.133292 249.306854,41.5500503 C248.807349,41.7164456 248.307845,42.049236 247.974841,42.5484216 C247.392086,43.3803976 246.975832,43.9635512 246.808559,44.0467488 L246.808559,46.5434473 C247.392086,45.9602937 248.058092,45.5443057 248.807349,45.2947129 C249.639857,45.0451201 250.555616,44.9619225 251.805149,45.0451201 C253.053911,45.1283177 254.302673,44.7955273 255.718708,44.0467488 C257.217222,43.2140024 258.04973,42.7980144 258.217002,42.7980144 C258.96626,42.7980144 262.213812,43.8803536 267.875637,45.8778665 C269.291671,46.3770521 270.540433,47.5425889 271.873217,49.4561338 C272.954707,51.1216266 274.620493,51.9528323 276.785785,51.9528323 C276.952287,51.9528323 277.368541,51.7864371 278.284299,51.4536467 C279.117578,51.1216266 279.616312,50.8712634 279.700334,50.8712634 C280.865845,50.8712634 281.781604,51.4536467 282.614112,52.3695907 C283.030366,52.9519739 283.613892,53.7015227 284.279899,54.8662891 C285.278908,55.8654307 286.277918,56.9469996 287.111197,58.1125364 C288.276708,59.8596861 288.859464,61.2755861 288.859464,62.3571549 C288.859464,64.105075 288.44321,65.0202486 287.610702,65.0202486 C286.861444,65.0202486 285.861664,64.4378654 284.612902,63.189131 C283.363369,61.9403966 282.364359,61.3580133 281.698353,61.3580133 C280.782594,61.3580133 279.950086,61.8579693 279.117578,62.7723726 C278.284299,63.7715142 277.868045,64.8530831 277.868045,66.1025878 C277.868045,67.2673543 278.284299,69.0984719 279.117578,71.678368 L279.117578,73.8422761 L278.701324,73.8422761 C277.118788,72.1775537 275.952506,71.3448073 275.119998,71.3448073 C274.120989,71.3448073 273.038728,71.5119728 272.039719,71.9279608 C270.706935,72.4271465 269.957678,73.1766953 269.957678,74.0086713 C269.957678,74.5078569 270.373932,75.1734378 271.20644,75.7565913 C271.623465,76.0893818 272.289471,76.5893377 273.038728,77.171721 L273.038728,78.5860802 C272.872227,78.5860802 272.622474,78.5860802 272.455973,78.6700482 C272.372722,78.7532458 272.205449,78.8356731 272.039719,78.8356731 C271.039938,78.8356731 268.791396,77.5045114 265.12759,75.0078129 C261.297282,72.3447192 259.299263,70.2632384 259.299263,68.8488791 C259.299263,67.6833423 260.04852,66.5178055 261.380533,65.5194343 C262.796567,64.3538974 264.295082,63.8547118 265.794367,63.8547118 C266.12737,63.8547118 266.793376,63.9386798 267.793157,64.105075 C268.708916,64.3538974 269.458173,64.4378654 270.040929,64.4378654 C270.540433,64.4378654 271.289691,64.1882726 272.039719,63.8547118 C272.872227,63.3555262 273.288481,62.9395382 273.288481,62.5235501 C273.288481,56.779834 269.707925,53.1183691 262.463564,51.5376146 C259.965269,51.0376586 255.135952,50.7048682 247.891591,50.7048682 C247.141563,50.7048682 246.309055,50.7880658 245.310045,51.0376586 C244.311035,51.2040539 243.477757,51.3704491 242.561998,51.3704491 C241.146734,51.3704491 240.314226,51.2040539 239.981223,51.1216266 C239.148715,50.7880658 238.73169,49.9560898 238.73169,48.6241578 C238.73169,47.7082138 239.148715,46.7106129 239.897972,45.7946689 C240.647229,45.0451201 241.396487,44.4627368 242.062493,44.213144 C242.81175,44.0467488 243.978032,43.2979704 245.559797,42.2156312 L245.559797,42.2156312 Z M75.7744157,124.278513 C75.7744157,124.611303 75.6079141,124.861666 75.5246633,124.944864 C75.3581617,125.111259 75.1084093,125.194457 74.6921553,125.194457 C73.4433933,125.194457 72.1946313,124.611303 70.9450985,123.446537 C69.5298349,122.114605 67.9472988,121.116233 66.3655336,120.617048 C66.4487844,119.868269 66.615286,119.451511 66.615286,119.118721 L67.864048,119.118721 C68.696556,119.617906 70.3623429,120.367455 72.7766161,121.365826 C74.7754061,122.364197 75.7744157,123.280141 75.7744157,124.278513 L75.7744157,124.278513 Z M67.447794,96.0645103 C67.1980416,95.8149175 67.03154,95.5645543 66.7817876,95.1493367 C66.615286,94.7325783 66.615286,94.3997879 66.615286,94.1501951 C67.1147908,93.8174046 67.6975464,93.5678118 68.280302,93.5678118 C68.280302,93.6510094 68.280302,93.8998319 68.3635528,94.1501951 C68.4468036,94.3997879 68.4468036,94.6493807 68.4468036,94.8157759 C68.4468036,95.2317639 68.1138004,95.6485223 67.447794,96.0645103 L67.447794,96.0645103 Z M70.3623429,100.558722 C70.3623429,101.057907 70.1958413,101.557093 70.1125905,102.140246 C69.8628381,102.972223 69.5298349,103.305783 68.9463084,103.305783 C67.6142956,102.72263 67.03154,101.973851 67.03154,101.057907 C67.03154,100.725117 67.1980416,100.392326 67.447794,99.8931408 C67.6975464,99.4763824 67.9472988,99.2267896 68.280302,99.0603944 C68.3635528,98.8939992 68.5300544,98.8108016 68.696556,98.6444064 C69.7795873,98.6444064 70.3623429,99.2267896 70.3623429,100.558722 L70.3623429,100.558722 Z M245.976051,57.8621733 C245.976051,59.6932909 245.226794,60.9420253 243.645029,61.6908038 C242.561998,62.3571549 240.73048,62.7723726 237.982433,63.0227358 C234.318627,63.3555262 231.986834,63.6883166 230.987824,63.9386798 C228.323028,64.4378654 226.325008,65.4362366 224.742472,66.6849711 C224.659222,66.6849711 223.993215,66.268983 222.994206,65.353039 C221.911174,64.4378654 221.161917,64.021107 220.828914,64.021107 C220.246158,64.021107 219.746654,64.105075 219.3304,64.4378654 C218.914146,64.7706558 218.747644,65.1866438 218.747644,65.6858295 C218.747644,66.1850151 219.080647,66.7673983 219.913155,67.4337495 C220.662412,68.1825279 220.995416,68.598516 220.995416,69.0152743 C220.995416,70.2632384 219.746654,71.0959848 217.165108,71.3448073 C214.250559,71.4287752 212.419041,71.5119728 211.669784,71.5119728 C209.670994,71.5951704 208.17248,72.094356 207.172699,73.0934976 C205.840687,74.4246593 204.674405,75.2574057 203.508893,75.6733937 C201.343602,76.5053698 198.513074,78.1700922 195.01577,80.667561 C190.518685,83.913038 188.354164,86.4929341 188.354164,88.6568421 C188.354164,89.322423 188.853669,90.7375526 189.769428,93.0678558 C190.769208,95.3157319 192.600726,96.8132887 195.515275,97.6452648 C198.429824,98.311616 201.09462,99.4763824 203.508893,101.141105 C205.840687,102.639432 208.338981,103.305783 210.837276,103.221815 L210.837276,103.554606 L210.919756,103.554606 C211.003007,103.471408 211.170279,103.471408 211.25353,103.471408 L211.33601,103.471408 C211.419261,103.471408 211.586533,103.388211 211.669784,103.305783 C211.669784,103.388211 211.669784,103.471408 211.752264,103.637803 C211.836286,103.804199 211.836286,103.971364 211.836286,104.137759 C211.836286,104.553747 211.170279,105.718514 209.754245,107.632829 C208.421461,109.630342 207.672204,111.128669 207.672204,112.12704 C207.672204,112.793392 208.255731,113.791763 209.337991,114.9573 C210.503502,116.288461 211.33601,116.871615 212.002787,116.871615 C214.917336,116.871615 217.41486,113.20938 219.580152,106.052075 C219.746654,105.303296 221.911174,103.471408 225.907984,100.725117 C229.905564,97.8948576 231.986834,95.5645543 232.487109,93.5678118 C232.487109,93.3174487 232.820112,92.818263 233.236367,91.9030894 C233.56937,91.1535406 233.735871,90.5711574 233.735871,90.2383669 C233.652621,89.4063909 233.652621,88.9064349 233.902373,88.5736445 C234.068875,88.1576565 234.485129,87.7416685 235.151135,87.3256804 C236.234166,86.576902 237.066674,85.8273532 237.64943,84.9953772 C237.815931,84.745014 238.481938,83.6634452 239.564969,81.6659323 C240.314226,80.3340003 241.146734,79.1692338 241.979242,78.2532898 C242.895772,77.3381162 243.645029,76.7549626 244.311035,76.671765 C245.226794,76.5893377 246.725309,76.5053698 248.8906,76.4221722 C250.555616,76.3389746 251.638648,76.3389746 252.138152,76.3389746 C254.053692,76.3389746 255.801958,76.9221281 257.633476,78.1700922 C259.632266,79.5020242 260.548025,80.9995811 260.548025,82.6643036 C260.548025,83.413082 260.381523,84.0794332 259.965269,84.5793892 C259.549015,85.1617724 259.299263,85.8273532 259.299263,86.8257245 C259.299263,87.8248661 259.882018,88.9064349 260.797777,89.9887741 C261.797558,91.1535406 262.713316,91.6534966 263.629075,91.6534966 C265.12759,91.6534966 266.959878,90.654355 269.041919,88.4904469 C271.123189,86.3265388 272.705725,85.2441996 273.871236,85.2441996 C274.28749,85.2441996 274.453992,85.4945628 274.537243,85.8273532 L274.537243,86.8257245 C274.537243,87.2417125 274.370741,87.9080637 274.037738,88.9064349 C273.621484,89.8223789 273.454982,90.5711574 273.454982,90.8207502 C273.454982,92.6518678 273.704735,94.0669974 274.037738,95.0653687 C274.620493,96.3973007 275.536252,97.4796399 277.035537,98.1452208 C277.035537,98.311616 276.785785,99.0603944 276.369531,100.558722 C276.369531,101.057907 276.785785,101.557093 277.618293,102.140246 C278.534052,102.639432 279.034327,103.05542 279.117578,103.305783 C278.450801,103.471408 277.618293,103.804199 276.785785,104.304155 C275.952506,104.720143 275.287271,105.303296 274.703744,105.802482 L274.703744,106.884051 L274.870246,106.967248 C274.870246,106.967248 274.953497,106.967248 274.953497,107.133643 C275.453001,106.967248 276.203029,106.634458 277.368541,106.052075 C278.617303,105.552119 280.116588,105.219328 281.948105,105.219328 C283.946896,105.219328 285.44541,105.552119 286.195438,106.300897 C286.944695,106.800853 287.194448,107.799224 287.194448,109.297551 C287.194448,110.712681 285.278908,112.210238 281.448601,113.87496 C277.202039,115.29009 274.620493,116.288461 273.704735,116.622022 C272.205449,117.370801 270.290681,118.036381 267.958888,118.869128 C264.462354,120.033894 261.797558,120.617048 260.131771,120.617048 C260.04852,120.617048 259.04951,120.283487 257.217222,119.451511 C255.468955,118.702733 253.886419,118.286745 252.637657,118.286745 C249.723108,118.286745 246.558807,119.451511 243.061503,121.781814 C239.897972,123.862525 237.815931,125.943235 236.816151,128.107143 L236.816151,128.273538 L236.983423,128.273538 C237.566179,128.023946 239.897972,127.191199 244.061283,125.77684 C248.640848,124.278513 251.139143,123.529734 251.721898,123.529734 C251.971651,123.529734 252.387905,123.69613 252.804159,124.02892 C252.97066,124.195315 253.220413,124.444908 253.470165,124.777698 C250.97187,127.191199 249.723108,129.855063 249.723108,132.934915 C249.723108,133.933287 250.306635,134.682065 251.222394,134.931658 C251.971651,135.265219 253.553416,135.430843 255.801958,135.430843 C256.134962,135.430843 257.217222,135.265219 258.883009,134.931658 C259.216012,134.931658 259.715517,135.098823 260.548025,135.348416 C261.131551,135.598009 261.631056,135.681207 262.04731,135.598009 C261.547805,136.59638 260.131771,137.595522 257.883999,138.593893 C255.135952,139.676232 253.304434,140.425011 252.221403,140.757801 C247.891591,142.339326 244.727289,143.420895 242.895772,144.004048 L242.395496,142.588919 C243.144753,141.923338 243.894011,141.50735 244.727289,141.424152 C245.476547,141.340184 246.309055,140.757801 247.224813,139.842628 C247.725089,139.42664 248.307845,138.760288 249.140353,137.928312 L249.140353,136.013997 L247.641838,136.013997 C245.80955,136.929171 244.477537,137.595522 243.645029,138.094708 C243.477757,138.177905 243.312026,138.177905 243.228004,138.261103 L242.062493,138.261103 C239.981223,138.927454 237.815931,139.842628 235.567389,141.090592 C233.486119,142.339326 231.737081,143.58806 230.155316,144.919222 C229.988814,145.085617 229.072285,145.668001 227.240767,146.500747 C226.158507,146.916735 225.57498,147.831909 225.40925,149.081413 C225.241977,150.24618 224.659222,151.162124 223.660212,151.744507 C223.077456,152.077297 222.078447,152.32689 220.579162,152.659681 C218.33139,153.158866 216.166098,153.824447 214.33381,154.823589 C213.3348,155.322774 211.586533,156.488311 208.921737,158.236231 C208.505483,158.569022 207.506473,158.818614 205.923937,159.234603 C204.674405,159.400998 203.841897,159.900954 203.342392,160.566535 C202.509884,161.814499 202.010379,162.647245 201.759856,163.063233 L200.594344,162.397652 C199.179081,162.564047 198.263322,163.812011 197.930319,166.059117 C197.679796,167.391819 197.679796,169.388562 197.930319,172.051656 C198.09682,173.799576 197.847068,175.214705 197.097811,176.213077 C196.681557,176.713033 195.432024,177.794601 193.350754,179.292929 C191.518466,180.62409 190.185682,181.70643 189.353174,182.205615 C188.104412,183.121559 186.438625,183.953535 184.357355,184.702314 C182.942091,185.20227 181.692559,186.034246 180.693549,187.115815 C179.693769,188.281351 178.944511,189.196525 178.361756,189.695711 C177.445997,190.528457 176.779991,191.444401 176.362966,192.276377 C176.029963,193.108353 175.864232,194.190692 175.864232,195.522624 C175.864232,195.605052 176.197235,196.687391 176.69674,198.851299 C177.196245,201.015207 177.529248,202.679929 177.529248,204.178257 C177.529248,206.84135 177.196245,209.171654 176.446987,211.335562 C175.696959,213.749062 174.69795,214.831402 173.449188,214.831402 C172.69916,214.831402 172.117175,213.83303 171.533649,211.75155 C170.867642,208.838863 170.451388,206.50856 170.035134,204.843837 C168.703121,198.185718 166.454579,194.856273 163.54003,194.856273 C162.124766,195.189064 161.208237,195.355459 160.875234,195.355459 C159.876224,194.773076 158.877214,194.27389 157.794183,193.773934 C155.629662,192.692365 154.46338,192.193179 154.130377,192.193179 C153.131367,192.193179 151.965856,192.776333 150.466571,193.941099 C149.051307,194.939471 148.30205,196.02181 148.051527,196.936984 C148.051527,196.936984 148.051527,196.936984 148.051527,197.020181 L147.969047,197.020181 L147.386291,197.269774 C147.052517,197.353742 146.719514,197.353742 146.469762,197.353742 C144.804746,196.687391 143.055708,195.855415 141.224191,195.105866 C137.643635,193.525111 135.561594,192.85876 135.06209,192.85876 C134.312832,192.85876 132.147541,194.024297 128.483735,196.520996 C126.652217,197.852157 124.403675,199.351255 121.90538,201.181602 C120.823119,201.847953 120.073862,203.512676 119.740088,206.342165 C119.323834,209.587642 118.90758,211.502727 118.408846,212.250735 L118.408846,212.334703 L117.991821,212.334703 C117.242564,215.330587 116.493307,217.827286 115.827301,219.742371 C115.494297,220.907138 115.243774,222.904651 115.243774,225.651712 C115.243774,228.730794 116.82631,231.477085 120.073862,233.973784 C123.070891,236.388055 126.235963,237.552822 129.399494,237.552822 C131.481534,237.552822 133.14655,237.052866 134.396083,236.22089 C135.228591,235.638506 136.061099,234.556167 137.144131,233.05861 C138.14314,231.393888 139.14215,230.145153 139.891407,229.478802 C141.307441,228.314036 143.055708,227.398092 145.221,226.982104 L150.216819,226.982104 L150.216819,228.813992 C149.883815,229.56277 149.217809,230.9779 148.218799,233.05861 C147.219019,235.056123 146.386511,236.55368 145.637254,237.552822 C144.638244,238.883983 143.972238,240.548706 143.639235,242.629416 C143.471962,243.710985 143.306231,245.542873 142.972457,247.956374 L142.972457,248.954745 L143.972238,248.954745 C144.22199,248.621955 144.721495,248.289164 145.470752,248.205967 C145.803755,248.122769 146.469762,248.122769 147.552793,248.122769 C147.635273,248.122769 148.385301,248.039571 149.967066,247.623583 C151.466351,247.290793 152.465361,247.124398 152.715113,247.124398 C153.963875,247.124398 155.463161,247.956374 157.128177,249.621096 C158.710713,251.201851 159.376719,252.28419 159.376719,253.116166 C159.376719,254.281703 158.877214,255.946425 157.961456,258.110333 C157.044926,260.357439 156.46217,262.021391 156.46217,263.10373 C156.46217,263.436521 156.628672,264.434892 156.711923,266.099614 L156.878424,266.099614 L157.211428,265.93399 C158.211208,267.931502 159.376719,269.595454 160.708732,270.927386 C162.624271,273.008097 164.788792,273.924041 167.120585,273.924041 C167.203836,273.924041 168.370118,273.673678 170.867642,273.008097 C173.532439,272.424943 175.114204,272.092153 175.613709,272.092153 C176.779991,272.092153 177.612499,272.424943 178.112003,272.924899 C178.694759,273.507283 178.944511,274.506424 178.944511,275.837586 C178.944511,276.75353 178.694759,277.751901 178.028753,278.667845 C177.400517,279.609211 176.547197,280.015954 175.614479,279.992074 C175.78021,278.248776 175.696959,277.08478 175.363956,276.337542 C174.947702,275.504795 174.115194,275.00561 172.69916,275.00561 C171.949903,275.00561 170.867642,275.3384 169.61888,275.837586 C168.370118,276.337542 167.703341,276.75353 167.703341,277.08632 C167.703341,277.751901 167.786592,278.167889 167.953093,278.583877 C168.036344,278.83424 168.202846,279.250228 168.535849,279.999007 L168.036344,279.999007 C167.869842,279.999007 166.870833,279.749414 165.205046,279.250228 C163.54003,278.667845 162.54102,278.417482 162.291268,278.334284 C161.708512,278.084692 160.958484,277.669474 160.375729,277.002352 C159.626472,276.253574 159.043716,275.754388 158.544211,275.587993 C156.795174,274.922412 155.046907,273.924041 153.131367,272.674536 C150.633073,270.927386 149.384311,269.512257 149.384311,268.263522 C149.384311,267.847534 149.384311,267.597942 149.467561,267.597942 C149.550812,267.514744 149.800565,267.431546 150.216819,267.514744 L150.216819,266.433175 C149.967066,266.099614 149.384311,265.93399 148.551803,265.766824 C147.719295,265.600429 147.052517,265.267638 146.469762,264.602057 C146.30326,264.269267 146.053508,263.770081 145.970257,263.020533 C145.887006,262.271754 145.637254,261.771798 145.470752,261.439008 C145.304251,261.189415 144.971247,260.191044 144.388492,258.443124 C144.055489,257.277587 143.389482,256.695204 142.472953,256.695204 C141.973448,256.695204 141.307441,257.027994 140.474933,257.52718 C139.724905,258.027136 138.975648,258.359926 138.392893,258.359926 C138.14314,258.359926 137.560385,258.110333 136.477353,257.776773 C135.311842,257.277587 134.562585,257.027994 134.229582,256.944796 C133.0633,256.778401 132.147541,256.612006 131.731287,256.362413 C130.898779,256.11282 130.399274,255.280074 130.232772,253.782517 C130.148751,252.61698 129.150512,250.86906 127.234973,248.621955 C125.402684,246.374849 124.153922,245.29251 123.404665,245.29251 C123.070891,245.29251 122.404885,245.542873 121.405875,246.291651 C120.573367,246.957232 119.657608,247.290793 118.8251,247.290793 L118.8251,247.456418 C118.657828,247.789208 117.908571,247.623583 116.659809,247.124398 C115.078043,246.374849 114.328015,246.125256 114.328015,246.125256 C114.161514,246.125256 113.911761,246.208454 113.74526,246.291651 L113.162504,247.290793 C110.497708,246.458047 105.751641,244.127743 98.923534,240.38231 C91.0964171,235.971297 87.1828587,232.974642 87.1828587,231.31069 C87.1828587,229.729165 87.6823635,228.646826 88.8478747,228.064443 C89.9301351,227.398092 90.5136615,226.650084 90.5136615,225.567744 C90.5136615,223.487034 88.5981223,219.991194 84.7678147,215.080995 C82.602523,212.168308 80.4380022,209.670839 78.4392122,207.590129 C77.273701,206.342165 76.1914406,204.511047 75.3581617,202.096776 C75.1084093,201.514393 74.5256537,199.351255 73.6098949,195.68902 C72.2771113,190.695623 70.3623429,188.198154 67.6975464,188.198154 C67.1147908,188.198154 66.615286,188.530944 66.199032,189.279723 C65.782778,189.946074 65.5322548,190.695623 65.5322548,191.527599 C65.5322548,192.442772 65.6162764,193.525111 65.8660288,194.60668 C66.199032,196.520996 66.4487844,197.852157 66.615286,198.684904 C66.6985368,199.684045 67.1147908,200.848812 67.864048,202.096776 C68.1970512,202.929522 68.9463084,204.178257 69.9460889,205.925406 C70.7785969,207.506931 71.6111049,209.920432 72.4443837,213.166679 C73.2768917,216.079366 74.1093997,218.243274 75.1084093,219.658403 L74.9419077,219.824799 C75.1084093,219.991194 75.3581617,220.158359 75.5246633,220.323984 L75.5246633,220.49115 L74.2759013,220.49115 C72.2771113,218.742459 70.9450985,217.078507 70.1125905,215.58018 C69.3625624,214.165051 69.1135809,212.584296 69.1135809,210.669981 C69.1135809,209.754037 68.280302,208.506073 66.615286,207.174141 C64.9494992,205.842209 64.1169912,204.594245 64.1169912,203.678301 C64.3667436,202.014349 64.5332452,201.015207 64.5332452,200.599219 C64.5332452,199.017694 63.8672388,197.519367 62.6184768,196.105008 C61.3689439,194.689878 60.7861883,192.692365 60.7861883,190.112469 C60.7861883,189.446888 60.8694391,188.697339 61.0359407,187.698968 C61.2856931,186.699827 61.3689439,185.951048 61.3689439,185.368665 C61.3689439,183.537547 60.3699343,181.956022 58.2878935,180.62409 C55.9568711,179.209731 54.6248583,178.128162 54.2910843,177.212218 C54.0413319,176.546637 53.8748303,175.297903 53.7083287,173.217193 C53.4585763,170.969316 53.2920747,169.638155 53.2920747,169.305364 C52.9590715,167.973432 52.4595667,166.475875 51.6270587,164.727955 L53.8748303,164.727955 C53.6250779,164.145572 52.9590715,163.479221 52.0433127,162.730443 C51.2100338,162.147289 50.7937798,161.482479 50.7937798,160.982523 C50.7937798,160.649732 51.126783,160.066579 51.7935603,159.068207 C52.4595667,158.153034 52.8758207,157.153892 52.8758207,156.237948 C52.8758207,156.072323 52.7093191,155.82196 52.4595667,155.48917 C52.1265635,155.073182 51.9600619,154.823589 51.7935603,154.740391 C53.7083287,153.991613 55.2076139,152.077297 56.4563759,148.83105 C57.7051379,145.418408 59.2876739,143.004907 61.2024423,141.590548 C63.2012324,140.175418 65.1992516,137.262731 67.03154,133.018113 C68.5300544,129.688668 70.2790921,128.107143 72.4443837,128.273538 L72.6108853,128.273538 L72.6108853,128.356736 C72.4443837,128.607099 72.4443837,129.023087 72.4443837,129.439075 C72.4443837,129.855063 72.4443837,130.271822 72.6108853,130.437447 C72.6933653,130.520644 72.9438885,130.604612 73.2768917,130.604612 C75.1084093,130.604612 76.4404221,129.688668 77.6067042,127.939978 C78.4392122,126.526389 78.8554662,125.360852 78.8554662,124.362481 C78.8554662,123.196944 78.3559614,122.197802 77.3569518,121.199431 C76.9406978,120.783443 75.8576665,120.033894 74.1093997,118.869128 C71.1116001,116.954813 69.8628381,114.707707 70.3623429,112.12704 C70.7785969,111.961416 71.0283493,111.79425 71.3613525,111.627855 C71.8608573,111.378262 72.1946313,111.128669 72.1946313,110.629484 L72.1946313,110.463088 C72.0273589,110.463088 71.8608573,110.463088 71.6943557,110.545516 L71.6111049,110.463088 L71.6111049,108.964761 C71.1948509,108.715168 71.0283493,108.381608 70.9450985,108.048817 L70.9450985,107.216841 C70.9450985,107.133643 71.3613525,105.968107 72.1946313,103.804199 C73.0271393,101.557093 73.4433933,99.0603944 73.4433933,96.3141031 C73.4433933,94.7325783 72.8606377,93.2350214 71.7776065,91.9030894 C70.6120953,90.5711574 69.5298349,89.8223789 68.280302,89.8223789 C68.1138004,89.8223789 67.864048,89.9055765 67.6142956,89.9887741 C67.2812924,90.1551693 67.03154,90.2383669 66.8650384,90.2383669 C66.615286,90.2383669 66.199032,89.7391813 65.366524,88.5736445 C64.4499944,87.3256804 63.9504896,86.7425269 63.8672388,86.6600996 C63.7007372,86.576902 63.1179816,86.6600996 62.2014519,86.8257245 C61.4521947,86.9089221 61.2024423,86.576902 61.2024423,85.8273532 C61.2024423,85.3281676 61.2856931,84.9114092 61.6186963,84.6618164 C61.4521947,84.5793892 58.5384167,83.9962356 53.1255731,82.7475012 C47.7959802,81.4995371 44.6324498,80.8339563 43.7159201,80.8339563 C42.8834121,80.8339563 41.5513993,81.6659323 39.3861077,83.3306547 C37.3048377,84.9953772 35.972054,85.8273532 35.3892984,85.8273532 C34.8065428,85.660958 34.1405364,85.3281676 33.3912792,85.1617724 C32.0584956,84.6618164 31.2259876,84.4129939 30.9762352,84.4129939 C30.8097336,84.4129939 30.3934796,84.4954212 29.9764548,84.745014 C29.9764548,84.745014 29.9764548,84.745014 29.893204,84.8282116 C29.6434516,84.9114092 29.3104484,85.1617724 28.7276928,85.4113652 C28.644442,85.4945628 28.3946896,85.5777604 28.3114388,85.660958 C26.6464228,86.3265388 23.9816263,87.4920757 20.3178203,89.1567981 C15.4044814,91.4871014 11.4076721,92.818263 8.24337089,93.1510535 C7.74386609,93.2350214 5.16232045,94.1501951 0.582755601,96.1477079 L0,94.9821711 C5.99559929,92.5686702 8.91014813,90.8207502 8.91014813,89.7391813 C8.91014813,89.322423 8.57714493,88.9904029 8.07686929,88.9904029 L6.91135809,88.9904029 C4.41306324,89.322423 2.99779964,89.4063909 2.66479644,89.4063909 C1.66578684,89.4063909 1.1655112,89.2399957 0.915758801,88.9064349 C0.749257201,88.2408541 0.582755601,87.7416685 0.1665016,87.1585149 C1.5817652,86.9089221 2.83129804,86.4929341 3.91355844,85.8273532 C5.57934529,84.8282116 6.41185329,83.413082 6.41185329,81.6659323 C6.41185329,81.4163395 6.24535169,80.9995811 5.82909769,80.5003955 C5.41284369,79.9180123 5.16232045,79.4188266 5.16232045,79.0028386 C5.16232045,77.5045114 6.32860249,76.4221722 8.65962489,75.5901961 C10.1589101,75.0078129 12.7404558,74.4246593 16.4042618,73.7590785 C20.3178203,73.0934976 22.8153443,72.5111144 24.1481279,72.1775537 C26.4799211,71.3448073 27.6454324,70.346436 27.6454324,69.0984719 C27.6454324,68.6824839 27.4789308,68.4321208 27.0626768,68.3496935 L25.7298931,68.3496935 C25.0638867,68.3496935 23.6486231,68.598516 21.4833315,69.0152743 C19.3180398,69.4312624 17.986027,69.6808552 17.4032714,69.6808552 C16.8205158,69.6808552 16.1545094,69.51446 15.570983,69.1816695 C14.9049766,68.9320767 14.4887226,68.598516 14.4887226,68.1825279 C14.4887226,66.3514103 16.1545094,65.0202486 19.4853123,64.4378654 C21.2335791,64.105075 23.0650967,64.021107 25.0638867,64.021107 C25.3968899,64.021107 27.0626768,64.105075 29.9764548,64.4378654 C31.7254924,64.4378654 33.0575052,64.3538974 33.890784,64.021107 C35.139546,63.605119 35.8055524,62.7723726 35.8055524,61.6076061 C35.8055524,60.9420253 35.4725492,60.3596421 35.0562952,59.8596861 C34.5567904,59.3605005 34.307038,58.611722 34.307038,57.8621733 C34.307038,57.3629876 36.0553048,56.6974068 39.5526093,55.8654307 C45.7147102,54.3663332 49.878021,53.2015667 52.0433127,52.5359859 C57.1223823,51.0376586 60.4531851,50.0392874 61.9516995,49.8721218 C63.4509848,49.5393314 66.7817876,49.4561338 71.7776065,49.4561338 C80.7710054,49.4561338 88.9311255,50.6216706 96.2587376,52.8687763 C100.089045,54.1167404 103.003594,54.8662891 104.751861,55.2822772 C108.333187,55.9486283 112.245975,56.3646164 116.743059,56.3646164 C120.240364,56.3646164 123.487916,55.7814628 126.484945,54.8662891 C129.399494,53.9503451 131.648036,53.3679619 133.0633,53.3679619 C133.14655,53.3679619 133.479554,53.5343571 133.895808,53.7015227 C134.312832,53.9503451 134.645836,54.0343131 134.812337,54.0343131 C135.311842,54.0343131 135.811347,53.7015227 136.311623,53.0344011 C136.810356,52.2863931 137.310632,51.9528323 137.726886,51.9528323 C137.893388,51.9528323 138.642645,52.3695907 140.141159,53.2847643 C141.890197,54.2007083 143.22221,54.6998939 144.22199,54.6998939 L150.466571,54.2007083 C152.132358,54.2007083 154.380129,54.6166963 157.294678,55.3662451 C158.793964,55.7814628 160.042726,56.0310556 161.374738,56.1150236 C162.124766,56.1982212 162.874024,56.1982212 163.456779,56.1982212 C162.54102,56.1982212 161.958265,56.3646164 161.457989,56.5310116 C161.457989,56.5310116 161.457989,56.5310116 161.374738,56.5310116 C161.374738,56.5310116 161.374738,56.5310116 161.292258,56.5310116 C160.125976,56.9469996 159.626472,57.5301532 159.626472,58.3621292 C159.626472,59.4436981 160.375729,60.1932469 161.708512,60.5260373 C162.291268,60.6084645 163.123776,60.6924325 164.289287,60.6924325 C165.955074,60.6924325 167.120585,60.6924325 167.786592,60.6084645 C169.285106,60.3596421 170.201636,60.0260813 170.451388,59.4436981 C172.199655,59.1941053 173.282686,59.8596861 173.865442,61.5244085 C174.448197,63.5219214 175.696959,64.6874582 177.529248,65.0202486 C177.612499,64.937051 177.695749,64.6874582 177.695749,64.1882726 C177.695749,64.105075 177.695749,64.021107 177.779,64.021107 C178.028753,60.6924325 179.693769,58.5285244 182.774819,57.3629876 C184.940111,56.5310116 188.270914,56.1150236 192.933729,56.1150236 C193.01698,56.1150236 194.266513,56.4470436 196.931309,57.0301972 C199.678586,57.695778 201.261122,57.9453709 201.677376,58.0285685 C202.09363,58.0285685 202.926138,57.9453709 204.258151,57.7789756 C205.507683,57.695778 206.256941,57.8621733 206.423442,58.3621292 C206.922947,59.4436981 207.25595,59.9436541 207.506473,60.1932469 C207.839477,60.5260373 208.505483,60.6924325 209.587743,60.6924325 C210.586753,60.6924325 211.586533,60.4428397 212.419041,59.8596861 C213.667803,59.111678 214.584333,58.611722 215.166318,58.3621292 C216.582352,57.8621733 217.747863,57.1965924 218.747644,56.1982212 C219.746654,55.2822772 220.162908,54.4503011 220.162908,53.7015227 C220.162908,53.1183691 219.913155,52.7023811 219.3304,52.6191835 C218.41387,52.5359859 217.664613,52.4527883 217.081857,52.3695907 C217.664613,51.1216266 218.664393,50.2056826 219.996406,49.4561338 C221.41167,48.790553 223.49371,48.2073994 226.241758,47.7921817 C225.907984,48.9569482 225.49173,49.8721218 224.992225,50.7048682 C224.742472,51.1216266 224.575971,51.7040098 224.575971,52.2863931 C224.575971,52.9519739 225.075476,53.6175547 225.992005,54.2007083 C226.907764,54.7830915 227.57377,55.0326844 228.073275,55.0326844 C228.489529,55.0326844 229.156306,54.9494867 230.405068,54.6998939 C230.488319,54.6998939 230.738072,54.7830915 231.154326,55.0326844 C231.487329,55.3662451 231.737081,55.6150676 231.820332,55.6982652 C231.154326,56.1982212 230.738072,56.6142092 230.405068,56.9469996 C229.905564,57.6125804 229.57256,58.3621292 229.57256,59.1941053 C229.57256,60.1932469 229.739062,60.6924325 229.988814,60.8588277 C230.155316,61.0252229 230.987824,61.1084205 232.153335,61.1084205 C233.236367,61.1084205 234.152125,60.7756301 234.901383,60.1932469 C235.234386,59.9436541 235.817912,59.3605005 236.816151,58.195734 C238.481938,56.1982212 240.813731,55.2822772 243.72828,55.2822772 C245.310045,55.2822772 245.976051,56.1150236 245.976051,57.8621733 L245.976051,57.8621733 Z M175.447978,279.999007 C175.504249,280.003629 175.558208,279.990533 175.614479,279.992074 C175.614479,279.994385 175.614479,279.996696 175.613709,279.999007 L175.447978,279.999007 L175.447978,279.999007 Z M232.153335,43.2979704 C229.905564,44.3795392 228.739282,44.8787249 228.656031,44.8787249 C228.156526,44.8787249 227.407269,44.7123297 226.49151,44.4627368 C226.574761,44.0467488 226.824513,43.7139584 227.157516,43.3803976 C227.657021,42.7980144 228.323028,42.3820264 229.156306,42.2156312 C229.405288,42.049236 230.155316,41.5500503 231.320827,40.717304 C232.319837,39.8853279 233.069865,39.4693399 233.486119,39.4693399 C233.902373,39.4693399 234.485129,39.5525375 235.484138,39.8853279 C236.65042,40.2181183 237.482928,40.6341063 238.065684,41.0500944 L237.899182,41.133292 C236.399897,41.4668527 234.485129,42.2156312 232.153335,43.2979704 L232.153335,43.2979704 Z M218.747644,45.5443057 C218.33139,45.7114713 217.581362,46.3770521 216.582352,47.458621 C215.499321,48.6241578 214.917336,49.4561338 214.584333,50.0392874 C214.584333,49.0401458 214.084057,47.7921817 213.251549,46.2938545 C212.752045,45.6275033 212.25254,44.9619225 211.752264,44.5459345 C212.086038,44.5459345 212.335791,44.6299024 212.585543,44.7123297 C213.584553,44.7955273 214.167308,44.8787249 214.500311,44.8787249 C214.666813,44.8787249 215.583343,43.9635512 217.081857,42.2156312 C218.581142,40.3845135 220.079657,39.4693399 221.578171,39.4693399 C221.911174,39.4693399 222.244178,39.5525375 222.661202,39.7181623 L222.661202,40.8844695 C222.244178,41.2996872 221.661422,42.1324336 220.828914,43.3803976 C220.162908,44.4627368 219.496901,45.2122856 218.747644,45.5443057 L218.747644,45.5443057 Z M198.346573,48.8737506 C198.929328,48.790553 199.428833,48.9569482 199.761836,49.2897386 C200.011589,49.5393314 200.17809,50.0392874 200.17809,50.6216706 C200.17809,51.5376146 199.512084,52.3695907 198.09682,53.0344011 C196.847288,53.5343571 195.515275,53.8671475 193.849488,53.8671475 C193.183482,53.8671475 191.93472,53.6175547 190.102431,53.2847643 C188.270914,52.9519739 187.188653,52.7855787 186.689148,52.7855787 C186.521876,52.7855787 185.439615,53.1183691 183.440825,53.6175547 C181.359555,54.2007083 180.027543,54.5334987 179.360765,54.6998939 C179.111784,54.6998939 177.695749,54.8662891 175.114204,55.1990796 C173.69894,55.3662451 172.366927,55.53187 171.283896,55.53187 C170.368137,55.3662451 169.285106,55.2822772 168.286096,54.9494867 C166.204826,54.3663332 164.872043,53.6175547 164.372538,52.5359859 C164.53904,52.5359859 164.62229,52.4527883 164.62229,52.3695907 L164.62229,52.2031955 C165.039315,52.2031955 165.538049,51.9528323 166.288077,51.4536467 C166.704331,51.2040539 167.037334,51.0376586 167.287087,50.8712634 C167.62009,50.7880658 167.953093,50.7048682 168.119595,50.7048682 C168.452598,50.7048682 169.285106,50.8712634 170.61789,51.3704491 C171.450398,51.3704491 171.866652,50.954461 171.866652,50.2056826 C171.866652,49.7896946 171.783401,49.3729362 171.450398,49.0401458 C171.117395,48.6241578 170.61789,48.374565 170.118385,48.374565 C169.702131,48.374565 169.119375,48.5409602 168.370118,48.8737506 C167.703341,49.1233434 167.203836,49.3729362 166.704331,49.4561338 C166.62108,49.5393314 166.371328,49.6232994 166.288077,49.7057266 L165.205046,49.7057266 C165.372318,48.8737506 166.288077,47.458621 168.036344,45.4618784 C170.035134,43.2140024 171.616899,42.2156312 172.866432,42.2156312 L178.528257,41.9660384 C180.027543,41.9660384 181.609308,42.2980584 183.275095,43.0476072 C184.940111,43.7139584 185.855869,44.0467488 186.022371,44.0467488 C186.521876,44.0467488 187.438406,43.9635512 188.687168,43.7139584 C189.9367,43.5475632 190.769208,43.3803976 191.185462,43.3803976 L192.267723,43.3803976 C192.600726,43.4635952 192.683977,43.7139584 192.683977,44.1299464 C192.683977,44.4627368 192.600726,45.0451201 192.517475,45.8778665 C193.350754,45.6275033 194.849268,44.7123297 196.931309,43.2140024 C198.846078,41.7996432 200.011589,41.133292 200.594344,41.133292 C200.927348,41.133292 201.261122,41.2164896 201.426852,41.3836551 C201.594125,42.465224 201.09462,43.7139584 200.09484,45.2122856 C199.09583,46.8762377 198.429824,48.0410042 198.346573,48.8737506 L198.346573,48.8737506 Z M155.37991,49.7896946 C155.046907,49.0401458 154.214399,48.2073994 152.798364,47.2090281 C152.465361,46.9594353 152.215609,46.7106129 151.882605,46.5434473 C151.882605,46.5434473 151.882605,46.5434473 151.965856,46.4602497 C153.048117,45.0451201 155.130158,43.3803976 158.043936,41.5500503 C162.124766,39.0525815 165.455569,37.8046174 168.119595,37.8046174 C169.785382,37.8046174 171.450398,37.9710127 173.199435,38.3038031 C175.530458,38.7197911 176.946492,39.3029447 177.279495,40.0517231 C173.865442,39.9685255 170.118385,40.717304 166.204826,42.1324336 C161.374738,43.9635512 157.878205,46.4602497 155.37991,49.7896946 L155.37991,49.7896946 Z M173.615689,224.402208 C170.867642,223.071046 169.285106,222.322267 168.952103,222.322267 C167.786592,222.322267 166.371328,222.821453 164.872043,223.570232 C163.290278,224.402208 161.625262,224.901393 159.876224,225.068559 L159.792973,224.985361 C159.792973,223.736627 161.374738,222.655058 164.372538,221.739114 C166.787582,220.990335 168.868852,220.657545 170.534639,220.657545 C171.450398,220.657545 172.366927,220.907138 173.282686,221.406323 C173.615689,221.572719 174.281696,222.071904 175.447978,222.821453 C176.197235,223.237441 177.279495,223.653429 178.77801,223.903022 C180.277295,224.31978 181.276305,224.569373 181.692559,224.818966 C182.192063,225.151756 182.691568,225.651712 183.440825,226.566116 C184.190853,227.315664 185.106612,227.731652 186.272894,227.81485 C187.604907,227.81485 188.853669,228.14764 190.102431,228.897189 C191.351964,229.56277 191.851469,230.145153 191.684967,230.894702 C191.351964,230.9779 190.352954,231.143525 188.853669,231.477085 C187.688158,231.809876 186.689148,231.976271 185.772619,231.976271 C184.607107,232.059469 183.691349,232.225864 183.107822,232.225864 C182.192063,232.225864 181.442806,231.809876 180.860051,230.894702 C180.610298,230.561141 180.527047,230.145153 180.527047,229.729165 C180.610298,229.146782 180.610298,228.730794 180.610298,228.397233 C180.610298,228.314036 180.360546,228.064443 179.777019,227.648455 C179.277515,227.232467 178.944511,227.066072 178.77801,226.982104 C178.528257,226.816479 176.779991,225.983732 173.615689,224.402208 L173.615689,224.402208 Z M195.099021,237.469624 C197.263542,237.136834 198.346573,236.304087 198.346573,234.972155 C198.012799,234.389772 197.763817,234.140179 197.679796,233.973784 C199.179081,234.140179 200.344592,233.890586 201.261122,233.391401 L201.426852,233.474598 C201.09462,234.223377 200.927348,235.388143 201.09462,236.969668 C201.177871,237.802414 201.343602,238.883983 201.426852,240.299113 L201.343602,240.299113 C201.343602,240.38231 201.261122,240.38231 201.261122,240.465508 C201.09462,240.38231 200.17809,240.132718 198.513074,239.71673 C197.514065,239.383169 196.681557,239.216774 196.01478,239.216774 C195.848278,239.216774 195.432024,239.383169 194.682767,239.71673 C193.932739,240.132718 193.516485,240.299113 193.433234,240.299113 C192.683977,240.299113 192.267723,240.132718 192.101221,239.799927 C192.01797,239.71673 191.851469,239.300742 191.851469,238.883983 C191.851469,238.3016 193.01698,237.885612 195.099021,237.469624 L195.099021,237.469624 Z M204.008398,234.140179 C204.508674,233.724191 205.090659,233.640993 205.757436,233.640993 C206.17369,233.640993 207.172699,233.973784 208.588734,234.723333 C210.170499,235.555309 211.419261,236.137692 212.25254,236.304087 L212.25254,236.470482 C210.420251,237.636019 208.005207,238.717588 205.008179,239.799927 C203.425643,239.799927 202.676385,238.384798 202.676385,235.472111 C202.759636,235.13855 202.842887,234.888957 202.842887,234.639365 C203.17589,234.556167 203.508893,234.472969 204.008398,234.140179 L204.008398,234.140179 Z M282.448381,116.622022 C280.949096,118.036381 280.116588,119.035523 280.116588,119.701104 C280.116588,120.367455 280.449591,121.116233 281.115597,121.698617 C281.698353,122.364197 282.614112,122.946581 283.697143,123.280141 C284.779404,123.69613 286.361169,124.944864 288.44321,127.108772 L288.44321,128.107143 C287.360949,128.191111 284.945905,128.439934 281.448601,128.855922 C277.451791,129.189482 275.119998,129.355878 274.453992,129.355878 C273.621484,129.355878 273.038728,129.023087 272.872227,128.523131 C272.622474,128.023946 272.205449,127.774353 271.372941,127.691155 L271.372941,127.275167 L270.956687,127.275167 L270.873437,127.191199 C272.372722,125.360852 274.28749,123.030549 276.536033,120.367455 C278.617303,118.036381 280.699343,116.871615 282.448381,116.622022 L282.448381,116.622022 Z" id="US"></path>
                </g>
            </g>
        </g>
    </g>
</svg>