<?xml version="1.0" standalone="no"?>
<!DOCTYPE svg PUBLIC "-//W3C//DTD SVG 1.1//EN" "http://www.w3.org/Graphics/SVG/1.1/DTD/svg11.dtd" >
<svg xmlns="http://www.w3.org/2000/svg" xmlns:xlink="http://www.w3.org/1999/xlink" version="1.1">
<metadata></metadata>
<defs>
<font id="bauer_bodoniblackcond" horiz-adv-x="948" >
<font-face units-per-em="2048" ascent="1638" descent="-410" />
<missing-glyph horiz-adv-x="532" />
<glyph unicode="&#xfb01;" horiz-adv-x="1099" d="M27 0v37h86v905h-86v37h86q-4 233 134 373.5t365 140.5q92 0 171 -18.5t142.5 -76t63.5 -145.5q0 -74 -51 -121t-125 -47q-70 0 -117 45.5t-47 118.5q0 47 21.5 80t44 52.5t22.5 33.5q0 41 -112 41q-90 0 -129 -51t-39 -174v-252h327q111 0 203 45v-987h86v-37h-504v37 h74v905h-186v-905h61v-37h-491z" />
<glyph unicode="&#xfb02;" horiz-adv-x="1099" d="M27 0v37h86v905h-86v37h86q6 227 103 370.5t310 143.5q66 0 152 -39q25 -12 102 -12q152 0 207 51v-1456h86v-37h-504v37h74v1098q-47 10 -75.5 47t-28.5 84q0 45 19.5 80.5t39.5 53t20 21.5q0 35 -75 35q-53 0 -69.5 -30.5t-16.5 -92.5v-354h108v-37h-108v-905h61v-37 h-491z" />
<glyph horiz-adv-x="0" />
<glyph unicode="&#xd;" horiz-adv-x="681" />
<glyph unicode=" "  horiz-adv-x="532" />
<glyph unicode="&#x09;" horiz-adv-x="532" />
<glyph unicode="&#xa0;" horiz-adv-x="532" />
<glyph unicode="!" horiz-adv-x="569" d="M57 1188q156 59 228 282q72 -223 227 -282q-96 -111 -152.5 -316.5t-56.5 -345.5v-106h-37v106q0 139 -56 345t-153 317zM113 143.5q0 69.5 50 120.5t121.5 51t122 -51t50.5 -120.5t-50.5 -121t-122 -51.5t-121.5 51.5t-50 121z" />
<glyph unicode="&#x22;" d="M156 1331q0 139 110.5 139t110.5 -139q0 -37 -8 -131l-31 -336q-6 -76 -71.5 -76t-71.5 76l-31 336q-8 94 -8 131zM571 1331q0 139 111 139t111 -139q0 -37 -9 -131l-30 -336q-6 -76 -72 -76t-72 76l-30 336q-8 94 -9 131z" />
<glyph unicode="#" horiz-adv-x="1064" d="M10 399v185h211l33 245h-184v185h211l55 399h196l-55 -399h197l55 399h197l-56 -399h185v-185h-211l-33 -245h184v-185h-211l-55 -399h-197l56 399h-197l-55 -399h-197l56 399h-185zM418 584h196l33 245h-196z" />
<glyph unicode="$" horiz-adv-x="1064" d="M82 1001q0 209 127 322t287 119v119h61v-125q76 -10 146.5 -47t82.5 -37q49 0 62 73h37v-405h-37q-12 154 -86 258t-205 121v-481l94 -35q180 -68 256 -173.5t76 -283.5q0 -166 -120 -310.5t-306 -144.5v-215h-61v215q-86 4 -146.5 26.5t-93.5 43t-53 20.5q-53 0 -62 -73 h-37v467h37q35 -225 117 -327.5t238 -119.5v529l-222 104q-96 45 -144 142.5t-48 217.5zM279 1180q0 -148 217 -242v467q-92 0 -154.5 -64.5t-62.5 -160.5zM557 8q98 4 163.5 73t65.5 175q0 152 -163 229l-66 31v-508z" />
<glyph unicode="%" horiz-adv-x="1478" d="M80 1071q0 168 92 269.5t217 101.5t217 -101.5t92 -269.5t-92 -269.5t-217 -101.5t-217 101.5t-92 269.5zM301 850q0 -113 88 -113t88 113v442q0 113 -88 113t-88 -113v-442zM311 -57l766 1527h82l-766 -1527h-82zM780 342q0 168 92.5 269.5t217 101.5t217 -101.5 t92.5 -269.5t-92.5 -269.5t-217 -101.5t-217 101.5t-92.5 269.5zM1001 121q0 -113 88.5 -113t88.5 113v442q0 113 -88.5 113t-88.5 -113v-442z" />
<glyph unicode="&#x26;" horiz-adv-x="1402" d="M43 297q0 152 85 257t245 220q-123 195 -123 324q0 135 96 225t250 90q117 0 188.5 -53t71.5 -170q0 -164 -178 -277l246 -368q29 51 49 84t55 72.5t76 60t86 18.5q61 -2 102 -45t41 -110q0 -66 -39 -107t-94 -41t-90 34t-35 81q0 16 3 32.5t5 27t2 12.5q0 16 -16 16 q-27 0 -98 -121l-27 -47l98 -139q76 -106 111 -137t80 -31q57 0 117 90l30 -21l-141 -188q-49 -63 -88 -82.5t-115 -19.5q-49 0 -101 30.5t-81 59t-49 55.5l-62 80q-100 -129 -189 -177t-200 -48q-125 0 -218 94t-93 219zM289 584q0 -92 112.5 -260t190.5 -168q55 0 98 49 l31 35q-178 243 -328 499l-33 -22q-72 -57 -71 -133zM532 1217q0 -76 86 -209l39 -64q162 96 162 246q0 68 -43 121t-117 53q-57 0 -92 -38t-35 -109z" />
<glyph unicode="'" horiz-adv-x="532" d="M156 1331q0 139 110.5 139t110.5 -139q0 -37 -8 -131l-31 -336q-6 -76 -71.5 -76t-71.5 76l-31 336q-8 94 -8 131z" />
<glyph unicode="(" horiz-adv-x="530" d="M63 541q0 563 383 993l84 -70q-195 -248 -269.5 -454.5t-74.5 -466.5t75 -467t269 -457l-84 -72q-383 434 -383 994z" />
<glyph unicode=")" horiz-adv-x="530" d="M0 -381q195 248 269.5 456t74.5 468q0 258 -74.5 466t-269.5 455l84 70q383 -430 383 -991q0 -566 -383 -996z" />
<glyph unicode="*" horiz-adv-x="872" d="M29 1208.5q0 24.5 45 24.5q33 0 86 -6q0 59 28 59q12 0 28.5 -21.5t34 -52t59.5 -72.5t98 -73q-2 68 -24 136.5t-41 109.5t-19 45q0 16 14 16q25 0 57 -14q12 33 17.5 45t15.5 31.5t19.5 26.5t19.5 7q18 0 43 -92q6 -18 8 -28q14 4 39 4q27 0 27 -23q0 -4 -27 -35.5 t-62.5 -95t-54.5 -137.5q72 27 130.5 69t87 71.5t34.5 29.5q29 0 29 -31q0 -27 -6 -37q80 -6 104.5 -12t24.5 -25q0 -23 -101 -81q10 -16 17 -37q4 -12 0 -22.5t-12.5 -10.5t-54.5 16.5t-113.5 30.5t-130.5 8q43 -55 104 -99t99 -65.5t38 -29.5q0 -25 -61 -37 q23 -86 22 -111q0 -23 -28 -22q-20 0 -99 69q-35 -35 -47 -35q-20 0 -20 23q0 4 3 35t3 47q0 111 -43 207q-41 -39 -62.5 -113t-32 -126t-24.5 -52q-18 0 -45 47q-27 -20 -63.5 -38.5t-49.5 -18.5q-20 0 -20 14q0 29 41 123q-47 18 -47 41q0 14 44 26.5t113.5 41t118.5 77.5 q-69 21 -155 21q-20 0 -79 -5t-63 -5q-18 0 -18 18q0 20 35 51q-84 68 -84 92.5z" />
<glyph unicode="+" horiz-adv-x="1228" d="M96 401v234h402v401h233v-401h402v-234h-402v-401h-233v401h-402z" />
<glyph unicode="," horiz-adv-x="532" d="M84 137q0 74 48 126t128 52q70 0 129.5 -62.5t59.5 -199.5q0 -150 -78 -265.5t-248 -154.5l-14 39q254 74 253 324v27q-57 -51 -122 -52q-57 0 -106.5 39t-49.5 127z" />
<glyph unicode="-" horiz-adv-x="757" d="M57 416q51 123 74 205q184 -4 277 -5q100 0 292 5q-53 -135 -71 -205q-184 4 -277 4q-98 0 -295 -4z" />
<glyph unicode="." horiz-adv-x="532" d="M88 149.5q0 73.5 52.5 126t126 52.5t125.5 -52.5t52 -126t-52 -126t-125.5 -52.5t-126 52.5t-52.5 126z" />
<glyph unicode="/" horiz-adv-x="720" d="M-29 -29l545 1499h234l-545 -1499h-234z" />
<glyph unicode="0" horiz-adv-x="1064" d="M59 706.5q0 190.5 52.5 354.5t163 272.5t258 108.5t258 -108.5t163 -272.5t52.5 -354.5t-52.5 -354.5t-163 -272.5t-258 -108.5t-258 108.5t-163 272.5t-52.5 354.5zM428 127q0 -119 104.5 -119t104.5 119v1159q0 119 -104.5 119t-104.5 -119v-1159z" />
<glyph unicode="1" horiz-adv-x="1064" d="M178 1059v41q279 158 400 313h194v-1376h115v-37h-596v37h125v1116q0 14 -15 14q-10 0 -34 -14z" />
<glyph unicode="2" horiz-adv-x="1064" d="M66 0q45 135 109.5 238.5t123.5 159t121.5 115.5t107.5 113.5t74 149.5t29 228v155q0 125 -50.5 179.5t-150.5 54.5q-117 0 -195.5 -71t-78.5 -144q0 -33 12 -33q8 0 45 15.5t72 15.5q63 0 101 -40t38 -100q0 -156 -158 -155q-84 0 -128 62.5t-44 123.5 q0 170 111.5 272.5t298.5 102.5q246 0 370.5 -110.5t124.5 -289.5q0 -123 -56 -216t-146 -155.5t-186.5 -113.5t-194 -118.5t-148.5 -143.5h670l12 100h31l-39 -395h-876z" />
<glyph unicode="3" horiz-adv-x="1064" d="M80 236q0 63 46 109t107 46q68 0 109 -41t41 -108q0 -47 -21.5 -77t-47 -38t-47 -19.5t-21.5 -29.5q0 -25 48 -47.5t124 -22.5q98 0 142 51t44 119v422q0 63 -54 97t-142 34h-136v37h88q160 0 197 53t37 238v164q0 176 -154 176q-51 0 -99 -18.5t-48 -49.5 q0 -12 30.5 -25.5t61.5 -40t31 -75.5q0 -74 -43 -114t-110.5 -40t-108.5 46t-41 98q0 121 105.5 191.5t289.5 70.5q180 0 305 -92.5t125 -255.5q0 -293 -397 -342v-4q444 -25 444 -375q0 -111 -49 -193t-133 -126t-177.5 -63.5t-197.5 -19.5q-141 0 -244.5 66.5 t-103.5 198.5z" />
<glyph unicode="4" horiz-adv-x="1064" d="M47 360v91l651 962h179v-893h141v-160h-141v-323h112v-37h-545v37h113v323h-510zM141 520h416v608h-4z" />
<glyph unicode="5" horiz-adv-x="1064" d="M82 221q0 78 43 121t121 43q57 0 100 -37t43 -94q0 -76 -35 -107.5t-69.5 -42t-34.5 -32.5q0 -35 56 -49.5t110 -14.5q104 0 145 60.5t41 214.5v309q0 217 -176 217q-133 0 -260 -127q37 346 37 461v284q145 -14 344 -14q209 0 255 4t52 25l4 12h33q-10 -186 -72 -256 q-66 -80 -231 -80q-39 0 -114 3t-112 3q-68 0 -122 -6q-10 -203 -29 -352q121 104 283 104q250 0 369.5 -123.5t119.5 -324.5q0 -152 -81 -256.5t-200.5 -149.5t-267.5 -45q-137 0 -244.5 69t-107.5 181z" />
<glyph unicode="6" horiz-adv-x="1064" d="M59 592q0 178 52.5 324.5t134.5 238.5t189.5 157.5t209 94.5t201.5 35v-37q-414 -33 -414 -512v-107h4q23 33 79 58.5t114 25.5q164 0 270.5 -123.5t106.5 -281.5q0 -127 -44 -226.5t-116 -154.5t-150 -84t-153 -29q-244 0 -364 166t-120 455zM428 131q0 -123 102 -123 q106 0 107 123v588q0 41 -24.5 65.5t-63.5 24.5q-57 0 -89 -38t-32 -95v-545z" />
<glyph unicode="7" horiz-adv-x="1064" d="M76 999q43 236 57 414h856q-16 -37 -142 -291t-205 -450.5t-79 -300.5q0 -43 18.5 -113t18.5 -108q0 -80 -51 -129.5t-127 -49.5q-66 0 -110 43t-44 109q0 100 201 428l340 555h-678l-18 -107h-37z" />
<glyph unicode="8" horiz-adv-x="1064" d="M59 348q0 322 398 393v4q-143 27 -245.5 116t-102.5 224q0 160 130 258.5t293.5 98.5t293.5 -98.5t130 -258.5q0 -135 -102 -224t-246 -116v-4q398 -71 398 -393q0 -170 -146.5 -273.5t-327 -103.5t-327 103.5t-146.5 273.5zM416 123q0 -47 27.5 -81t89 -34t89 34 t27.5 81v493q0 47 -27.5 81t-89 34t-89 -34t-27.5 -81v-493zM428 870q0 -47 29.5 -74.5t75 -27.5t75 27.5t29.5 74.5v430q0 47 -26.5 76t-78 29t-78 -29t-26.5 -76v-430z" />
<glyph unicode="9" horiz-adv-x="1064" d="M59 948q0 127 44 226.5t116 154.5t149.5 84t153.5 29q244 0 364 -166t120 -455q0 -178 -52.5 -324.5t-134.5 -238.5t-189.5 -157.5t-209 -94.5t-201.5 -35v37q414 33 414 512v107h-4q-23 -33 -79 -58.5t-114 -25.5q-164 0 -270.5 124t-106.5 281zM428 694 q0 -41 24.5 -65.5t63.5 -24.5q57 0 89 38t32 95v545q0 123 -102 123q-106 0 -107 -123v-588z" />
<glyph unicode=":" horiz-adv-x="532" d="M88 149.5q0 73.5 52.5 126t126 52.5t125.5 -52.5t52 -126t-52 -126t-125.5 -52.5t-126 52.5t-52.5 126zM88 755.5q0 73.5 52.5 126t126 52.5t125.5 -52.5t52 -126t-52 -125.5t-125.5 -52t-126 52t-52.5 125.5z" />
<glyph unicode=";" horiz-adv-x="532" d="M82 755.5q0 73.5 52 126t126 52.5t126 -52.5t52 -126t-52 -125.5t-126 -52t-126 52t-52 125.5zM86 137q0 74 48 126t128 52q70 0 129.5 -62.5t59.5 -199.5q0 -150 -78 -265.5t-248 -154.5l-14 39q254 74 254 324v27q-57 -51 -123 -52q-57 0 -106.5 39t-49.5 127z" />
<glyph unicode="&#x3c;" horiz-adv-x="1228" d="M96 426v184l1037 443v-222l-742 -313l742 -313v-221z" />
<glyph unicode="=" horiz-adv-x="1228" d="M96 178v234h1037v-234h-1037zM96 618v234h1037v-234h-1037z" />
<glyph unicode="&#x3e;" horiz-adv-x="1228" d="M96 -16v221l742 313l-742 313v222l1037 -443v-184z" />
<glyph unicode="?" horiz-adv-x="757" d="M47 1214q0 109 86 168.5t205 59.5q180 0 276.5 -107.5t96.5 -257.5q0 -172 -107 -274l-282 -266q-25 -23 -25 -74v-49h-37v383q0 66 29 94l141 147q96 98 96 199q0 80 -56 124t-138 44q-25 0 -65 -11.5t-40 -33.5q0 -10 30 -25.5t60.5 -49.5t30.5 -83q0 -61 -42 -107 t-105 -46q-70 0 -112 47t-42 118zM123 143.5q0 69.5 51 120.5t121 51t121 -51t51 -120.5t-51 -121t-121 -51.5t-121 51.5t-51 121z" />
<glyph unicode="@" horiz-adv-x="1638" d="M70 688q0 342 230 562t558 220q303 0 507 -182t204 -457q0 -117 -45 -233.5t-140.5 -200.5t-216.5 -84q-94 0 -144 57.5t-50 100.5h-4q-14 -41 -90 -99.5t-152 -58.5t-142.5 63.5t-66.5 203.5q0 74 27.5 162.5t77 173.5t134.5 142.5t185 57.5q25 0 44.5 -5t30.5 -9 t23.5 -19.5t16.5 -19.5t16 -25.5t12 -23.5l25 73h162l-129 -520q-4 -18 -4 -53q0 -31 14 -60.5t47 -29.5q74 0 141.5 136t67.5 274q0 188 -154.5 338.5t-400.5 150.5q-94 0 -185 -36t-172 -109.5t-131.5 -206.5t-50.5 -305q0 -229 169 -388t386 -159q133 0 228.5 26.5 t199.5 79.5l21 -119q-233 -135 -442 -135q-162 0 -299.5 46t-228.5 121t-155.5 171.5t-94 192.5t-29.5 186zM715 623q0 -86 27.5 -136.5t72.5 -50.5q53 0 97 51.5t70 122t40 137t14 107.5q0 86 -22.5 112.5t-59.5 26.5q-78 0 -158.5 -109t-80.5 -261z" />
<glyph unicode="A" horiz-adv-x="985" d="M-70 0v37h25q72 0 104 123l363 1282h133l381 -1405h74v-37h-551v37h98l-90 366h-293l-53 -213q-20 -82 -21 -92q0 -35 17.5 -48t58.5 -13h33v-37h-279zM184 440h271l-125 512h-4z" />
<glyph unicode="B" horiz-adv-x="1138" d="M27 0v37h98v1368h-98v37h622q193 0 292 -98.5t99 -245.5q0 -315 -411 -340v-4q195 -4 318.5 -92.5t123.5 -274.5q0 -197 -134 -292t-349 -95h-561zM481 37h78q35 0 60.5 14.5t41 45t24.5 58t12 78t4 78t1 80.5q0 66 -1 96.5t-5 78.5t-13 72t-24.5 49.5t-41 35.5t-62.5 10 h-74v-696zM481 770h68q78 0 106.5 78t28.5 242q0 102 -6 162.5t-34 106.5t-81 46h-82v-635z" />
<glyph unicode="C" horiz-adv-x="1024" d="M68 721q0 317 164.5 533t377.5 216q82 0 137.5 -19t83 -38.5t43.5 -19.5q18 0 32 22.5t14 42.5h36l13 -422h-37q-14 66 -25.5 105t-37 102.5t-54.5 99t-76 63.5t-106 28q-184 0 -184 -418v-621q0 -217 41.5 -302t146.5 -85q92 0 176 100.5t125 292.5h37l-8 -405h-37 q-4 20 -7 29.5t-14.5 18.5t-29.5 9q-10 0 -99.5 -41t-185.5 -41q-125 0 -228.5 72t-166 185.5t-97 241.5t-34.5 251z" />
<glyph unicode="D" horiz-adv-x="1214" d="M27 0v37h98v1368h-98v37h524q596 0 596 -699q0 -121 -13.5 -219t-53.5 -199.5t-105.5 -170t-178 -111.5t-261.5 -43h-508zM481 37h66q90 0 133 50t64.5 202.5t21.5 468.5q0 281 -21.5 421t-62.5 183t-123 43h-78v-1368z" />
<glyph unicode="E" horiz-adv-x="985" d="M27 0v37h98v1368h-98v37h874l12 -373h-36q-10 123 -99.5 229.5t-202.5 106.5h-94v-649h33q94 0 131 65.5t57 204.5h37v-580h-37q-16 272 -174 273h-47v-682h84q127 0 215 109.5t109 289.5h37l-21 -436h-878z" />
<glyph unicode="F" horiz-adv-x="909" d="M27 0v37h98v1368h-98v37h874l12 -373h-36q-10 123 -99.5 229.5t-202.5 106.5h-94v-649h33q94 0 131 65.5t57 204.5h37v-580h-37q-16 272 -174 273h-47v-682h103v-37h-557z" />
<glyph unicode="G" horiz-adv-x="1099" d="M68 721q0 324 157.5 536.5t382.5 212.5q96 0 190.5 -48t121.5 -48q33 0 47 68h39l8 -424h-41q-39 190 -128 303t-198 113q-121 0 -159.5 -90.5t-38.5 -299.5v-843q0 -193 114 -193q109 0 109 133v389h-97v37h539v-37h-86v-337q-74 -90 -170 -144.5t-154.5 -66 t-111.5 -11.5q-123 0 -226.5 72t-167 185.5t-97 241.5t-33.5 251z" />
<glyph unicode="H" horiz-adv-x="1214" d="M27 0v37h98v1368h-98v37h540v-37h-86v-637h252v637h-86v37h541v-37h-98v-1368h98v-37h-535v37h80v694h-252v-694h80v-37h-534z" />
<glyph unicode="I" horiz-adv-x="606" d="M27 0v37h98v1368h-98v37h553v-37h-99v-1368h99v-37h-553z" />
<glyph unicode="J" horiz-adv-x="833" d="M-4 -37q0 78 40 128t105.5 50t107.5 -37.5t42 -99.5q0 -49 -45 -95t-45 -63q0 -31 19.5 -48t49.5 -17q82 0 82 94v1530h-98v37h553v-37h-98v-1155q0 -238 -125 -372t-297 -134q-104 0 -197.5 54.5t-93.5 164.5z" />
<glyph unicode="K" horiz-adv-x="1099" d="M27 0v37h98v1368h-98v37h540v-37h-86v-649h4l301 512q43 74 43 94q0 43 -69 43h-86v37h401v-37h-49q-45 0 -91 -26.5t-73 -69.5l-131 -215l371 -1057h74v-37h-549v37h86l-228 704h-4v-704h86v-37h-540z" />
<glyph unicode="L" d="M27 0v37h98v1368h-98v37h553v-37h-99v-1368h84q117 0 196 125t109 287h37l-12 -449h-868z" />
<glyph unicode="M" horiz-adv-x="1478" d="M27 0v37h22q76 0 76 143v1225h-98v37h501l213 -840h4l224 840h483v-37h-98v-1368h98v-37h-553v37h98v1343h-4l-368 -1380h-86l-361 1368h-4v-1218q0 -113 82 -113h41v-37h-270z" />
<glyph unicode="N" horiz-adv-x="1062" d="M-4 0v37h43q45 0 62.5 27.5t17.5 87.5v1198q0 55 -62 55h-45v37h461l418 -940h4v829q0 74 -86 74h-49v37h307v-37h-61q-41 0 -51.5 -20.5t-10.5 -65.5v-1319h-215l-557 1257h-4v-1134q0 -47 12.5 -66.5t44.5 -19.5h58v-37h-287z" />
<glyph unicode="O" horiz-adv-x="1175" d="M68 721q0 315 145 532t374.5 217t375 -217t145.5 -532t-145.5 -532.5t-375 -217.5t-374.5 217.5t-145 532.5zM449 203q0 -195 139 -195t139 195v1036q0 195 -139 195t-139 -195v-1036z" />
<glyph unicode="P" horiz-adv-x="1099" d="M27 0v37h98v1368h-98v37h632q205 0 314.5 -100.5t109.5 -268.5q0 -176 -116.5 -284.5t-302.5 -108.5h-183v-643h119v-37h-573zM481 717h68q84 0 125 84t41 274q0 182 -30 256t-128 74h-76v-688z" />
<glyph unicode="Q" horiz-adv-x="1175" d="M68 721q0 315 145 532t374.5 217t375 -217t145.5 -532q0 -260 -102.5 -460t-276.5 -265v-184q0 -84 51 -134.5t117 -50.5h82v-37h-145q-166 0 -277 72t-111 195v139q-174 63 -278 266q-100 195 -100 459zM449 203q0 -195 139 -195t139 195v1036q0 195 -139 195t-139 -195 v-1036z" />
<glyph unicode="R" horiz-adv-x="1138" d="M27 0v37h98v1368h-98v37h589q223 0 333 -97.5t110 -250.5q0 -332 -463 -349v-4q113 -8 190.5 -29.5t126 -50t76 -79t38.5 -100.5t17 -130l23 -270q6 -49 43 -49q18 0 29 8l26 14l17 -37q-86 -47 -174 -47q-100 0 -167 29t-100.5 88t-47 121.5t-17.5 155.5 q-8 219 -34 286.5t-114 67.5h-47v-682h86v-37h-540zM481 768h47q98 0 130 52t32 212q0 229 -24.5 301t-114.5 72h-70v-637z" />
<glyph unicode="S" horiz-adv-x="985" d="M43 1038q0 174 112.5 303t282.5 129q106 0 203.5 -45t116.5 -45q25 0 41 25t16 47h37v-412h-37q-23 176 -108.5 285t-251.5 109q-94 0 -154.5 -65.5t-60.5 -164.5q0 -76 45 -131t108 -82l279 -114q270 -111 270 -420q0 -217 -133 -351.5t-342 -134.5q-94 0 -196.5 46 t-108.5 46q-27 0 -44.5 -23.5t-21.5 -51.5h-37v481h37q61 -461 373 -461q131 0 203.5 69.5t72.5 188.5q0 88 -46 145.5t-140 98.5l-233 104q-162 72 -222.5 175.5t-60.5 248.5z" />
<glyph unicode="T" horiz-adv-x="1024" d="M-10 985l16 457h1012l16 -457h-45q-18 186 -114.5 303t-172.5 117h-6v-1368h107v-37h-586v37h111v1368h-6q-76 0 -172.5 -117t-114.5 -303h-45z" />
<glyph unicode="U" horiz-adv-x="1024" d="M27 1405v37h555v-37h-101v-1169q0 -190 170 -191q88 0 137.5 49t61.5 110.5t12 153.5v953q0 53 -16.5 73.5t-61.5 20.5h-41v37h277v-37h-49q-72 0 -72 -96v-985q0 -182 -83 -267.5t-263 -85.5q-193 0 -310.5 78t-117.5 254v1102h-98z" />
<glyph unicode="V" horiz-adv-x="909" d="M-84 1405v37h563v-37h-102l231 -864h4l181 700q24 83 24 115q0 20 -15.5 34.5t-45.5 14.5h-64v37h301v-37h-39q-45 0 -69.5 -37t-48.5 -135l-322 -1233h-129l-381 1405h-88z" />
<glyph unicode="W" horiz-adv-x="1478" d="M-70 1405v37h537v-37h-86l205 -854h4l129 483l-90 371h-86v37h532v-37h-86l197 -854h4l176 723q12 55 12 67q0 31 -17.5 47.5t-41.5 16.5h-76v37h320v-37h-41q-49 0 -74 -35t-43 -110l-313 -1260h-123l-228 950h-4l-254 -950h-127l-340 1405h-86z" />
<glyph unicode="X" horiz-adv-x="1099" d="M-18 0v37h55q51 0 83 24.5t70 100.5l222 424l-357 819h-73v37h563v-37h-99l187 -428l166 317q18 35 18 64q0 47 -63 47h-56v37h316v-37h-25q-47 0 -76.5 -26.5t-72.5 -108.5l-183 -348l387 -885h74v-37h-565v37h98l-217 495q-10 -23 -52 -99.5t-81 -155t-55 -127.5 q-14 -39 -15 -58q0 -55 68 -55h74v-37h-391z" />
<glyph unicode="Y" horiz-adv-x="909" d="M-100 1405v37h571v-37h-98l229 -590h4q16 49 66.5 177t89.5 232.5t39 125.5q0 55 -72 55h-51v37h295v-37h-25q-39 0 -59.5 -16.5t-42.5 -75.5l-207 -518v-758h96v-37h-565v37h100v641l-284 727h-86z" />
<glyph unicode="Z" d="M18 0v51l527 1354h-168q-94 0 -160.5 -113.5t-89.5 -242.5h-43l12 393h834v-43l-529 -1362h144q121 0 219 137t117 279h37l-25 -453h-875z" />
<glyph unicode="[" horiz-adv-x="530" d="M125 -422v1929h344v-98h-221v-1733h221v-98h-344z" />
<glyph unicode="\" horiz-adv-x="720" d="M-29 1470h234l545 -1499h-234z" />
<glyph unicode="]" horiz-adv-x="530" d="M61 -324h222v1733h-222v98h345v-1929h-345v98z" />
<glyph unicode="^" horiz-adv-x="1228" d="M154 666l358 747h205l358 -747h-227l-234 514l-235 -514h-225z" />
<glyph unicode="_" horiz-adv-x="1024" d="M0 -154h1024v-102h-1024v102z" />
<glyph unicode="`" horiz-adv-x="569" d="M33 1464q0 72 114 72q74 0 103 -34t76 -146l88 -215h-35l-283 223q-63 51 -63 100z" />
<glyph unicode="a" d="M25 258q0 309 485 313v279q0 66 -23.5 93.5t-78.5 27.5q-37 0 -72 -13.5t-35 -39.5q0 -8 33 -57.5t33 -98.5q0 -59 -42 -92t-94 -33q-63 0 -105 35t-42 98q0 78 44 131t112.5 73.5t112.5 27t85 6.5q100 0 185.5 -20.5t152 -84.5t66.5 -164v-561q0 -96 35 -96 q16 0 26 21.5t10 39.5h41q-31 -172 -223 -172q-72 0 -127 39t-80 113q-82 -152 -235 -152q-117 0 -190.5 73t-73.5 214zM356 203q0 -109 74 -109q45 0 62.5 27t17.5 90v324h-47q-106 0 -107 -132v-200z" />
<glyph unicode="b" horiz-adv-x="1062" d="M27 0v37h86v1368h-86v37h223q152 0 207 51v-619h4q76 133 211 134q119 0 202.5 -84t117.5 -192.5t34 -223.5q0 -125 -35 -241.5t-124 -206t-216 -89.5q-74 0 -119 27t-81 90h-5v-88h-419zM457 209q0 -72 28.5 -118t83.5 -46q88 0 88 127v637q0 100 -84 100 q-49 0 -82.5 -42.5t-33.5 -112.5v-545z" />
<glyph unicode="c" horiz-adv-x="833" d="M37 489.5q0 194.5 130 356.5t327 162q127 0 220 -59.5t93 -166.5q0 -61 -43 -107t-105 -46q-57 0 -102 32.5t-45 88.5q0 53 44 102t44 76q0 43 -96 43q-51 0 -81 -32t-30 -122v-637q0 -90 34 -118.5t89 -28.5q182 0 287 272l33 -10q-45 -150 -141.5 -237t-200.5 -87 q-197 0 -327 162t-130 356.5z" />
<glyph unicode="d" horiz-adv-x="1062" d="M37 508q0 115 33.5 223.5t117.5 192.5t203 84q135 0 211 -134h4v531h-80v37h226q106 0 198 51v-1456h86v-37h-250q-125 0 -170 -18v106h-4q-37 -63 -82 -90t-118 -27q-127 0 -216.5 89.5t-124 206t-34.5 241.5zM406 172q0 -127 88 -127q55 0 83.5 46t28.5 118v545 q0 70 -33.5 112.5t-85.5 42.5q-78 0 -81 -100v-637z" />
<glyph unicode="e" d="M37 489.5q0 194.5 130 356.5t327 162q195 0 301 -138.5t108 -343.5h-510v-299q0 -94 41 -144t141 -50q82 0 162 78.5t121 195.5l37 -8q-66 -158 -157 -243t-244 -85q-197 0 -327 162t-130 356.5zM393 563h178v301q0 59 -20.5 83t-69.5 24q-39 0 -63.5 -23.5t-24.5 -66.5 v-318z" />
<glyph unicode="f" horiz-adv-x="606" d="M27 0v37h86v905h-86v37h86q10 260 117.5 387t324.5 127q96 0 155.5 -50t59.5 -128q0 -61 -38 -102.5t-97 -41.5q-47 0 -85 34t-38 95q0 49 24.5 78t48 41.5t23.5 18.5q0 18 -59 18q-111 0 -111 -119q0 -178 19 -358h133v-37h-133v-905h98v-37h-528z" />
<glyph unicode="g" d="M27 -262q0 70 61.5 114t136.5 54v2q-94 4 -144 59.5t-50 147.5q0 94 63.5 168t151.5 88v4q-188 98 -189 293q0 141 123 240.5t269 99.5q131 0 239 -60q18 66 61.5 113t102.5 47q49 0 80 -28.5t31 -75.5q0 -45 -31 -75t-80 -30q-39 0 -65.5 31t-32.5 69q-20 -23 -33 -77 q57 -43 92 -113t35 -141q0 -113 -66.5 -194t-153.5 -113.5t-175 -32.5q-25 0 -60 4t-68.5 10t-41.5 8q-37 -2 -82 -34.5t-45 -61.5q0 -33 28.5 -50.5t116.5 -17.5q35 0 134.5 3.5t144.5 3.5q190 0 259.5 -60.5t69.5 -218.5q0 -193 -144 -294t-372 -101q-61 0 -118.5 9 t-117 31.5t-95 68.5t-35.5 110zM174 -258q0 -80 71.5 -127t180.5 -47q63 0 122.5 9t119 32.5t95.5 72t36 115.5q0 53 -41.5 70.5t-145.5 17.5h-290q-72 0 -110 -36.5t-38 -106.5zM365 477q0 -66 19 -89t67 -23h2q88 0 88 105v9v406q0 86 -82 86q-94 0 -94 -113v-381z" />
<glyph unicode="h" horiz-adv-x="1099" d="M27 0v37h86v1368h-86v37h223q152 0 207 51v-641h4q104 156 274 156q252 0 252 -265v-706h86v-37h-498v37h68v780q0 80 -57 80q-53 0 -91 -50t-38 -124v-686h67v-37h-497z" />
<glyph unicode="i" horiz-adv-x="569" d="M27 0v37h86v905h-86v37h227q111 0 203 45v-987h86v-37h-516zM106 1315q0 74 52.5 126t126 52t126 -52t52.5 -126t-52.5 -126t-126 -52t-126 52t-52.5 126z" />
<glyph unicode="j" horiz-adv-x="569" d="M-197 -276q0 147 134 147q57 0 90.5 -38t33.5 -89q0 -47 -25.5 -75.5t-51 -41t-25.5 -22.5q0 -20 45 -21q57 0 91 29q32 27 32 80v6q-2 43 -8 178t-6 191v874h-99v37h240q111 0 203 45v-999q0 -127 -40 -223.5t-105.5 -149.5t-140.5 -79t-155 -26q-74 0 -143.5 47.5 t-69.5 129.5zM106 1315q0 74 52.5 126t126 52t126 -52t52.5 -126t-52.5 -126t-126 -52t-126 52t-52.5 126z" />
<glyph unicode="k" horiz-adv-x="1062" d="M27 0v37h86v1368h-86v37h223q152 0 207 51v-948h4l205 231q82 90 82 129q0 37 -78 37h-33v37h344v-37h-45q-66 0 -139 -80l-101 -108l330 -717h61v-37h-493v37h61l-194 471h-4v-471h86v-37h-516z" />
<glyph unicode="l" horiz-adv-x="569" d="M27 0v37h86v1368h-86v37h223q152 0 207 51v-1456h86v-37h-516z" />
<glyph unicode="m" horiz-adv-x="1630" d="M27 0v37h86v905h-86v37h227q111 0 203 45v-172h4q104 156 274 156q201 0 242 -172q104 172 289 172q252 0 252 -265v-706h86v-37h-498v37h68v780q0 80 -58 80q-53 0 -91 -50t-38 -124v-686h84v-37h-498v37h70v780q0 80 -57 80q-53 0 -91 -50t-38 -124v-686h67v-37h-497z " />
<glyph unicode="n" horiz-adv-x="1099" d="M27 0v37h86v905h-86v37h227q111 0 203 45v-172h4q104 156 274 156q252 0 252 -265v-706h86v-37h-498v37h68v780q0 80 -57 80q-53 0 -91 -50t-38 -124v-686h67v-37h-497z" />
<glyph unicode="o" horiz-adv-x="987" d="M37 489.5q0 194.5 130 356.5t326.5 162t326.5 -162t130 -356.5t-130 -356.5t-326.5 -162t-326.5 162t-130 356.5zM393 145q0 -137 100.5 -137t100.5 137v689q0 137 -100.5 137t-100.5 -137v-689z" />
<glyph unicode="p" horiz-adv-x="1062" d="M27 -412h86v1354h-86v37h235q100 0 195 45v-143h4q29 55 88 91t123 36q119 0 202.5 -84t117.5 -192.5t34 -223.5q0 -125 -35 -241.5t-124 -206t-216 -89.5q-61 0 -113.5 31t-76.5 86h-4v-504h86v-37h-516v41zM457 221q0 -72 28.5 -118t83.5 -46q88 0 88 127v637 q0 100 -84 101q-49 0 -82.5 -43t-33.5 -113v-545z" />
<glyph unicode="q" horiz-adv-x="1062" d="M27 508q0 115 33.5 223.5t117.5 192.5t203 84q63 0 122.5 -36t88.5 -91h4v143q94 -45 195 -45h235v-37h-86v-1354h86v-41h-516v37h86v504h-4q-25 -55 -77 -86t-114 -31q-127 0 -216 89.5t-123.5 206t-34.5 241.5zM395 184q0 -127 88 -127q55 0 84 46t29 118v545 q0 70 -34 113t-83 43q-84 0 -84 -101v-637z" />
<glyph unicode="r" horiz-adv-x="757" d="M27 0v37h86v905h-86v37h227q111 0 203 45v-190h4q25 72 81 123t127.5 51t115.5 -47.5t44 -116.5q0 -74 -42 -121t-113 -47q-55 0 -97 38t-42 105q0 29 14 65t33 50l-4 4q-121 -92 -121 -279v-622h98v-37h-528z" />
<glyph unicode="s" horiz-adv-x="796" d="M55 655q0 168 88 260.5t201 92.5q96 0 156.5 -30t77.5 -30q18 0 35.5 17.5t21.5 42.5h24v-275h-24q-55 125 -119.5 181.5t-150.5 56.5q-162 0 -162 -154q0 -66 55 -97.5t134 -44.5t159 -36t135 -97.5t55 -203.5q0 -147 -91 -257t-249 -110q-51 0 -128.5 28t-88.5 28 q-61 0 -71 -56h-25v338h25q27 -119 105.5 -210t189.5 -91q76 0 131 44t55 120q0 82 -51 111.5t-211 66.5q-276 61 -277 305z" />
<glyph unicode="t" horiz-adv-x="606" d="M27 942v37q152 2 255 124t138 286h37v-410h143v-37h-143v-780q0 -33 11 -44.5t38 -11.5q18 0 39.5 31t34.5 88h36q-45 -254 -270 -254q-102 0 -167.5 59.5t-65.5 192.5v719h-86z" />
<glyph unicode="u" horiz-adv-x="1099" d="M27 942v37h227q111 0 203 45v-862q0 -80 57 -80q53 0 91 50t38 124v686h-86v37h227q111 0 203 45v-987h86v-37h-428v127h-6q-104 -156 -274 -156q-252 0 -252 265v706h-86z" />
<glyph unicode="v" horiz-adv-x="796" d="M-49 942v37h504v-37h-74l164 -522h4l104 332q31 94 31 133q0 23 -17.5 40t-54.5 17h-22v37h256v-37h-19q-41 0 -65.5 -38t-79.5 -199l-242 -705h-96l-319 942h-74z" />
<glyph unicode="w" horiz-adv-x="1327" d="M-49 942v37h479v-37h-49l164 -522h4l88 276l-84 246h-74v37h504v-37h-74l164 -522h4l105 332q30 91 30 120q0 70 -71 70h-23v37h258v-37h-20q-39 0 -69 -48t-77 -189l-241 -705h-97l-206 647h-4l-222 -647h-96l-319 942h-74z" />
<glyph unicode="x" horiz-adv-x="909" d="M-39 942v37h535v-37h-82l135 -280l106 145q45 59 45 96q0 23 -13 31t-56 8h-21v37h308v-37h-35q-53 0 -92 -32.5t-86 -98.5l-136 -184l293 -590h86v-37h-553v37h86l-147 295l-103 -146q-53 -74 -53 -100q0 -49 74 -49h18v-37h-307v37q70 0 113 23.5t84 84.5l155 230 l-278 567h-76z" />
<glyph unicode="y" horiz-adv-x="796" d="M-49 942v37h504v-37h-74l164 -522h4l104 332q31 94 31 122q0 68 -72 68h-22v37h256v-37h-19q-39 0 -68.5 -48t-76.5 -189l-311 -977q-57 -178 -203 -181h-7q-73 0 -117 43q-46 45 -46 117q0 63 35 107.5t92 44.5q131 0 131 -127q0 -55 -25.5 -84t-52 -38t-26.5 -13 q0 -12 43 -13q41 0 78.5 38t60.5 116l53 188l-362 1016h-74z" />
<glyph unicode="z" horiz-adv-x="796" d="M12 0v29l414 913h-74q-115 0 -185.5 -91t-82.5 -226h-37v354h737v-29l-415 -913h102q106 0 177 102.5t85 220.5h25v-360h-746z" />
<glyph unicode="{" horiz-adv-x="530" d="M82 541q92 29 124 85t32 169v397q0 186 68.5 250.5t205.5 64.5v-37q-84 -18 -118 -82.5t-34 -183.5v-377q0 -129 -32.5 -192.5t-132.5 -89.5v-4q100 -27 132.5 -90.5t32.5 -192.5v-377q0 -119 34 -183.5t118 -82.5v-37q-137 0 -205.5 65t-68.5 251v397q0 113 -32 168 t-124 82z" />
<glyph unicode="|" horiz-adv-x="454" d="M111 -438v2048h233v-2048h-233z" />
<glyph unicode="}" horiz-adv-x="530" d="M18 -385q84 18 118 82.5t34 183.5v377q0 129 33 192.5t133 90.5v4q-100 27 -133 90t-33 192v377q0 119 -34 183.5t-118 82.5v37q137 0 206 -64.5t69 -250.5v-397q0 -113 31.5 -169.5t124.5 -84.5q-92 -27 -124 -82t-32 -168v-397q0 -186 -68.5 -251t-206.5 -65v37z" />
<glyph unicode="~" horiz-adv-x="1228" d="M141 518q92 176 256 176q80 0 233.5 -66.5t203.5 -66.5q55 0 95 36.5t85 104.5l73 -186q-92 -176 -256 -176q-80 0 -233.5 66.5t-202.5 66.5q-55 0 -95 -36t-85 -103z" />
<glyph unicode="&#xa1;" horiz-adv-x="569" d="M57 -170q96 111 152.5 316.5t56.5 345.5v106h37v-106q0 -139 56.5 -345t152.5 -317q-156 -59 -227 -283q-72 223 -228 283zM113 835.5q0 69.5 50 121t121.5 51.5t122 -51.5t50.5 -121t-50.5 -120.5t-122 -51t-121.5 51t-50 120.5z" />
<glyph unicode="&#xa2;" horiz-adv-x="1064" d="M117 479q0 244 136 379t304 150v127h61v-127q66 0 132.5 -21.5t119 -73t52.5 -118.5q0 -74 -39 -112t-92 -38q-59 0 -93 36t-34 91q0 45 22.5 73.5t44 43t21.5 26.5q0 18 -39 37t-95 19v-951q104 2 179 84t118 199l33 -10q-43 -131 -127 -225.5t-203 -96.5v-151h-61v151 q-193 0 -316.5 151.5t-123.5 356.5zM461 135q6 -103 96 -115v951q-96 -6 -96 -183v-653z" />
<glyph unicode="&#xa3;" horiz-adv-x="1064" d="M45 162q0 104 80 162.5t168 58.5q63 0 172 -33q-20 127 -82 193l-82 90h-178v61h121q-137 152 -138 312q0 115 43.5 201.5t115 136t155.5 74t176 24.5q195 0 288 -96.5t93 -237.5q0 -76 -51.5 -139.5t-139.5 -63.5q-66 0 -103.5 43t-37.5 113q0 61 43 100t88 39 q39 0 77 -12t42 -12q20 0 20 28q0 76 -73.5 132.5t-157.5 56.5q-209 0 -209 -328q0 -217 10 -371h209v-61h-209q16 -109 17 -295q215 -72 305 -72q86 0 124 48t54 141h35q-37 -279 -106.5 -381.5t-192.5 -102.5q-152 0 -270 140q-33 -59 -90.5 -99.5t-112.5 -40.5 q-88 0 -145.5 50.5t-57.5 140.5zM82 147q0 -63 46 -101t112 -38q119 0 184 133q-74 82 -119 113t-106 31q-45 0 -81 -34t-36 -104z" />
<glyph unicode="&#xa4;" horiz-adv-x="1064" d="M39 338l100 100q-90 131 -90 279q0 152 90 278l-100 101l115 114l102 -102q117 82 268 82q156 0 279 -90l108 110l115 -114l-113 -111q84 -119 84 -268q0 -145 -84 -268l113 -111l-115 -115l-108 111q-125 -90 -279 -90q-150 0 -268 82l-102 -103zM254 716.5 q0 -110.5 79 -189t191 -78.5q111 0 190 78.5t79 189t-79 189.5t-190 79q-113 0 -191.5 -79t-78.5 -189.5z" />
<glyph unicode="&#xa5;" horiz-adv-x="1064" d="M8 1376v37h547v-37h-98l229 -590h4l172 455q23 61 23 80q0 55 -72 55h-51v37h295v-37h-25q-39 0 -59.5 -16.5t-42.5 -75.5l-207 -518v-86h264v-62h-264v-184h264v-61h-264v-336h96v-37h-540v37h100v336h-264v61h264v184h-264v62h252l-273 696h-86z" />
<glyph unicode="&#xa6;" horiz-adv-x="454" d="M111 -182v512h233v-512h-233zM111 842v512h233v-512h-233z" />
<glyph unicode="&#xa7;" horiz-adv-x="1064" d="M104 471q0 221 181 358q-100 92 -101 252q0 176 104.5 282.5t276.5 106.5q137 0 228.5 -56t91.5 -179q0 -66 -39 -109t-117 -43q-59 0 -99 36t-40 93q0 55 34.5 98.5t90.5 43.5q51 0 76 -15l4 4q-23 47 -90.5 69t-126.5 22q-90 0 -149.5 -48.5t-59.5 -154.5 q0 -70 61.5 -124t147.5 -95t173 -85t148.5 -119t61.5 -173q0 -266 -175 -367q82 -55 115 -122.5t33 -178.5q0 -164 -117 -272.5t-334 -108.5q-127 0 -222 62.5t-95 171.5q0 66 44 114t109 48q70 0 112 -39t42 -109q0 -57 -35 -96t-92 -39q-14 0 -37.5 7t-27.5 9 q53 -92 229 -92q100 0 163.5 47t63.5 148q0 70 -47 125t-116.5 87.5t-152.5 73.5t-152.5 82t-117 115t-47.5 170zM227 668q0 -41 40 -85t79 -67.5t113 -64.5l303 -166q76 70 76 139q2 37 -32 77t-64.5 60.5t-90.5 52.5q-59 35 -139 74t-127 65.5t-74 51.5q-84 -68 -84 -137z " />
<glyph unicode="&#xa8;" horiz-adv-x="569" d="M-72 1345.5q0 61.5 43 104.5t104.5 43t104.5 -43t43 -104.5t-43 -104.5t-104.5 -43t-104.5 43t-43 104.5zM346 1345.5q0 61.5 43 104.5t104.5 43t104.5 -43t43 -104.5t-43 -104.5t-104.5 -43t-104.5 43t-43 104.5z" />
<glyph unicode="&#xa9;" horiz-adv-x="1638" d="M70 721q0 311 219 530t530 219t530.5 -219t219.5 -530t-219.5 -530.5t-530.5 -219.5t-530 219.5t-219 530.5zM254 721q0 -262 158.5 -432t406.5 -170q254 0 409.5 159.5t155.5 442.5t-155.5 442.5t-409.5 159.5q-248 0 -406.5 -170t-158.5 -432zM504 719q0 190 99 320 t226 130q68 0 112 -23.5t48 -23.5q12 0 19.5 13.5t7.5 25.5h22l6 -252h-20q-12 49 -21.5 79t-30 73t-53 64.5t-75.5 21.5q-111 0 -111 -250v-373q0 -129 25.5 -181t87.5 -52q55 0 106.5 61.5t73.5 175.5h23l-5 -243h-22q-8 35 -31 34q-6 0 -59 -24.5t-111 -24.5 q-98 0 -174 75t-109.5 174t-33.5 200z" />
<glyph unicode="&#xaa;" horiz-adv-x="616" d="M31 993q0 96 79.5 139.5t184.5 43.5h45v170q0 39 -15.5 55t-52.5 16q-70 0 -69 -31q0 -6 21.5 -34.5t21.5 -59.5q0 -35 -28 -54t-62 -19q-41 0 -68 20.5t-27 58.5q0 47 29 80t73 44.5t72.5 15.5t53.5 4q106 0 184 -37t78 -123v-338q0 -57 24 -57q12 0 20.5 12t8.5 25h25 q-18 -102 -144 -103q-100 0 -135 90q-51 -90 -147 -90q-76 0 -124 43t-48 129zM240 958q0 -63 47 -63q31 0 43 15.5t12 54.5v186h-33q-70 0 -69 -78v-115z" />
<glyph unicode="&#xab;" horiz-adv-x="796" d="M78 522l244 367h133l-240 -367l240 -375h-133zM342 522l244 367h133l-240 -367l240 -375h-133z" />
<glyph unicode="&#xac;" horiz-adv-x="1228" d="M96 618v234h1037v-629h-234v395h-803z" />
<glyph unicode="&#xad;" horiz-adv-x="757" d="M57 416q51 123 74 205q184 -4 277 -5q100 0 292 5q-53 -135 -71 -205q-184 4 -277 4q-98 0 -295 -4z" />
<glyph unicode="&#xae;" horiz-adv-x="1638" d="M444 1095.5q0 155.5 110 265t265.5 109.5t265 -109.5t109.5 -265t-109.5 -265t-265 -109.5t-265.5 109.5t-110 265zM537 1096q0 -131 79.5 -216t202.5 -85q127 0 205 79.5t78 221t-78 221.5t-205 80q-123 0 -202.5 -85t-79.5 -216zM670 893v10h26v391h-26v11h168 q61 0 93 -29t32 -72q0 -94 -132 -98v-2q76 -6 98.5 -29.5t28.5 -81.5l7 -78q2 -12 12 -12q6 0 8 2l8 4l4 -10q-25 -14 -49 -14q-55 0 -73.5 28.5t-20.5 83.5q-2 43 -5 61.5t-11.5 29t-26.5 10.5h-12v-195h24v-10h-153zM799 1112h12q29 0 38 14.5t9 61.5q0 66 -7 86t-34 20 h-18v-182z" />
<glyph unicode="&#xaf;" horiz-adv-x="569" d="M-35 1274v139h639v-139h-639z" />
<glyph unicode="&#xb0;" horiz-adv-x="819" d="M117 1149q0 121 86 207t206.5 86t206.5 -86t86 -207t-86 -207t-206.5 -86t-206.5 86t-86 207zM227 1149q0 -76 53.5 -129t129 -53t129 53t53.5 129t-53.5 129t-129 53t-129 -53t-53.5 -129z" />
<glyph unicode="&#xb1;" horiz-adv-x="1228" d="M96 0v233h1037v-233h-1037zM96 551v233h402v252h233v-252h402v-233h-402v-254h-233v254h-402z" />
<glyph unicode="&#xb2;" horiz-adv-x="692" d="M37 578q33 92 83 157.5t96 101t88 74.5t67.5 100.5t25.5 155.5v82q0 78 -29.5 111t-93.5 33q-70 0 -119 -44t-49 -89q0 -20 9 -21q6 0 30.5 9t44.5 9q43 0 68 -25.5t25 -68.5q0 -90 -113 -90q-57 0 -85 35t-28 80q0 115 72 178.5t195 63.5q166 0 248.5 -67t82.5 -173 q0 -90 -58 -156.5t-131 -100.5t-160 -83t-126 -100h416l10 57h31l-23 -229h-577z" />
<glyph unicode="&#xb3;" horiz-adv-x="692" d="M45 737q0 39 30.5 68t74.5 29q49 0 76.5 -25t27.5 -66q0 -37 -22.5 -54t-45 -24.5t-22.5 -19.5q0 -20 37 -31.5t69 -11.5q61 0 90 32t29 71v206q0 80 -137 80h-80v37h57q102 0 127 27.5t25 118.5v116q0 35 -9.5 56.5t-26.5 30.5t-31.5 12.5t-37.5 3.5q-100 0 -100 -37 q0 -12 20.5 -19.5t42 -24t21.5 -48.5q0 -43 -29.5 -66.5t-80.5 -23.5q-37 0 -62 29.5t-25 68.5q0 82 74 120t195 38q129 0 205.5 -51.5t76.5 -159.5q0 -178 -254 -207v-4q287 -10 287 -213q0 -121 -107.5 -175.5t-256.5 -54.5q-102 0 -170 42t-68 130z" />
<glyph unicode="&#xb4;" horiz-adv-x="569" d="M156 1141l88 215q47 113 75.5 146.5t102.5 33.5q115 0 115 -72q0 -49 -64 -100l-283 -223h-34z" />
<glyph unicode="&#xb6;" horiz-adv-x="1269" d="M125 1036q0 215 99.5 310.5t328.5 95.5h623v-49h-154v-1729h154v-49h-363v1765h-149v-1765h-363v49h154v936q-152 0 -241 120t-89 316z" />
<glyph unicode="&#xb7;" horiz-adv-x="532" d="M88 571.5q0 73.5 52.5 126t126 52.5t125.5 -52.5t52 -126t-52 -126t-125.5 -52.5t-126 52.5t-52.5 126z" />
<glyph unicode="&#xb8;" horiz-adv-x="569" d="M109 -387l10 47q94 -25 121 -25q51 0 88 21.5t37 64.5q0 82 -89 82q-14 0 -45 -6l-24 13l117 194h47l-103 -158l4 -4q49 23 105 23q66 0 120 -31t54 -92q0 -156 -266 -156q-51 0 -176 27z" />
<glyph unicode="&#xb9;" horiz-adv-x="692" d="M70 1217v36q164 76 245 177h154v-828h72v-24h-400v24h82v672q0 8 -10 8q-2 0 -23 -8z" />
<glyph unicode="&#xba;" horiz-adv-x="638" d="M20 1130q0 119 85 215.5t214.5 96.5t214 -96.5t84.5 -215.5q0 -117 -84.5 -213t-214 -96t-214.5 96.5t-85 212.5zM254 928q0 -82 65.5 -82t65.5 82v407q0 82 -65.5 82t-65.5 -82v-407z" />
<glyph unicode="&#xbb;" horiz-adv-x="796" d="M78 147l239 367l-239 375h133l244 -375l-244 -367h-133zM342 147l240 367l-240 375h133l244 -375l-244 -367h-133z" />
<glyph unicode="&#xbc;" horiz-adv-x="1593" d="M70 1217v36q164 76 245 177h154v-828h72v-24h-400v24h82v672q0 8 -10 8q-2 0 -23 -8zM408 -57l766 1527h81l-766 -1527h-81zM868 205v69l424 578h140v-537h92v-110h-92v-180h71v-25h-364v25h71v180h-342zM938 315h272v365h-4z" />
<glyph unicode="&#xbd;" horiz-adv-x="1593" d="M70 1217v36q164 76 245 177h154v-828h72v-24h-400v24h82v672q0 8 -10 8q-2 0 -23 -8zM336 -57l766 1527h82l-766 -1527h-82zM905 0q33 92 83 157.5t96 101.5t88 75t68 100.5t26 155.5v82q0 78 -30 110.5t-93 32.5q-70 0 -119 -44t-49 -89q0 -20 8 -20q6 0 30.5 9t45.5 9 q43 0 67.5 -25.5t24.5 -68.5q0 -90 -113 -90q-57 0 -84.5 34.5t-27.5 79.5q0 115 71.5 178.5t194.5 63.5q166 0 249 -66.5t83 -173.5q0 -90 -58.5 -156.5t-131 -100t-160 -83t-125.5 -100.5h415l11 57h30l-22 -229h-578z" />
<glyph unicode="&#xbe;" horiz-adv-x="1593" d="M45 737q0 39 30.5 68t74.5 29q49 0 76.5 -25t27.5 -66q0 -37 -22.5 -54t-45 -24.5t-22.5 -19.5q0 -20 37 -31.5t69 -11.5q61 0 90 32t29 71v206q0 80 -137 80h-80v37h57q102 0 127 27.5t25 118.5v116q0 35 -9.5 56.5t-26.5 30.5t-31.5 12.5t-37.5 3.5q-100 0 -100 -37 q0 -12 20.5 -19.5t42 -24t21.5 -48.5q0 -43 -29.5 -66.5t-80.5 -23.5q-37 0 -62 29.5t-25 68.5q0 82 74 120t195 38q129 0 205.5 -51.5t76.5 -159.5q0 -178 -254 -207v-4q287 -10 287 -213q0 -121 -107.5 -175.5t-256.5 -54.5q-102 0 -170 42t-68 130zM408 -57l766 1527h81 l-766 -1527h-81zM868 205v69l424 578h140v-537h92v-110h-92v-180h71v-25h-364v25h71v180h-342zM938 315h272v365h-4z" />
<glyph unicode="&#xbf;" horiz-adv-x="757" d="M47 -98q0 172 107 274l282 266q25 23 25 74v49h37v-383q0 -66 -29 -94l-141 -147q-96 -98 -97 -199q0 -80 56.5 -124t138.5 -44q25 0 64.5 11.5t39.5 33.5q0 10 -29.5 25.5t-60 49.5t-30.5 83q0 61 42 107t105 46q70 0 112 -47t42 -119q0 -109 -86 -168t-205 -59 q-178 0 -275.5 107.5t-97.5 257.5zM291 835.5q0 69.5 51 121t120.5 51.5t121 -51.5t51.5 -121t-51.5 -120.5t-121 -51t-120.5 51t-51 120.5z" />
<glyph unicode="&#xc0;" horiz-adv-x="985" d="M-70 0v37h25q72 0 104 123l363 1282h133l381 -1405h74v-37h-551v37h98l-90 366h-293l-53 -213q-20 -82 -21 -92q0 -35 17.5 -48t58.5 -13h33v-37h-279zM184 440h271l-125 512h-4zM188 1853q0 72 115 72q74 0 102.5 -33.5t75.5 -146.5l88 -215h-34l-283 223 q-63 51 -64 100z" />
<glyph unicode="&#xc1;" horiz-adv-x="985" d="M-70 0v37h25q72 0 104 123l363 1282h133l381 -1405h74v-37h-551v37h98l-90 366h-293l-53 -213q-20 -82 -21 -92q0 -35 17.5 -48t58.5 -13h33v-37h-279zM184 440h271l-125 512h-4zM401 1530l88 215q47 113 76 146.5t103 33.5q115 0 114 -72q0 -49 -63 -100l-283 -223h-35z " />
<glyph unicode="&#xc2;" horiz-adv-x="985" d="M-70 0v37h25q72 0 104 123l363 1282h133l381 -1405h74v-37h-551v37h98l-90 366h-293l-53 -213q-20 -82 -21 -92q0 -35 17.5 -48t58.5 -13h33v-37h-279zM184 440h271l-125 512h-4zM188 1530l222 395h143l221 -395h-45l-248 205l-248 -205h-45z" />
<glyph unicode="&#xc3;" horiz-adv-x="985" d="M-70 0v37h25q72 0 104 123l363 1282h133l381 -1405h74v-37h-551v37h98l-90 366h-293l-53 -213q-20 -82 -21 -92q0 -35 17.5 -48t58.5 -13h33v-37h-279zM162 1610q59 242 200 241q47 0 159 -41t147 -41q61 0 98 82h35q-16 -80 -67.5 -160.5t-119.5 -80.5q-55 0 -168.5 41 t-154.5 41q-35 0 -59.5 -22.5t-30.5 -59.5h-39zM184 440h271l-125 512h-4z" />
<glyph unicode="&#xc4;" horiz-adv-x="985" d="M-70 0v37h25q72 0 104 123l363 1282h133l381 -1405h74v-37h-551v37h98l-90 366h-293l-53 -213q-20 -82 -21 -92q0 -35 17.5 -48t58.5 -13h33v-37h-279zM125 1734.5q0 61.5 43 104.5t104.5 43t104.5 -43t43 -104.5t-43 -104.5t-104.5 -43t-104.5 43t-43 104.5zM184 440 h271l-125 512h-4zM543 1734.5q0 61.5 43 104.5t104.5 43t104.5 -43t43 -104.5t-43 -104.5t-104.5 -43t-104.5 43t-43 104.5z" />
<glyph unicode="&#xc5;" horiz-adv-x="985" d="M-70 0v37h25q72 0 104 123l363 1282h133l381 -1405h74v-37h-551v37h98l-90 366h-293l-53 -213q-20 -82 -21 -92q0 -35 17.5 -48t58.5 -13h33v-37h-279zM184 440h271l-125 512h-4zM274 1704q0 86 60.5 146.5t146.5 60.5t146.5 -60.5t60.5 -146.5t-60.5 -146.5 t-146.5 -60.5t-146.5 60.5t-60.5 146.5zM336 1704q0 -59 43 -102t102.5 -43t102.5 43t43 102t-43 102t-102.5 43t-102.5 -43t-43 -102z" />
<glyph unicode="&#xc6;" horiz-adv-x="1441" d="M-70 0v37h31q94 0 133 106l471 1262h-110v37h903l12 -373h-37q-10 123 -99 229.5t-202 106.5h-92v-649h31q94 0 131 65.5t57 204.5h37v-580h-37q-16 272 -174 273h-45v-682h82q127 0 215 109.5t109 289.5h36l-20 -436h-883v37h105v364h-353l-77 -219q-25 -68 -25 -92 q0 -53 92 -53h17v-37h-308zM246 438h338v905h-4z" />
<glyph unicode="&#xc7;" horiz-adv-x="1024" d="M68 721q0 317 164.5 533t377.5 216q82 0 137.5 -19t83 -38.5t43.5 -19.5q18 0 32 22.5t14 42.5h36l13 -422h-37q-14 66 -25.5 105t-37 102.5t-54.5 99t-76 63.5t-106 28q-184 0 -184 -418v-621q0 -217 41.5 -302t146.5 -85q92 0 176 100.5t125 292.5h37l-8 -405h-37 q-4 20 -7 29.5t-14.5 18.5t-29.5 9q-10 0 -99.5 -41t-185.5 -41q-12 0 -16 2l-82 -127l4 -4q49 23 104 23q66 0 120 -31t54 -92q0 -156 -266 -156q-51 0 -176 27l10 47q94 -25 121 -25q51 0 88 21.5t37 64.5q0 82 -88 82q-14 0 -45 -6l-25 13l103 170q-147 18 -258 143 t-161 282.5t-50 315.5z" />
<glyph unicode="&#xc8;" horiz-adv-x="985" d="M27 0v37h98v1368h-98v37h874l12 -373h-36q-10 123 -99.5 229.5t-202.5 106.5h-94v-649h33q94 0 131 65.5t57 204.5h37v-580h-37q-16 272 -174 273h-47v-682h84q127 0 215 109.5t109 289.5h37l-21 -436h-878zM279 1853q0 72 114 72q74 0 102.5 -33.5t75.5 -146.5l88 -215 h-34l-283 223q-63 51 -63 100z" />
<glyph unicode="&#xc9;" horiz-adv-x="985" d="M27 0v37h98v1368h-98v37h874l12 -373h-36q-10 123 -99.5 229.5t-202.5 106.5h-94v-649h33q94 0 131 65.5t57 204.5h37v-580h-37q-16 272 -174 273h-47v-682h84q127 0 215 109.5t109 289.5h37l-21 -436h-878zM391 1530l88 215q47 113 76 146.5t102 33.5q115 0 115 -72 q0 -49 -63 -100l-283 -223h-35z" />
<glyph unicode="&#xca;" horiz-adv-x="985" d="M27 0v37h98v1368h-98v37h874l12 -373h-36q-10 123 -99.5 229.5t-202.5 106.5h-94v-649h33q94 0 131 65.5t57 204.5h37v-580h-37q-16 272 -174 273h-47v-682h84q127 0 215 109.5t109 289.5h37l-21 -436h-878zM217 1530l221 395h144l221 -395h-45l-248 205l-248 -205h-45z " />
<glyph unicode="&#xcb;" horiz-adv-x="985" d="M27 0v37h98v1368h-98v37h874l12 -373h-36q-10 123 -99.5 229.5t-202.5 106.5h-94v-649h33q94 0 131 65.5t57 204.5h37v-580h-37q-16 272 -174 273h-47v-682h84q127 0 215 109.5t109 289.5h37l-21 -436h-878zM154 1734.5q0 61.5 43 104.5t104 43t104.5 -43t43.5 -104.5 t-43.5 -104.5t-104.5 -43t-104 43t-43 104.5zM571 1734.5q0 61.5 43 104.5t104.5 43t104.5 -43t43 -104.5t-43 -104.5t-104.5 -43t-104.5 43t-43 104.5z" />
<glyph unicode="&#xcc;" horiz-adv-x="606" d="M27 0v37h98v1368h-98v37h553v-37h-99v-1368h99v-37h-553zM70 1853q0 72 114 72q74 0 102.5 -33.5t75.5 -146.5l89 -215h-35l-283 223q-63 51 -63 100z" />
<glyph unicode="&#xcd;" horiz-adv-x="606" d="M27 0v37h98v1368h-98v37h553v-37h-99v-1368h99v-37h-553zM156 1530l88 215q47 113 75.5 146.5t102.5 33.5q115 0 115 -72q0 -49 -64 -100l-283 -223h-34z" />
<glyph unicode="&#xce;" horiz-adv-x="606" d="M10 1530l221 395h144l221 -395h-45l-248 205l-248 -205h-45zM27 0v37h98v1368h-98v37h553v-37h-99v-1368h99v-37h-553z" />
<glyph unicode="&#xcf;" horiz-adv-x="606" d="M-53 1734.5q0 61.5 43 104.5t104.5 43t104.5 -43t43 -104.5t-43 -104.5t-104.5 -43t-104.5 43t-43 104.5zM27 0v37h98v1368h-98v37h553v-37h-99v-1368h99v-37h-553zM365 1734.5q0 61.5 43 104.5t104 43t104 -43t43 -104.5t-43 -104.5t-104 -43t-104 43t-43 104.5z" />
<glyph unicode="&#xd0;" horiz-adv-x="1214" d="M27 0v37h98v694h-80v86h80v588h-98v37h524q596 0 596 -699q0 -121 -13.5 -219t-53.5 -199.5t-105.5 -170t-178 -111.5t-261.5 -43h-508zM481 37h66q90 0 133 50t64.5 202.5t21.5 468.5q0 281 -21.5 421t-62.5 183t-123 43h-78v-588h178v-86h-178v-694z" />
<glyph unicode="&#xd1;" horiz-adv-x="1062" d="M-4 0v37h43q45 0 62.5 27.5t17.5 87.5v1198q0 55 -62 55h-45v37h461l418 -940h4v829q0 74 -86 74h-49v37h307v-37h-61q-41 0 -51.5 -20.5t-10.5 -65.5v-1319h-215l-557 1257h-4v-1134q0 -47 12.5 -66.5t44.5 -19.5h58v-37h-287zM252 1610q59 242 201 241q47 0 158.5 -41 t146.5 -41q61 0 98 82h35q-16 -80 -67.5 -160.5t-118.5 -80.5q-55 0 -169 41t-155 41q-35 0 -59.5 -22.5t-30.5 -59.5h-39z" />
<glyph unicode="&#xd2;" horiz-adv-x="1175" d="M68 721q0 315 145 532t374.5 217t375 -217t145.5 -532t-145.5 -532.5t-375 -217.5t-374.5 217.5t-145 532.5zM340 1853q0 72 115 72q74 0 102.5 -33.5t75.5 -146.5l88 -215h-35l-283 223q-63 51 -63 100zM449 203q0 -195 139 -195t139 195v1036q0 195 -139 195t-139 -195 v-1036z" />
<glyph unicode="&#xd3;" horiz-adv-x="1175" d="M68 721q0 315 145 532t374.5 217t375 -217t145.5 -532t-145.5 -532.5t-375 -217.5t-374.5 217.5t-145 532.5zM449 203q0 -195 139 -195t139 195v1036q0 195 -139 195t-139 -195v-1036zM459 1530l88 215q47 113 75.5 146.5t102.5 33.5q115 0 115 -72q0 -49 -64 -100 l-282 -223h-35z" />
<glyph unicode="&#xd4;" horiz-adv-x="1175" d="M68 721q0 315 145 532t374.5 217t375 -217t145.5 -532t-145.5 -532.5t-375 -217.5t-374.5 217.5t-145 532.5zM295 1530l221 395h143l222 -395h-45l-248 205l-248 -205h-45zM449 203q0 -195 139 -195t139 195v1036q0 195 -139 195t-139 -195v-1036z" />
<glyph unicode="&#xd5;" horiz-adv-x="1175" d="M68 721q0 315 145 532t374.5 217t375 -217t145.5 -532t-145.5 -532.5t-375 -217.5t-374.5 217.5t-145 532.5zM268 1610q59 242 201 241q47 0 158.5 -41t146.5 -41q61 0 98 82h35q-16 -80 -67.5 -160.5t-118.5 -80.5q-55 0 -169 41t-155 41q-35 0 -59.5 -22.5t-30.5 -59.5 h-39zM449 203q0 -195 139 -195t139 195v1036q0 195 -139 195t-139 -195v-1036z" />
<glyph unicode="&#xd6;" horiz-adv-x="1175" d="M68 721q0 315 145 532t374.5 217t375 -217t145.5 -532t-145.5 -532.5t-375 -217.5t-374.5 217.5t-145 532.5zM231 1734.5q0 61.5 43 104.5t104.5 43t104.5 -43t43 -104.5t-43 -104.5t-104.5 -43t-104.5 43t-43 104.5zM449 203q0 -195 139 -195t139 195v1036 q0 195 -139 195t-139 -195v-1036zM649 1734.5q0 61.5 43 104.5t104.5 43t104.5 -43t43 -104.5t-43 -104.5t-104.5 -43t-104.5 43t-43 104.5z" />
<glyph unicode="&#xd7;" horiz-adv-x="1228" d="M133 195l324 323l-324 324l158 157l323 -323l324 323l158 -157l-326 -324l326 -323l-158 -158l-324 325l-323 -325z" />
<glyph unicode="&#xd8;" horiz-adv-x="1175" d="M68 721q0 315 145 532t375 217q156 0 274 -106l64 125l43 -23l-68 -137q98 -102 152.5 -262t54.5 -346q0 -315 -145.5 -532.5t-374.5 -217.5q-170 0 -299 129l-68 -133l-45 15l78 155q-186 215 -186 584zM449 203q0 -195 139 -195t139 195v778h-4l-274 -557v-221z M449 530h4l274 560v149q0 195 -139 195t-139 -195v-709z" />
<glyph unicode="&#xd9;" horiz-adv-x="1024" d="M27 1405v37h555v-37h-101v-1169q0 -190 170 -191q88 0 137.5 49t61.5 110.5t12 153.5v953q0 53 -16.5 73.5t-61.5 20.5h-41v37h277v-37h-49q-72 0 -72 -96v-985q0 -182 -83 -267.5t-263 -85.5q-193 0 -310.5 78t-117.5 254v1102h-98zM401 1853q0 72 115 72 q74 0 102.5 -33.5t75.5 -146.5l88 -215h-34l-283 223q-63 51 -64 100z" />
<glyph unicode="&#xda;" horiz-adv-x="1024" d="M27 1405v37h555v-37h-101v-1169q0 -190 170 -191q88 0 137.5 49t61.5 110.5t12 153.5v953q0 53 -16.5 73.5t-61.5 20.5h-41v37h277v-37h-49q-72 0 -72 -96v-985q0 -182 -83 -267.5t-263 -85.5q-193 0 -310.5 78t-117.5 254v1102h-98zM422 1530l88 215q47 113 75.5 146.5 t102.5 33.5q115 0 115 -72q0 -49 -64 -100l-282 -223h-35z" />
<glyph unicode="&#xdb;" horiz-adv-x="1024" d="M27 1405v37h555v-37h-101v-1169q0 -190 170 -191q88 0 137.5 49t61.5 110.5t12 153.5v953q0 53 -16.5 73.5t-61.5 20.5h-41v37h277v-37h-49q-72 0 -72 -96v-985q0 -182 -83 -267.5t-263 -85.5q-193 0 -310.5 78t-117.5 254v1102h-98zM289 1530l221 395h143l221 -395h-45 l-247 205l-248 -205h-45z" />
<glyph unicode="&#xdc;" horiz-adv-x="1024" d="M27 1405v37h555v-37h-101v-1169q0 -190 170 -191q88 0 137.5 49t61.5 110.5t12 153.5v953q0 53 -16.5 73.5t-61.5 20.5h-41v37h277v-37h-49q-72 0 -72 -96v-985q0 -182 -83 -267.5t-263 -85.5q-193 0 -310.5 78t-117.5 254v1102h-98zM236 1734.5q0 61.5 43 104.5t104 43 t104 -43t43 -104.5t-43 -104.5t-104 -43t-104 43t-43 104.5zM653 1734.5q0 61.5 43 104.5t104.5 43t104.5 -43t43 -104.5t-43 -104.5t-104.5 -43t-104.5 43t-43 104.5z" />
<glyph unicode="&#xdd;" horiz-adv-x="909" d="M-100 1405v37h571v-37h-98l229 -590h4q16 49 66.5 177t89.5 232.5t39 125.5q0 55 -72 55h-51v37h295v-37h-25q-39 0 -59.5 -16.5t-42.5 -75.5l-207 -518v-758h96v-37h-565v37h100v641l-284 727h-86zM360 1530l89 215q47 113 75.5 146.5t102.5 33.5q115 0 114 -72 q0 -49 -63 -100l-283 -223h-35z" />
<glyph unicode="&#xde;" horiz-adv-x="1099" d="M27 0v37h98v1368h-98v37h573v-37h-119v-197h178q205 0 314.5 -100t109.5 -268q0 -176 -116.5 -285t-302.5 -109h-183v-409h119v-37h-573zM481 483h68q84 0 125 84t41 275q0 182 -30 255.5t-128 73.5h-76v-688z" />
<glyph unicode="&#xdf;" horiz-adv-x="1099" d="M27 0v37h86v956q0 236 126 368t357 132q133 0 233.5 -69.5t100.5 -194.5q0 -72 -26.5 -121t-92.5 -107l-68 -59q-59 -51 -59 -65q0 -23 55 -62l129 -88q119 -84 157 -168t38 -207q0 -158 -81 -269.5t-241 -111.5q-82 0 -144 46t-62 141q0 66 34.5 101.5t89.5 35.5 q45 0 77 -32t32 -77q0 -37 -15.5 -60.5t-34 -31.5t-33.5 -22.5t-15 -36.5q0 -39 61 -39q80 0 126 46t46 122q0 57 -39 108.5t-95 90t-111.5 79.5t-94.5 95.5t-39 117.5q0 68 44 138.5t97.5 123t97.5 132t44 165.5q0 104 -43 173t-141 69q-113 0 -146 -75.5t-33 -239.5v-1104 h74v-37h-491z" />
<glyph unicode="&#xe0;" d="M25 258q0 309 485 313v279q0 66 -23.5 93.5t-78.5 27.5q-37 0 -72 -13.5t-35 -39.5q0 -8 33 -57.5t33 -98.5q0 -59 -42 -92t-94 -33q-63 0 -105 35t-42 98q0 78 44 131t112.5 73.5t112.5 27t85 6.5q100 0 185.5 -20.5t152 -84.5t66.5 -164v-561q0 -96 35 -96 q16 0 26 21.5t10 39.5h41q-31 -172 -223 -172q-72 0 -127 39t-80 113q-82 -152 -235 -152q-117 0 -190.5 73t-73.5 214zM264 1464q0 72 115 72q74 0 102.5 -34t75.5 -146l88 -215h-35l-282 223q-63 51 -64 100zM356 203q0 -109 74 -109q45 0 62.5 27t17.5 90v324h-47 q-106 0 -107 -132v-200z" />
<glyph unicode="&#xe1;" d="M25 258q0 309 485 313v279q0 66 -23.5 93.5t-78.5 27.5q-37 0 -72 -13.5t-35 -39.5q0 -8 33 -57.5t33 -98.5q0 -59 -42 -92t-94 -33q-63 0 -105 35t-42 98q0 78 44 131t112.5 73.5t112.5 27t85 6.5q100 0 185.5 -20.5t152 -84.5t66.5 -164v-561q0 -96 35 -96 q16 0 26 21.5t10 39.5h41q-31 -172 -223 -172q-72 0 -127 39t-80 113q-82 -152 -235 -152q-117 0 -190.5 73t-73.5 214zM346 1141l88 215q47 113 76 146.5t102 33.5q115 0 115 -72q0 -49 -63 -100l-283 -223h-35zM356 203q0 -109 74 -109q45 0 62.5 27t17.5 90v324h-47 q-106 0 -107 -132v-200z" />
<glyph unicode="&#xe2;" d="M25 258q0 309 485 313v279q0 66 -23.5 93.5t-78.5 27.5q-37 0 -72 -13.5t-35 -39.5q0 -8 33 -57.5t33 -98.5q0 -59 -42 -92t-94 -33q-63 0 -105 35t-42 98q0 78 44 131t112.5 73.5t112.5 27t85 6.5q100 0 185.5 -20.5t152 -84.5t66.5 -164v-561q0 -96 35 -96 q16 0 26 21.5t10 39.5h41q-31 -172 -223 -172q-72 0 -127 39t-80 113q-82 -152 -235 -152q-117 0 -190.5 73t-73.5 214zM203 1141l221 395h143l221 -395h-45l-247 205l-248 -205h-45zM356 203q0 -109 74 -109q45 0 62.5 27t17.5 90v324h-47q-106 0 -107 -132v-200z" />
<glyph unicode="&#xe3;" d="M25 258q0 309 485 313v279q0 66 -23.5 93.5t-78.5 27.5q-37 0 -72 -13.5t-35 -39.5q0 -8 33 -57.5t33 -98.5q0 -59 -42 -92t-94 -33q-63 0 -105 35t-42 98q0 78 44 131t112.5 73.5t112.5 27t85 6.5q100 0 185.5 -20.5t152 -84.5t66.5 -164v-561q0 -96 35 -96 q16 0 26 21.5t10 39.5h41q-31 -172 -223 -172q-72 0 -127 39t-80 113q-82 -152 -235 -152q-117 0 -190.5 73t-73.5 214zM176 1221q61 242 201 241q47 0 158.5 -41t146.5 -41q61 0 98 82h35q-16 -80 -67.5 -160.5t-118.5 -80.5q-55 0 -169 41t-155 41q-35 0 -59.5 -22.5 t-30.5 -59.5h-39zM356 203q0 -109 74 -109q45 0 62.5 27t17.5 90v324h-47q-106 0 -107 -132v-200z" />
<glyph unicode="&#xe4;" d="M25 258q0 309 485 313v279q0 66 -23.5 93.5t-78.5 27.5q-37 0 -72 -13.5t-35 -39.5q0 -8 33 -57.5t33 -98.5q0 -59 -42 -92t-94 -33q-63 0 -105 35t-42 98q0 78 44 131t112.5 73.5t112.5 27t85 6.5q100 0 185.5 -20.5t152 -84.5t66.5 -164v-561q0 -96 35 -96 q16 0 26 21.5t10 39.5h41q-31 -172 -223 -172q-72 0 -127 39t-80 113q-82 -152 -235 -152q-117 0 -190.5 73t-73.5 214zM139 1345.5q0 61.5 43 104.5t104.5 43t104.5 -43t43 -104.5t-43 -104.5t-104.5 -43t-104.5 43t-43 104.5zM356 203q0 -109 74 -109q45 0 62.5 27 t17.5 90v324h-47q-106 0 -107 -132v-200zM557 1345.5q0 61.5 43 104.5t104.5 43t104.5 -43t43 -104.5t-43 -104.5t-104.5 -43t-104.5 43t-43 104.5z" />
<glyph unicode="&#xe5;" d="M25 258q0 309 485 313v279q0 66 -23.5 93.5t-78.5 27.5q-37 0 -72 -13.5t-35 -39.5q0 -8 33 -57.5t33 -98.5q0 -59 -42 -92t-94 -33q-63 0 -105 35t-42 98q0 78 44 131t112.5 73.5t112.5 27t85 6.5q100 0 185.5 -20.5t152 -84.5t66.5 -164v-561q0 -96 35 -96 q16 0 26 21.5t10 39.5h41q-31 -172 -223 -172q-72 0 -127 39t-80 113q-82 -152 -235 -152q-117 0 -190.5 73t-73.5 214zM289 1315q0 86 60.5 146.5t146.5 60.5t146 -60.5t60 -146.5t-60 -146.5t-146 -60.5t-146.5 60.5t-60.5 146.5zM350 1314.5q0 -59.5 43 -102.5t102.5 -43 t102.5 43t43 102.5t-43 102.5t-102.5 43t-102.5 -43t-43 -102.5zM356 203q0 -109 74 -109q45 0 62.5 27t17.5 90v324h-47q-106 0 -107 -132v-200z" />
<glyph unicode="&#xe6;" horiz-adv-x="1400" d="M37 258q0 309 485 313v279q0 66 -23.5 93.5t-78.5 27.5q-37 0 -72 -13.5t-35 -39.5q0 -8 33 -57.5t33 -98.5q0 -59 -42 -92t-93 -33q-63 0 -105.5 35t-42.5 98q0 78 44 131t113 73.5t113 27t85 6.5q170 0 266 -99q88 98 237 99q195 0 301.5 -138.5t108.5 -343.5h-510 v-299q0 -94 41 -144t141 -50q82 0 162 78.5t121 195.5l37 -8q-66 -158 -157 -243t-245 -85q-195 0 -327 129q-152 -129 -326 -129q-117 0 -190.5 73t-73.5 214zM369 137q0 -104 73 -104q47 10 63.5 31.5t16.5 80.5v390h-47q-106 -1 -106 -132v-266zM854 563h178v301 q0 59 -20.5 83t-69.5 24q-39 0 -63.5 -23.5t-24.5 -66.5v-318z" />
<glyph unicode="&#xe7;" horiz-adv-x="833" d="M37 489q0 195 130 357t327 162q127 0 220 -59.5t93 -166.5q0 -61 -43 -107t-105 -46q-57 0 -102 32.5t-45 88.5q0 53 44 102t44 76q0 43 -96 43q-51 0 -81 -32t-30 -122v-637q0 -90 34 -118.5t89 -28.5q182 0 287 272l33 -10q-45 -150 -141.5 -237t-200.5 -87h-13 l-80 -125l5 -4q49 23 104 23q66 0 120 -31t54 -92q0 -156 -266 -156q-51 0 -176 27l10 47q94 -25 121 -25q51 0 88 21.5t37 64.5q0 82 -88 82q-14 0 -45 -6l-25 13l98 165q-176 25 -288.5 179.5t-112.5 334.5z" />
<glyph unicode="&#xe8;" d="M37 489.5q0 194.5 130 356.5t327 162q195 0 301 -138.5t108 -343.5h-510v-299q0 -94 41 -144t141 -50q82 0 162 78.5t121 195.5l37 -8q-66 -158 -157 -243t-244 -85q-197 0 -327 162t-130 356.5zM254 1464q0 72 115 72q74 0 102.5 -34t75.5 -146l88 -215h-35l-283 223 q-63 51 -63 100zM393 563h178v301q0 59 -20.5 83t-69.5 24q-39 0 -63.5 -23.5t-24.5 -66.5v-318z" />
<glyph unicode="&#xe9;" d="M37 489.5q0 194.5 130 356.5t327 162q195 0 301 -138.5t108 -343.5h-510v-299q0 -94 41 -144t141 -50q82 0 162 78.5t121 195.5l37 -8q-66 -158 -157 -243t-244 -85q-197 0 -327 162t-130 356.5zM346 1141l88 215q47 113 76 146.5t102 33.5q115 0 115 -72q0 -49 -63 -100 l-283 -223h-35zM393 563h178v301q0 59 -20.5 83t-69.5 24q-39 0 -63.5 -23.5t-24.5 -66.5v-318z" />
<glyph unicode="&#xea;" d="M37 489.5q0 194.5 130 356.5t327 162q195 0 301 -138.5t108 -343.5h-510v-299q0 -94 41 -144t141 -50q82 0 162 78.5t121 195.5l37 -8q-66 -158 -157 -243t-244 -85q-197 0 -327 162t-130 356.5zM203 1141l221 395h143l221 -395h-45l-247 205l-248 -205h-45zM393 563h178 v301q0 59 -20.5 83t-69.5 24q-39 0 -63.5 -23.5t-24.5 -66.5v-318z" />
<glyph unicode="&#xeb;" d="M37 489.5q0 194.5 130 356.5t327 162q195 0 301 -138.5t108 -343.5h-510v-299q0 -94 41 -144t141 -50q82 0 162 78.5t121 195.5l37 -8q-66 -158 -157 -243t-244 -85q-197 0 -327 162t-130 356.5zM139 1345.5q0 61.5 43 104.5t104.5 43t104.5 -43t43 -104.5t-43 -104.5 t-104.5 -43t-104.5 43t-43 104.5zM393 563h178v301q0 59 -20.5 83t-69.5 24q-39 0 -63.5 -23.5t-24.5 -66.5v-318zM557 1345.5q0 61.5 43 104.5t104.5 43t104.5 -43t43 -104.5t-43 -104.5t-104.5 -43t-104.5 43t-43 104.5z" />
<glyph unicode="&#xec;" horiz-adv-x="569" d="M27 0v37h86v905h-86v37h227q111 0 203 45v-987h86v-37h-516zM33 1464q0 72 114 72q74 0 103 -34t76 -146l88 -215h-35l-283 223q-63 51 -63 100z" />
<glyph unicode="&#xed;" horiz-adv-x="569" d="M27 0v37h86v905h-86v37h227q111 0 203 45v-987h86v-37h-516zM156 1141l88 215q47 113 75.5 146.5t102.5 33.5q115 0 115 -72q0 -49 -64 -100l-283 -223h-34z" />
<glyph unicode="&#xee;" horiz-adv-x="569" d="M-8 1141l221 395h143l222 -395h-46l-247 205l-248 -205h-45zM27 0v37h86v905h-86v37h227q111 0 203 45v-987h86v-37h-516z" />
<glyph unicode="&#xef;" horiz-adv-x="569" d="M-72 1345.5q0 61.5 43 104.5t104.5 43t104.5 -43t43 -104.5t-43 -104.5t-104.5 -43t-104.5 43t-43 104.5zM27 0v37h86v905h-86v37h227q111 0 203 45v-987h86v-37h-516zM346 1345.5q0 61.5 43 104.5t104.5 43t104.5 -43t43 -104.5t-43 -104.5t-104.5 -43t-104.5 43 t-43 104.5z" />
<glyph unicode="&#xf0;" horiz-adv-x="987" d="M37 489.5q0 194.5 130 356.5t327 162q45 0 86 -19q-37 127 -115 234l-211 -105l-41 68l207 102q-88 111 -209 168l16 37q125 -18 318 -135l225 110l43 -69l-188 -92q147 -131 236 -318.5t89 -374.5q0 -299 -125 -471t-331 -172q-197 0 -327 162t-130 356.5zM393 145 q0 -137 100.5 -137t100.5 137v689q0 137 -100.5 137t-100.5 -137v-689z" />
<glyph unicode="&#xf1;" horiz-adv-x="1099" d="M27 0v37h86v905h-86v37h227q111 0 203 45v-172h4q104 156 274 156q252 0 252 -265v-706h86v-37h-498v37h68v780q0 80 -57 80q-53 0 -91 -50t-38 -124v-686h67v-37h-497zM231 1221q59 242 201 241q47 0 158.5 -41t146.5 -41q61 0 99 82h34q-16 -80 -67 -160.5t-119 -80.5 q-55 0 -169 41t-155 41q-35 0 -59.5 -22.5t-30.5 -59.5h-39z" />
<glyph unicode="&#xf2;" horiz-adv-x="987" d="M37 489.5q0 194.5 130 356.5t326.5 162t326.5 -162t130 -356.5t-130 -356.5t-326.5 -162t-326.5 162t-130 356.5zM242 1464q0 72 114 72q74 0 102.5 -34t76.5 -146l88 -215h-35l-283 223q-63 51 -63 100zM393 145q0 -137 100.5 -137t100.5 137v689q0 137 -100.5 137 t-100.5 -137v-689z" />
<glyph unicode="&#xf3;" horiz-adv-x="987" d="M37 489.5q0 194.5 130 356.5t326.5 162t326.5 -162t130 -356.5t-130 -356.5t-326.5 -162t-326.5 162t-130 356.5zM365 1141l88 215q47 113 75.5 146.5t102.5 33.5q115 0 114 -72q0 -49 -63 -100l-283 -223h-34zM393 145q0 -137 100.5 -137t100.5 137v689 q0 137 -100.5 137t-100.5 -137v-689z" />
<glyph unicode="&#xf4;" horiz-adv-x="987" d="M37 489.5q0 194.5 130 356.5t326.5 162t326.5 -162t130 -356.5t-130 -356.5t-326.5 -162t-326.5 162t-130 356.5zM201 1141l221 395h143l221 -395h-45l-247 205l-248 -205h-45zM393 145q0 -137 100.5 -137t100.5 137v689q0 137 -100.5 137t-100.5 -137v-689z" />
<glyph unicode="&#xf5;" horiz-adv-x="987" d="M37 489.5q0 194.5 130 356.5t326.5 162t326.5 -162t130 -356.5t-130 -356.5t-326.5 -162t-326.5 162t-130 356.5zM174 1221q59 242 201 241q47 0 158.5 -41t146.5 -41q61 0 98 82h35q-16 -80 -67.5 -160.5t-118.5 -80.5q-55 0 -169 41t-155 41q-35 0 -59.5 -22.5 t-30.5 -59.5h-39zM393 145q0 -137 100.5 -137t100.5 137v689q0 137 -100.5 137t-100.5 -137v-689z" />
<glyph unicode="&#xf6;" horiz-adv-x="987" d="M37 489.5q0 194.5 130 356.5t326.5 162t326.5 -162t130 -356.5t-130 -356.5t-326.5 -162t-326.5 162t-130 356.5zM137 1345.5q0 61.5 43 104.5t104.5 43t104.5 -43t43 -104.5t-43 -104.5t-104.5 -43t-104.5 43t-43 104.5zM393 145q0 -137 100.5 -137t100.5 137v689 q0 137 -100.5 137t-100.5 -137v-689zM555 1345.5q0 61.5 43 104.5t104.5 43t104.5 -43t43 -104.5t-43 -104.5t-104.5 -43t-104.5 43t-43 104.5z" />
<glyph unicode="&#xf7;" horiz-adv-x="1228" d="M96 401v234h1037v-234h-1037zM438 94q0 74 52.5 126t126 52t126 -52t52.5 -126t-52.5 -126t-126 -52t-126 52t-52.5 126zM438 942q0 74 52.5 126t126 52t126 -52t52.5 -126t-52.5 -126t-126 -52t-126 52t-52.5 126z" />
<glyph unicode="&#xf8;" horiz-adv-x="987" d="M37 489q0 195 130 357t327 162q106 0 196 -52l66 140l41 -21l-68 -143q221 -180 221 -443q0 -195 -130 -356.5t-326 -161.5q-109 0 -193 52l-57 -123l-43 18l61 129q-98 55 -161.5 185t-63.5 257zM393 145q0 -137 100.5 -137t100.5 137v500h-4l-197 -428v-72zM393 326h4 l197 426v82q0 137 -100.5 137t-100.5 -137v-508z" />
<glyph unicode="&#xf9;" horiz-adv-x="1099" d="M27 942v37h227q111 0 203 45v-862q0 -80 57 -80q53 0 91 50t38 124v686h-86v37h227q111 0 203 45v-987h86v-37h-428v127h-6q-104 -156 -274 -156q-252 0 -252 265v706h-86zM299 1464q0 72 115 72q74 0 102.5 -34t75.5 -146l88 -215h-35l-283 223q-63 51 -63 100z" />
<glyph unicode="&#xfa;" horiz-adv-x="1099" d="M27 942v37h227q111 0 203 45v-862q0 -80 57 -80q53 0 91 50t38 124v686h-86v37h227q111 0 203 45v-987h86v-37h-428v127h-6q-104 -156 -274 -156q-252 0 -252 265v706h-86zM422 1141l88 215q47 113 75.5 146.5t102.5 33.5q115 0 115 -72q0 -49 -64 -100l-282 -223h-35z " />
<glyph unicode="&#xfb;" horiz-adv-x="1099" d="M27 942v37h227q111 0 203 45v-862q0 -80 57 -80q53 0 91 50t38 124v686h-86v37h227q111 0 203 45v-987h86v-37h-428v127h-6q-104 -156 -274 -156q-252 0 -252 265v706h-86zM258 1141l221 395h144l221 -395h-45l-248 205l-248 -205h-45z" />
<glyph unicode="&#xfc;" horiz-adv-x="1099" d="M27 942v37h227q111 0 203 45v-862q0 -80 57 -80q53 0 91 50t38 124v686h-86v37h227q111 0 203 45v-987h86v-37h-428v127h-6q-104 -156 -274 -156q-252 0 -252 265v706h-86zM195 1345.5q0 61.5 43 104.5t104 43t104 -43t43 -104.5t-43 -104.5t-104 -43t-104 43t-43 104.5z M612 1345.5q0 61.5 43 104.5t104.5 43t104.5 -43t43 -104.5t-43 -104.5t-104.5 -43t-104.5 43t-43 104.5z" />
<glyph unicode="&#xfd;" horiz-adv-x="796" d="M-49 942v37h504v-37h-74l164 -522h4l104 332q31 94 31 122q0 68 -72 68h-22v37h256v-37h-19q-39 0 -68.5 -48t-76.5 -189l-311 -977q-57 -178 -203 -181q-78 -2 -124 43t-46 117q0 63 35 107.5t92 44.5q131 0 131 -127q0 -55 -25.5 -84t-52 -38t-26.5 -13q0 -12 43 -13 q41 0 78.5 38t60.5 116l53 188l-362 1016h-74zM332 1141l88 215q47 113 75.5 146.5t102.5 33.5q115 0 115 -72q0 -49 -64 -100l-282 -223h-35z" />
<glyph unicode="&#xfe;" horiz-adv-x="1062" d="M27 -412h86v1823h-86v37h235q100 0 195 45v-612h4q29 55 88 91t123 36q119 0 202.5 -84t117.5 -192.5t34 -223.5q0 -125 -35 -241.5t-124 -206t-216 -89.5q-61 0 -113.5 31t-76.5 86h-4v-504h86v-37h-516v41zM457 221q0 -72 28.5 -118t83.5 -46q88 0 88 127v637 q0 100 -84 101q-49 0 -82.5 -43t-33.5 -113v-545z" />
<glyph unicode="&#xff;" horiz-adv-x="796" d="M-49 942v37h504v-37h-74l164 -522h4l104 332q31 94 31 122q0 68 -72 68h-22v37h256v-37h-19q-39 0 -68.5 -48t-76.5 -189l-311 -977q-57 -178 -203 -181q-78 -2 -124 43t-46 117q0 63 35 107.5t92 44.5q131 0 131 -127q0 -55 -25.5 -84t-52 -38t-26.5 -13q0 -12 43 -13 q41 0 78.5 38t60.5 116l53 188l-362 1016h-74zM104 1345.5q0 61.5 43 104.5t104.5 43t104.5 -43t43 -104.5t-43 -104.5t-104.5 -43t-104.5 43t-43 104.5zM522 1345.5q0 61.5 43 104.5t104.5 43t104.5 -43t43 -104.5t-43 -104.5t-104.5 -43t-104.5 43t-43 104.5z" />
<glyph unicode="&#x152;" horiz-adv-x="1593" d="M68 721q0 307 145 522t375 215q14 0 155 -16h766l13 -373h-37q-10 123 -99.5 229.5t-201.5 106.5h-88v-649h26q94 0 131 65.5t58 204.5h37v-580h-37q-16 272 -174 273h-41v-682h78q127 0 215 109.5t108 289.5h37l-21 -436h-729q-35 -2 -100 -10q-92 -6 -96 -6 q-229 0 -374.5 215t-145.5 522zM449 215q0 -195 139 -195t139 195v1012q0 195 -139 195t-139 -195v-1012z" />
<glyph unicode="&#x153;" horiz-adv-x="1478" d="M37 489.5q0 194.5 130 356.5t327 162q61 0 127.5 -32t111.5 -85q104 117 258 117q195 0 300.5 -138.5t107.5 -343.5h-510v-299q0 -94 41 -144t141 -50q82 0 162 78.5t121 195.5l37 -8q-66 -158 -157 -243t-243 -85q-74 0 -148.5 28t-113.5 83q-49 -47 -117.5 -79 t-117.5 -32q-197 0 -327 162t-130 356.5zM393 154q0 -146 94.5 -146t94.5 146v671q0 145 -94.5 145.5t-94.5 -145.5v-671zM889 563h178v301q0 59 -20.5 83t-69.5 24q-39 0 -63.5 -23.5t-24.5 -66.5v-318z" />
<glyph unicode="&#x178;" horiz-adv-x="909" d="M-100 1405v37h571v-37h-98l229 -590h4q16 49 66.5 177t89.5 232.5t39 125.5q0 55 -72 55h-51v37h295v-37h-25q-39 0 -59.5 -16.5t-42.5 -75.5l-207 -518v-758h96v-37h-565v37h100v641l-284 727h-86zM123 1734.5q0 61.5 43 104.5t104.5 43t104.5 -43t43 -104.5t-43 -104.5 t-104.5 -43t-104.5 43t-43 104.5zM541 1734.5q0 61.5 43 104.5t104.5 43t104.5 -43t43 -104.5t-43 -104.5t-104.5 -43t-104.5 43t-43 104.5z" />
<glyph unicode="&#x2c6;" horiz-adv-x="569" d="M-8 1141l221 395h143l222 -395h-46l-247 205l-248 -205h-45z" />
<glyph unicode="&#x2dc;" horiz-adv-x="569" d="M-35 1221q59 242 201 241q47 0 158.5 -41t146.5 -41q61 0 98 82h35q-16 -80 -67.5 -160.5t-118.5 -80.5q-55 0 -169 41t-155 41q-35 0 -59.5 -22.5t-30.5 -59.5h-39z" />
<glyph unicode="&#x2000;" horiz-adv-x="962" />
<glyph unicode="&#x2001;" horiz-adv-x="1925" />
<glyph unicode="&#x2002;" horiz-adv-x="962" />
<glyph unicode="&#x2003;" horiz-adv-x="1925" />
<glyph unicode="&#x2004;" horiz-adv-x="641" />
<glyph unicode="&#x2005;" horiz-adv-x="481" />
<glyph unicode="&#x2006;" horiz-adv-x="320" />
<glyph unicode="&#x2007;" horiz-adv-x="320" />
<glyph unicode="&#x2008;" horiz-adv-x="240" />
<glyph unicode="&#x2009;" horiz-adv-x="385" />
<glyph unicode="&#x200a;" horiz-adv-x="106" />
<glyph unicode="&#x2010;" horiz-adv-x="757" d="M57 416q51 123 74 205q184 -4 277 -5q100 0 292 5q-53 -135 -71 -205q-184 4 -277 4q-98 0 -295 -4z" />
<glyph unicode="&#x2011;" horiz-adv-x="757" d="M57 416q51 123 74 205q184 -4 277 -5q100 0 292 5q-53 -135 -71 -205q-184 4 -277 4q-98 0 -295 -4z" />
<glyph unicode="&#x2012;" horiz-adv-x="757" d="M57 416q51 123 74 205q184 -4 277 -5q100 0 292 5q-53 -135 -71 -205q-184 4 -277 4q-98 0 -295 -4z" />
<glyph unicode="&#x2013;" horiz-adv-x="1024" d="M0 426v184h1024v-184h-1024z" />
<glyph unicode="&#x2014;" horiz-adv-x="2048" d="M266 426v184h1516v-184h-1516z" />
<glyph unicode="&#x2018;" horiz-adv-x="532" d="M84 1051q0 150 78 265t248 154l14 -38q-254 -74 -254 -324v-27q57 51 123 52q57 0 106.5 -39t49.5 -127q0 -74 -48.5 -126.5t-128.5 -52.5q-70 0 -129 62.5t-59 200.5z" />
<glyph unicode="&#x2019;" horiz-adv-x="532" d="M84 1292q0 74 48 126t128 52q70 0 129.5 -62t59.5 -200q0 -150 -78 -265.5t-248 -154.5l-14 39q254 74 253 324v27q-57 -51 -122 -52q-57 0 -106.5 39t-49.5 127z" />
<glyph unicode="&#x201a;" horiz-adv-x="532" d="M84 137q0 74 48 126t128 52q70 0 129.5 -62.5t59.5 -199.5q0 -150 -78 -265.5t-248 -154.5l-14 39q254 74 253 324v27q-57 -51 -122 -52q-57 0 -106.5 39t-49.5 127z" />
<glyph unicode="&#x201c;" d="M74 1051q0 150 77.5 265t247.5 154l15 -38q-254 -74 -254 -324v-27q57 51 123 52q57 0 106 -39t49 -127q0 -74 -48 -126.5t-128 -52.5q-70 0 -129 62.5t-59 200.5zM510 1051q0 150 78 265t248 154l14 -38q-254 -74 -254 -324v-27q57 51 123 52q57 0 106 -39t49 -127 q0 -74 -48 -126.5t-128 -52.5q-70 0 -129 62.5t-59 200.5z" />
<glyph unicode="&#x201d;" d="M74 1292q0 74 48 126t128 52q70 0 129 -62t59 -200q0 -150 -77.5 -265.5t-247.5 -154.5l-15 39q254 74 254 324v27q-57 -51 -123 -52q-57 0 -106 39t-49 127zM510 1292q0 74 48 126t128 52q70 0 129 -62t59 -200q0 -150 -77.5 -265.5t-247.5 -154.5l-14 39 q254 74 253 324v27q-57 -51 -122 -52q-57 0 -106.5 39t-49.5 127z" />
<glyph unicode="&#x201e;" d="M74 137q0 74 48 126t128 52q70 0 129 -62.5t59 -199.5q0 -150 -77.5 -265.5t-247.5 -154.5l-15 39q254 74 254 324v27q-57 -51 -123 -52q-57 0 -106 39t-49 127zM510 137q0 74 48 126t128 52q70 0 129 -62.5t59 -199.5q0 -150 -77.5 -265.5t-247.5 -154.5l-14 39 q254 74 253 324v27q-57 -51 -122 -52q-57 0 -106.5 39t-49.5 127z" />
<glyph unicode="&#x2022;" horiz-adv-x="1024" d="M152 720.5q0 149.5 105 255t255 105.5t255 -105.5t105 -255t-105 -255t-255 -105.5t-255 105.5t-105 255z" />
<glyph unicode="&#x2026;" horiz-adv-x="2048" d="M164 149.5q0 73.5 52 126t126 52.5t126 -52.5t52 -126t-52 -126t-126 -52.5t-126 52.5t-52 126zM846 149.5q0 73.5 52 126t126 52.5t126 -52.5t52 -126t-52 -126t-126 -52.5t-126 52.5t-52 126zM1528 149.5q0 73.5 52 126t126 52.5t126 -52.5t52 -126t-52 -126 t-126 -52.5t-126 52.5t-52 126z" />
<glyph unicode="&#x202f;" horiz-adv-x="385" />
<glyph unicode="&#x2039;" horiz-adv-x="532" d="M78 522l244 367h133l-240 -367l240 -375h-133z" />
<glyph unicode="&#x203a;" horiz-adv-x="532" d="M78 147l239 367l-239 375h133l244 -375l-244 -367h-133z" />
<glyph unicode="&#x205f;" horiz-adv-x="481" />
<glyph unicode="&#x2122;" horiz-adv-x="2048" d="M27 1284v158h671v-158h-32q-20 123 -113 125h-88v-655h92v-33h-389v33h92v655h-88q-92 -2 -113 -125h-32zM795 1409v33h241l234 -481l252 481h243v-33h-94v-655h92v-33h-389v33h92v465h-2l-256 -496h-28l-234 496h-4v-465h92v-33h-237v33h92v655h-94z" />
<glyph unicode="&#x25fc;" horiz-adv-x="983" d="M0 0v983h983v-983h-983z" />
</font>
</defs>
</svg>
