<?xml version="1.0" standalone="no"?>
<!DOCTYPE svg PUBLIC "-//W3C//DTD SVG 1.1//EN" "http://www.w3.org/Graphics/SVG/1.1/DTD/svg11.dtd" >
<svg xmlns="http://www.w3.org/2000/svg" xmlns:xlink="http://www.w3.org/1999/xlink" version="1.1">
<metadata></metadata>
<defs>
<font id="bauer_bodonibolditalic" horiz-adv-x="1138" >
<font-face units-per-em="2048" ascent="1638" descent="-410" />
<missing-glyph horiz-adv-x="569" />
<glyph unicode="&#xfb01;" horiz-adv-x="1251" d="M-332 -414q0 66 37 99.5t94 33.5q61 0 94 -33.5t33 -78.5t-26.5 -75t-61.5 -34v-4q94 0 137 73t74 249q18 98 48 264t48.5 265t40 215t37 186.5t25.5 105.5h-148l9 37h149q193 616 674 616q61 0 112.5 -9t100.5 -32.5t76.5 -67.5t27.5 -107.5t-42 -101.5t-107 -38 q-51 0 -92 36t-41 85t27.5 80.5t55 48t27.5 26.5q0 29 -43 42.5t-80 13.5q-72 0 -133 -30t-106 -88t-76 -108.5t-57.5 -134.5t-36.5 -121.5t-27 -109.5h455q125 0 188 45l-223 -731q-31 -109 -31 -111q0 -43 37 -43q43 0 96.5 58.5t77.5 107.5l29 -16q-127 -223 -303 -224 q-63 0 -116.5 47.5t-53.5 112.5q0 49 24 131l183 586h-369l-115 -524q-12 -53 -41.5 -145.5t-84 -221.5t-118 -238.5t-147.5 -187.5t-168 -78q-61 0 -115.5 35t-54.5 94z" />
<glyph unicode="&#xfb02;" horiz-adv-x="1251" d="M-332 -414q0 66 37 99.5t94 33.5q61 0 94 -33.5t33 -78.5t-26.5 -75t-61.5 -34v-4q94 0 137 73t74 249q18 98 48 264t48.5 265t40 215t37 186.5t25.5 105.5h-148l9 37h149q193 616 678 616q131 0 192 -86l191 86l-381 -1302q-31 -109 -31 -111q0 -43 37 -43 q43 0 96.5 58.5t77.5 107.5l29 -16q-127 -223 -303 -224q-63 0 -116.5 47.5t-53.5 112.5q0 49 24 131l281 959q-98 23 -98 106q0 41 16 67.5t32.5 38t16.5 17.5q0 10 -17.5 18.5t-37.5 8.5q-51 0 -96 -21.5t-79 -64.5t-59.5 -87t-48 -109.5t-36 -110t-31 -111t-23.5 -88.5 h176l-8 -37h-174l-115 -524q-12 -53 -41.5 -145.5t-84 -221.5t-118 -238.5t-147.5 -187.5t-168 -78q-61 0 -115.5 35t-54.5 94z" />
<glyph horiz-adv-x="0" />
<glyph unicode="&#xd;" horiz-adv-x="681" />
<glyph unicode=" "  horiz-adv-x="569" />
<glyph unicode="&#x09;" horiz-adv-x="569" />
<glyph unicode="&#xa0;" horiz-adv-x="569" />
<glyph unicode="!" horiz-adv-x="681" d="M72 102q0 63 46 120t113 57q55 0 89 -35t34 -84q0 -63 -46 -119.5t-113 -56.5q-55 0 -89 34.5t-34 83.5zM266 393q94 408 99 623q0 127 -50 201q160 86 260 258q41 -195 119 -273q-53 -39 -103 -111.5t-96 -174t-77 -180.5t-72 -195.5t-55 -153.5z" />
<glyph unicode="&#x22;" horiz-adv-x="1024" d="M324 1339q0 135 92 135.5t92 -135.5q0 -10 -1 -25.5t-3 -34.5t-2 -30l-33 -342q-8 -63 -53.5 -63t-53.5 63l-30 342q-8 61 -8 90zM651 1339q0 135 92.5 135.5t92.5 -135.5q0 -10 -1 -25.5t-3.5 -34.5t-2.5 -30l-32 -342q-8 -63 -53.5 -63t-53.5 63l-31 342q-8 61 -8 90z " />
<glyph unicode="#" d="M100 430l21 148h198l37 286h-196l20 148h197l61 430h158l-59 -430h233l59 430h160l-59 -430h196l-20 -148h-199l-37 -286h197l-20 -148h-197l-62 -430h-157l59 430h-233l-60 -430h-159l59 430h-197zM479 578h232l37 286h-232z" />
<glyph unicode="$" d="M-61 78q123 377 153 491l31 -10q0 -10 -3 -42t-3 -46q0 -358 260 -430l178 608q-68 31 -105.5 53.5t-82.5 64.5t-65.5 103.5t-20.5 145.5q0 166 125.5 304t332.5 138q37 0 47 -2l66 223h47l-65 -227q90 -14 205.5 -66.5t134.5 -52.5q10 0 19 9.5t20.5 25.5t13.5 18l24 -8 q-78 -227 -127 -422l-30 7q6 47 6 90q0 139 -74 239.5t-203 120.5l-139 -475q8 -4 54 -25.5t58.5 -27.5t53.5 -27.5t54.5 -32t46 -33t45 -38t34 -40t29.5 -47t15 -50t7 -58.5q0 -240 -157.5 -407.5t-393.5 -167.5q-59 0 -120 14l-68 -236h-47l72 246q-74 23 -176.5 78 t-133.5 55q-57 0 -92 -73zM416 1174q0 -68 58 -116.5t169 -101.5l133 463q-6 2 -20 2q-80 0 -155 -24.5t-130 -83t-55 -139.5zM420 31q41 -10 110 -11q166 0 266.5 96.5t100.5 264.5q0 55 -47 104.5t-84 67.5t-141 63q-21 11 -31 15z" />
<glyph unicode="%" horiz-adv-x="2048" d="M258 977q0 195 127 338t289 143q133 0 197.5 -85t64.5 -197q0 -182 -122 -331t-300 -149q-127 0 -191.5 83t-64.5 198zM406 864q0 -61 26.5 -102t83.5 -41q59 0 113.5 71.5t87.5 170t52 192t19 148.5q0 131 -110 131q-59 0 -113.5 -75t-87.5 -176.5t-52 -189.5t-19 -129z M496 -33l952 1508h88l-950 -1508h-90zM1112 264q0 195 127 338t289 143q133 0 197.5 -85t64.5 -197q0 -182 -122 -330.5t-300 -148.5q-127 0 -191.5 83t-64.5 197zM1260 152q0 -61 26.5 -102.5t83.5 -41.5q59 0 113.5 72t87.5 170t52 191.5t19 148.5q0 131 -110 131 q-59 0 -113.5 -75t-87.5 -176t-52 -189t-19 -129z" />
<glyph unicode="&#x26;" horiz-adv-x="1593" d="M86 301q0 41 8 80t18.5 69.5t35 62.5t41 52.5t53.5 48t54 41t64.5 38t63.5 32.5t68.5 33.5t64.5 32.5q-31 109 -31 204q0 152 89.5 262.5t238.5 110.5q109 0 177.5 -60.5t68.5 -168.5q0 -94 -84 -168t-193 -119q72 -195 158 -377q100 121 170 177.5t149 56.5 q66 0 109 -45.5t43 -106.5q0 -78 -42 -117t-110 -39q-53 0 -92 34t-39 87q0 41 15 72q-4 8 -17 8q-23 0 -74 -50t-94 -116q8 -16 33 -67.5t45.5 -88t49 -78.5t63.5 -64.5t72 -22.5q47 0 86 43t55 94l33 -12q-35 -106 -126 -189.5t-196 -83.5q-94 0 -167 55.5t-138 176.5 q-188 -231 -397 -232q-131 0 -228.5 101.5t-97.5 232.5zM356 434q-12 -117 58.5 -234.5t163.5 -121.5q102 0 208 155q-127 269 -219 523q-102 -41 -156.5 -125t-54.5 -197zM748 1165q0 -109 63 -282q70 31 118 60.5t91 84.5t43 121q0 76 -49 129t-125 53q-72 0 -106.5 -46 t-34.5 -120z" />
<glyph unicode="'" horiz-adv-x="569" d="M250 1339q0 135 92 135.5t92 -135.5q0 -10 -1 -25.5t-3 -34.5t-2 -30l-33 -342q-8 -63 -53 -63t-53 63l-31 342q-8 61 -8 90z" />
<glyph unicode="(" horiz-adv-x="681" d="M129 -35q0 446 166 842.5t483 710.5l66 -76q-604 -643 -604 -1458q0 -170 61 -469l-104 -29q-4 27 -17.5 93.5t-19.5 100t-15.5 88t-12.5 102.5t-3 95z" />
<glyph unicode=")" horiz-adv-x="681" d="M-225 -438q604 643 604 1458q0 170 -62 469l105 29q4 -27 17.5 -93.5t19.5 -100.5t15 -88t12 -102.5t3 -95.5q0 -446 -166 -842.5t-483 -709.5z" />
<glyph unicode="*" d="M295 1247q0 18 22 19q18 0 61.5 -17.5t49.5 -17.5q8 0 14.5 38t22.5 38q8 0 15 -7.5t13.5 -19.5t10.5 -22.5t8 -23.5t6 -17q47 -117 156 -201q16 49 16 108q0 57 -26 160q-20 76 -21 80q0 12 14 12q12 0 32 -16.5t30 -16.5q18 0 47 49.5t45 49.5q25 0 25 -64 q0 -12 -1 -26.5t-1 -21.5v-13t2 -9t8 -3q4 0 18.5 3t22.5 3q33 0 33 -15q0 -10 -9.5 -22t-16.5 -19.5t-24.5 -20.5t-19.5 -15q-100 -86 -146 -213q131 16 254 96q10 6 26.5 17t28 18.5t15.5 7.5q18 0 18 -17q0 -12 -8 -32.5t-8 -28.5q0 -14 62.5 -28.5t62.5 -34.5 q0 -25 -62.5 -41.5t-62.5 -20.5t12.5 -25.5t12.5 -33.5q0 -23 -19 -23q-12 0 -84 45q-113 68 -248 76q49 -115 160 -207q74 -57 74 -71.5t-41 -18.5t-41 -12q0 -14 2 -38t2 -34q0 -49 -27 -49q-20 0 -50.5 46t-37.5 46q-2 0 -20 -18.5t-37 -18.5q-20 0 -20 21q0 6 7 34.5 t15 75.5t8 99q0 33 -20 129q-109 -100 -162 -254q-14 -51 -35 -52q-12 0 -22.5 36t-16.5 36q-10 0 -54 -17.5t-52 -17.5q-27 0 -27 29q0 10 33 51t33 47t-29 21.5t-29 32t37 16.5q160 0 305 96q-122 74 -251 74h-70q-27 0 -27 20q0 10 13.5 20.5t26.5 20t13 15.5 q0 12 -33.5 53t-33.5 55z" />
<glyph unicode="+" horiz-adv-x="1228" d="M96 432v172h432v432h172v-432h433v-172h-433v-432h-172v432h-432z" />
<glyph unicode="," horiz-adv-x="569" d="M-51 -317q88 23 185 118t97 179q0 14 -10 14q-4 0 -24 -4q-12 -6 -37 -6q-49 0 -85 36.5t-36 85.5q0 72 44 122.5t114 50.5q61 0 97 -48.5t36 -111.5q0 -143 -116 -283.5t-259 -187.5z" />
<glyph unicode="-" horiz-adv-x="1024" d="M152 444l53 172h622l-53 -172h-622z" />
<glyph unicode="." horiz-adv-x="569" d="M47 102q0 63 46 120t114 57q55 0 89 -35t34 -84q0 -63 -46 -119.5t-114 -56.5q-55 0 -89 34.5t-34 83.5z" />
<glyph unicode="/" horiz-adv-x="796" d="M-84 -33l846 1508h182l-846 -1508h-182z" />
<glyph unicode="0" d="M80 512q0 141 50 304t138 307.5t224.5 239.5t289.5 95q117 0 197 -81t110.5 -185.5t30.5 -214.5q0 -229 -110.5 -482t-282.5 -393q-55 -45 -138 -81.5t-149 -36.5q-96 0 -168.5 49t-112.5 129t-59.5 169t-19.5 181zM289 197q0 -68 31.5 -122.5t93.5 -54.5q45 0 74.5 17.5 t68.5 66.5q100 129 227 554t127 602q0 162 -133 161q-94 0 -188 -161.5t-157.5 -375.5t-103.5 -408.5t-40 -278.5z" />
<glyph unicode="1" d="M152 0l10 37h139l334 1192q-172 -94 -389 -170l6 39q350 129 694 360h35l-397 -1421h145l-8 -37h-569z" />
<glyph unicode="2" d="M-14 0q31 88 94 174t137 157.5t156 146.5t156.5 155t136 167t98.5 198.5t37 236.5q0 82 -52.5 134t-152.5 52q-96 0 -197.5 -68.5t-101.5 -123.5q0 -33 27.5 -51.5t61.5 -25.5t61.5 -38t27.5 -84q0 -51 -33.5 -91t-91.5 -40q-70 0 -104.5 49t-34.5 119q0 178 130 284.5 t306 106.5t294 -84t118 -254q0 -115 -48 -212t-122 -161.5t-172.5 -129t-191.5 -113.5t-189 -118t-154 -140h596q66 0 117 129h39l-199 -375h-749z" />
<glyph unicode="3" d="M37 270q0 74 41 138.5t117 64.5q61 0 101 -35t40 -98q0 -47 -28.5 -86t-76.5 -39q-31 0 -68.5 15.5t-41.5 15.5q-35 0 -35 -47q0 -76 86 -121t168 -45q100 0 148.5 48t93.5 155q96 217 96 368q0 84 -42 126t-99 46l-195 12v31h174q219 0 275 178q2 6 16 47t23.5 72 t18.5 79t9 87q0 139 -205 139q-74 0 -138 -34.5t-64 -79.5q0 -10 35.5 -17.5t71.5 -36t36 -90.5q0 -51 -34 -82.5t-87 -31.5q-66 0 -101.5 36.5t-35.5 98.5q0 123 113.5 198.5t240.5 75.5q168 0 285 -75.5t117 -223.5q0 -356 -492 -364v-4q158 -39 247 -115t89 -223 q0 -76 -29.5 -154t-88 -150.5t-164 -118.5t-240.5 -46q-162 0 -269.5 73.5t-107.5 212.5z" />
<glyph unicode="4" d="M37 422l6 55l901 981h131l-239 -889h202l-37 -147h-204l-105 -385h146l-9 -37h-569l10 37h140l110 385h-483zM174 569h391l195 629l-4 4z" />
<glyph unicode="5" d="M23 229q0 66 43 115t106 49q51 0 90 -30.5t39 -82t-22.5 -82t-49 -39.5t-49 -24.5t-22.5 -40.5q0 -29 30.5 -46t61.5 -22.5t57 -5.5q168 0 246 146q49 90 97 244.5t48 277.5q0 190 -149 191q-80 0 -161 -70t-112 -150l-24 9q25 88 84 281.5t97 331.5t40 194 q217 -88 326 -89q166 0 260 101q-23 -152 -153 -243t-290 -91q-80 0 -178 21l-112 -369l4 -4q131 127 297 127q156 0 255 -92.5t99 -237.5q0 -156 -98.5 -300t-251 -229t-307.5 -85q-121 0 -211 65.5t-90 179.5z" />
<glyph unicode="6" d="M115 467q0 254 118.5 482.5t329.5 368.5t457 140q55 0 100 -12l-6 -33q-57 8 -119 8q-104 0 -191 -55t-151.5 -156.5t-104.5 -192.5t-81 -214l4 -4q47 51 121 76.5t137 25.5q145 0 226 -96t81 -236q0 -246 -151.5 -415.5t-390.5 -169.5q-193 0 -286 134t-93 349zM311 207 q0 -186 162 -187q84 0 142.5 78t115.5 301q60 234 60 326q0 127 -127 127q-78 0 -155 -60.5t-114 -193.5q-84 -313 -84 -391z" />
<glyph unicode="7" d="M254 1065q129 272 170 393h25v-24q195 -68 430 -68q166 0 329 68l23 -17q-133 -141 -315.5 -392t-301.5 -445q-117 -205 -116 -279q0 -18 23.5 -33.5t53 -28t53 -43t23.5 -75.5q0 -66 -44 -101.5t-109 -35.5q-59 0 -94 43t-35 104q0 27 16 73t33.5 82t44 87t33.5 63 q37 74 77.5 145.5t101 159.5t89.5 129t110.5 154t98.5 133q-236 -37 -318 -37q-47 0 -98 6.5t-82 12.5t-77 17t-56 13l-59 -114z" />
<glyph unicode="8" d="M80 322q0 250 393 421q-14 29 -40.5 74t-39 68.5t-24 64.5t-11.5 88q0 158 125 289t295 131q147 0 237.5 -70.5t90.5 -197.5q0 -133 -86 -217t-238 -156q16 -25 58.5 -86t63 -96t41 -91.5t20.5 -109.5q0 -199 -147.5 -324.5t-358.5 -125.5q-164 0 -271.5 86t-107.5 252z M117 322q0 -131 87 -216.5t255 -85.5q123 0 210 60.5t87 185.5q0 63 -43 141t-125 181.5t-96 126.5q-74 -33 -132.5 -67t-118 -82t-92 -110.5t-32.5 -133.5zM555 1217q0 -113 205 -373q150 72 229.5 146.5t79.5 197.5q0 111 -82 172t-194 61q-109 0 -173.5 -50t-64.5 -154z " />
<glyph unicode="9" d="M10 0l8 25q92 8 151.5 18t129.5 34.5t118 63.5t98 105.5t93 161.5l115 256l-4 4q-119 -111 -258 -111q-137 0 -215 90t-78 225q0 244 151.5 415t385.5 171q133 0 220 -73.5t119.5 -175t32.5 -222.5q0 -129 -39 -263t-125 -264t-205.5 -232.5t-298 -165t-386.5 -62.5h-13z M401 717q0 -49 44 -80t90 -31q82 0 170 89t139 272q49 190 49 284q0 72 -37 121t-115 49q-86 0 -149.5 -91t-124.5 -310q-4 -12 -22.5 -72.5t-23.5 -83t-12.5 -66.5t-7.5 -81z" />
<glyph unicode=":" horiz-adv-x="569" d="M47 102q0 63 46 120t114 57q55 0 89 -35t34 -84q0 -63 -46 -119.5t-114 -56.5q-55 0 -89 34.5t-34 83.5zM201 621q0 63 46 119.5t113 56.5q55 0 89 -35t34 -84q0 -63 -46 -119.5t-113 -56.5q-55 0 -89 34.5t-34 84.5z" />
<glyph unicode=";" horiz-adv-x="569" d="M-51 -317q88 23 185 118t97 179q0 14 -10 14q-4 0 -24 -4q-12 -6 -37 -6q-49 0 -85 36.5t-36 85.5q0 72 44 122.5t114 50.5q61 0 97 -48.5t36 -111.5q0 -143 -116 -283.5t-259 -187.5zM201 621q0 63 46 119.5t113 56.5q55 0 89 -35t34 -84q0 -63 -46 -119.5t-113 -56.5 q-55 0 -89 34.5t-34 84.5z" />
<glyph unicode="&#x3c;" horiz-adv-x="1228" d="M96 440v156l1037 457v-181l-805 -354l805 -354v-180z" />
<glyph unicode="=" horiz-adv-x="1228" d="M96 223v172h1037v-172h-1037zM96 641v172h1037v-172h-1037z" />
<glyph unicode="&#x3e;" horiz-adv-x="1228" d="M96 -16v180l805 354l-805 354v181l1037 -457v-156z" />
<glyph unicode="?" horiz-adv-x="909" d="M141 102q0 63 46 120t114 57q55 0 89 -35t34 -84q0 -63 -46 -119.5t-114 -56.5q-55 0 -89 34.5t-34 83.5zM287 1200q0 104 95 173t202 69q145 0 239.5 -85t94.5 -229q0 -176 -94.5 -279.5t-329.5 -219.5q-86 -43 -112 -74t-44 -109l-14 -59l-27 8q68 332 102 410 q16 35 33 57q31 39 104.5 82t138 74t117 84t52.5 117q0 92 -77 139t-175 47q-57 0 -129 -26.5t-84 -69.5q-2 -10 2 -19q16 -6 55 -10q41 -4 68.5 -30.5t27.5 -67.5q0 -53 -30.5 -88t-83.5 -35q-59 0 -95 40t-36 101z" />
<glyph unicode="@" horiz-adv-x="1638" d="M106 684q0 350 227.5 570.5t547.5 220.5q309 0 513.5 -180.5t204.5 -452.5q0 -188 -115.5 -358.5t-279.5 -170.5q-82 0 -133 58.5t-51 95.5h-4q-20 -39 -91 -92t-155 -60q-74 -2 -140.5 56.5t-66.5 208.5q0 66 27.5 152.5t77 170.5t129.5 141.5t172 57.5q111 0 166 -107 h4l18 74h156l-127 -506q-12 -49 -12 -74q0 -39 19 -64.5t54 -25.5q102 0 178 141.5t76 299.5q0 201 -154.5 362.5t-420.5 161.5q-256 0 -427 -174t-171 -512q0 -248 169 -418t414.5 -170t425.5 103l19 -74q-197 -152 -500 -152q-340 0 -545 212t-205 505zM735 604 q-2 -84 33 -131t84 -47q104 0 173 148.5t69 279.5q0 137 -86 137t-179.5 -112.5t-93.5 -274.5z" />
<glyph unicode="A" horiz-adv-x="1366" d="M-123 0l10 37h45q86 0 164 117l901 1349h43v-1466h146l-10 -37h-601l11 37h159v401h-405l-172 -266q-43 -70 -43 -80q0 -55 92 -55h76l-10 -37h-406zM365 475h380v582h-4z" />
<glyph unicode="B" horiz-adv-x="1366" d="M-94 0l10 37h150l380 1368h-161l10 37h668q76 0 141 -13.5t125.5 -43t96.5 -87t36 -139.5q0 -176 -131 -284.5t-316 -131.5v-4q123 0 218.5 -78.5t95.5 -209.5q0 -59 -16.5 -117t-62.5 -120t-115.5 -108.5t-188.5 -76t-271 -29.5h-669zM371 37h166q133 0 194.5 26.5 t120.5 112.5q31 45 62.5 156.5t31.5 199.5q0 90 -51 139.5t-147 49.5h-187zM571 758h172q104 0 179 61.5t109 151.5t47.5 161.5t13.5 124.5q0 86 -43 117t-138 31h-159z" />
<glyph unicode="C" horiz-adv-x="1366" d="M121 608q0 211 119.5 413t314.5 328t397 126q137 0 252 -70q113 -70 152 -70q36 0 59 80l37 -8q-84 -309 -117 -524l-37 6q12 49 13 96q0 193 -91.5 323t-271.5 130q-244 0 -434 -520q-135 -367 -135 -605q0 -137 83 -223t222 -86q168 0 299 100.5t209 255.5l31 -22 q-80 -160 -219.5 -265.5t-305.5 -105.5q-268 0 -422.5 184.5t-154.5 456.5z" />
<glyph unicode="D" horiz-adv-x="1593" d="M-94 0l10 37h150l380 1368h-161l10 37h684q240 0 397.5 -145.5t157.5 -426.5q0 -356 -237.5 -613t-587.5 -257h-803zM371 37h260q211 0 340 145q106 121 199.5 429.5t93.5 447.5q0 184 -86 265t-213 81h-213z" />
<glyph unicode="E" horiz-adv-x="1366" d="M-94 0l10 37h150l380 1368h-161l10 37h1110l-74 -393h-35q10 72 11 86q0 270 -250 270h-307l-168 -606h182q76 0 121 29.5t69 97.5l33 94h35q-98 -344 -137 -518h-33q20 86 20 151q0 61 -35.5 85t-109.5 24h-156l-200 -725h305q205 0 333 123t189 297h35l-125 -457h-1202 z" />
<glyph unicode="F" horiz-adv-x="1251" d="M-94 0l10 37h150l380 1368h-161l10 37h1110l-74 -393h-35q10 72 11 86q0 270 -250 270h-307l-162 -606h176q76 0 121 29.5t69 97.5l33 94h35q-98 -344 -137 -518h-33q20 86 20 151q0 61 -35.5 85t-109.5 24h-154l-200 -725h159l-10 -37h-616z" />
<glyph unicode="G" horiz-adv-x="1478" d="M121 608q0 211 119.5 413t314.5 328t397 126q137 0 252 -70q113 -70 152 -70q37 0 59 80l37 -8q-84 -309 -117 -524l-37 6q12 49 13 96q0 193 -91.5 323t-271.5 130q-244 0 -434 -520q-135 -367 -135 -605q0 -137 83 -223t222 -86q199 0 254 174l104 338h-145l8 37h572 l-11 -37h-116l-52 -176q-47 -162 -233 -267.5t-367 -105.5q-268 0 -422.5 184.5t-154.5 456.5z" />
<glyph unicode="H" horiz-adv-x="1593" d="M-94 0l10 37h150l380 1368h-161l10 37h616l-10 -37h-149l-181 -647h545l180 647h-168l11 37h620l-10 -37h-154l-381 -1368h164l-10 -37h-616l10 37h151l191 684h-543l-190 -684h161l-10 -37h-616z" />
<glyph unicode="I" horiz-adv-x="796" d="M-82 0l10 37h150l381 1368h-162l10 37h617l-11 -37h-149l-381 -1368h162l-10 -37h-617z" />
<glyph unicode="J" horiz-adv-x="1024" d="M-129 55q0 84 45 137.5t125 53.5q61 0 105 -39t44 -101q0 -70 -35.5 -112.5t-97.5 -42.5q-12 0 -28.5 6t-28.5 6q-29 0 -29 -24.5t49.5 -51t96.5 -26.5q25 0 48 6t40.5 14t35 26.5t29 30t25.5 39t20.5 39t16.5 43t12 39.5t12.5 42t10.5 36l342 1229h-162l10 37h617 l-11 -37h-149l-320 -1141q-59 -213 -228 -326.5t-345 -113.5q-96 0 -173 67.5t-77 163.5z" />
<glyph unicode="K" horiz-adv-x="1478" d="M-94 0l10 37h150l380 1368h-161l10 37h616l-10 -37h-149l-177 -633h5l479 393q180 147 180 197q0 43 -80 43h-53l10 37h479l-10 -37h-59q-102 0 -250 -119l-504 -401l399 -848h146l-8 -37h-609l11 37h143l-297 647l-186 -647h161l-10 -37h-616z" />
<glyph unicode="L" horiz-adv-x="1366" d="M-94 0l10 37h150l380 1368h-161l10 37h616l-10 -37h-149l-383 -1368h231q231 0 402.5 137t242.5 389l31 -6l-158 -557h-1212z" />
<glyph unicode="M" horiz-adv-x="1820" d="M-111 0l9 37h45q51 0 94 37t59 94l357 1237h-152l8 37h465l80 -1036h4l676 1036h448l-8 -37h-143l-389 -1368h164l-9 -37h-624l8 37h156l374 1302l-4 4l-868 -1343h-53l-101 1368h-4l-327 -1145q-14 -45 -15 -94q0 -31 25.5 -61.5t71.5 -30.5h69l-8 -37h-408z" />
<glyph unicode="N" horiz-adv-x="1478" d="M-123 0l10 37h84q47 0 93.5 61.5t64.5 122.5l334 1184h-148l11 37h448l371 -1153h4l260 932q16 66 16 106q0 78 -108 78h-68l11 37h458l-10 -37h-70q-78 0 -119.5 -47t-68.5 -137l-348 -1221h-170l-443 1356h-4l-303 -1090q-32 -112 -32 -128q0 -101 120 -101h62l-10 -37 h-445z" />
<glyph unicode="O" horiz-adv-x="1478" d="M100 510q0 182 76 362.5t192.5 310.5t262 211t280.5 81q240 0 386.5 -175.5t146.5 -414.5q0 -225 -100.5 -433t-292 -346.5t-428.5 -138.5q-233 0 -378 159t-145 384zM358 264q0 -121 63.5 -190.5t192.5 -69.5q158 0 252.5 117t151.5 313q109 371 138.5 506t29.5 238 q0 121 -63.5 190.5t-192.5 69.5q-147 0 -255 -143.5t-206 -483.5q-111 -385 -111 -547z" />
<glyph unicode="P" horiz-adv-x="1366" d="M-72 0l11 37h149l381 1368h-162l10 37h613q469 0 469 -316q0 -225 -164 -352t-440 -127h-232l-172 -610h150l-11 -37h-602zM571 684h179q88 0 136 22.5t91 77.5q47 55 93 194.5t46 248.5q0 178 -198 178h-144z" />
<glyph unicode="Q" horiz-adv-x="1478" d="M100 510q0 182 76 362.5t192.5 310.5t262 211t280.5 81q240 0 386.5 -175.5t146.5 -414.5q0 -324 -204 -597.5t-517 -314.5q-63 -174 -64 -252q0 -57 35 -87.5t74 -37t100 -6.5h115l-8 -36h-156q-57 0 -118.5 10t-134 33.5t-119 76t-46.5 123.5q0 43 54 203 q-164 47 -259.5 188.5t-95.5 321.5zM358 264q0 -121 63.5 -190.5t192.5 -69.5q158 0 252.5 117t151.5 313q109 371 138.5 506t29.5 238q0 121 -63.5 190.5t-192.5 69.5q-147 0 -255 -143.5t-206 -483.5q-111 -385 -111 -547z" />
<glyph unicode="R" horiz-adv-x="1478" d="M-94 0l10 37h150l380 1368h-161l10 37h735q219 0 317.5 -69.5t98.5 -215.5q0 -197 -136 -298t-341 -107v-4q147 -31 207.5 -93.5t60.5 -189.5q0 -45 -44 -198.5t-44 -178.5q0 -63 47 -63q68 0 143 96l27 -8q-76 -125 -213 -125q-104 0 -189 47t-85 145q0 84 50 233.5 t50 225.5q0 63 -50 82.5t-143 19.5h-221l-194 -704h161l-10 -37h-616zM575 778h306q88 0 151.5 64.5t91 158t40 165t12.5 118.5q0 121 -138 121h-286z" />
<glyph unicode="S" horiz-adv-x="1251" d="M-31 61q93 269 150 492l33 -10q-20 -53 -21 -125q0 -190 118 -302t308 -112q168 0 268.5 95.5t100.5 260.5q0 78 -63.5 135.5t-154 97.5t-181.5 84t-154.5 120.5t-63.5 183.5q0 82 30 166t85 158.5t149.5 122t210.5 47.5q92 0 183.5 -31t153 -62.5t81.5 -31.5q25 0 55 53 l25 -8q-78 -227 -127 -422l-33 6q8 31 8 90q0 158 -95 263.5t-253 105.5q-154 0 -239.5 -75t-85.5 -175q0 -72 67.5 -130.5t162.5 -104.5t191.5 -96t164 -129t67.5 -177q0 -231 -157.5 -407.5t-391.5 -176.5q-82 0 -164 24.5t-133 54.5t-100 54.5t-76 24.5q-63 0 -90 -74z " />
<glyph unicode="T" horiz-adv-x="1478" d="M164 932l147 510h1346l-148 -510h-43q31 109 31 194q0 129 -73.5 204t-213.5 75h-94l-381 -1368h178l-12 -37h-649l12 37h166l381 1368h-106q-123 0 -227.5 -76t-166 -175t-106.5 -222h-41z" />
<glyph unicode="U" horiz-adv-x="1478" d="M137 311q0 41 47 215l244 879h-152l11 37h622l-10 -37h-164l-291 -1012q-24 -85 -24 -152v-5q0 -123 79 -177.5t193 -54.5q184 0 306 94.5t171 261.5l248 871q31 104 31 121q0 25 -34 39t-87 14h-55l10 37h430l-10 -37h-98q-96 0 -131 -137l-263 -920 q-59 -211 -202.5 -296t-352.5 -85q-72 0 -151.5 15.5t-166.5 51.5t-143.5 107.5t-56.5 169.5z" />
<glyph unicode="V" horiz-adv-x="1251" d="M264 1405l10 37h598l-10 -37h-153l-91 -965h5l540 738q70 96 70 157q0 70 -84 70h-57l10 37h383l-10 -37q-63 -2 -103.5 -33t-95.5 -106l-963 -1309h-41l138 1448h-146z" />
<glyph unicode="W" horiz-adv-x="1933" d="M264 1405l10 37h598l-10 -37h-153l-91 -946h5l487 676l27 270h-146l10 37h598l-10 -37h-153l-90 -944l4 -4l510 721q69 95 69 155q0 72 -84 72h-57l10 37h383l-10 -37q-68 -2 -92.5 -14.5t-55.5 -55.5l-983 -1378h-41l107 1110l-4 4v-4l-789 -1110h-41l138 1448h-146z " />
<glyph unicode="X" horiz-adv-x="1251" d="M-102 0l10 37h43q82 0 134 31.5t128 126.5l315 383l-170 827h-129l11 37h569l-10 -37h-148l113 -543l305 385q57 70 57 117q0 41 -102 41h-47l8 37h471l-10 -37h-37q-86 0 -151.5 -37t-163.5 -156l-322 -395l166 -780h147l-10 -37h-583l10 37h143l-108 491l-265 -325 q-59 -80 -59 -103q0 -29 27.5 -46t68.5 -17h47l-10 -37h-448z" />
<glyph unicode="Y" horiz-adv-x="1251" d="M150 0l10 37h141l172 610l-78 758h-153l10 37h612l-10 -37h-162l72 -741l381 528q72 96 72 162q0 51 -82 51h-56l11 37h374l-10 -37h-33q-51 0 -84.5 -27.5t-89.5 -101.5l-481 -666l-162 -573h164l-10 -37h-608z" />
<glyph unicode="Z" horiz-adv-x="1366" d="M-23 0l1072 1405h-240q-98 0 -174 -24.5t-132.5 -77t-89 -96.5t-77.5 -122l-45 -77h-25l99 434h1081l-1073 -1405h362q145 0 280.5 115.5t217.5 296.5h29l-117 -449h-1168z" />
<glyph unicode="[" horiz-adv-x="681" d="M-84 -489l567 1982h394l-23 -74h-279l-520 -1835h277l-25 -73h-391z" />
<glyph unicode="\" horiz-adv-x="796" d="M170 1475h168l373 -1508h-168z" />
<glyph unicode="]" horiz-adv-x="681" d="M-242 -489l23 73h278l521 1835h-277l25 74h391l-567 -1982h-394z" />
<glyph unicode="^" horiz-adv-x="1228" d="M197 694l364 748h164l365 -748h-183l-264 563l-264 -563h-182z" />
<glyph unicode="_" horiz-adv-x="1024" d="M0 -154h1024v-102h-1024v102z" />
<glyph unicode="`" horiz-adv-x="569" d="M96 1382q0 59 80 60q49 0 94 -64l232 -342h-29l-321 264q-55 43 -56 82z" />
<glyph unicode="a" d="M45 299q0 90 39 196.5t104.5 199.5t167 155.5t213.5 62.5q152 0 170 -151h4l37 127h256l-202 -686q-31 -109 -31 -111q0 -43 37 -43q43 0 96 58.5t78 107.5l28 -16q-127 -223 -303 -224q-74 0 -115.5 59.5t-41.5 149.5h-4q-37 -78 -115 -143.5t-170 -65.5 q-117 0 -182.5 90.5t-65.5 233.5zM254 90q0 -78 70 -78q59 0 133.5 64.5t126.5 191.5q131 328 131 453q0 82 -34 119t-81 37q-57 0 -102.5 -53.5t-106.5 -233.5l-63 -187q-25 -72 -49.5 -179t-24.5 -134z" />
<glyph unicode="b" d="M90 289q0 111 66 329l229 787h-123l8 37h111q213 0 293 63l-230 -772l5 -2q127 182 299 182q141 0 214.5 -87t73.5 -224q0 -256 -178 -441.5t-426 -185.5q-150 0 -246 102.5t-96 211.5zM299 178q0 -86 38 -126t87 -40q88 0 149.5 64.5t128.5 251.5q101 272 101 450 q0 47 -29 73t-63 26q-72 0 -169.5 -86t-135.5 -191q-33 -90 -89 -313q-18 -74 -18 -109z" />
<glyph unicode="c" horiz-adv-x="909" d="M45 301q0 256 187.5 434t400.5 178q106 0 183 -44t77 -148q0 -57 -42 -103.5t-110 -46.5q-55 0 -93 40t-38 102q0 51 27 80.5t54.5 41t27.5 19.5q0 23 -92 23q-80 0 -149.5 -100.5t-107.5 -233.5t-58.5 -240.5t-20.5 -144.5q0 -145 145 -146q100 0 195.5 80.5 t142.5 186.5l31 -13q-147 -291 -397 -291q-170 0 -266.5 89.5t-96.5 236.5z" />
<glyph unicode="d" d="M45 299q0 90 39 196.5t104.5 199.5t167 155.5t213.5 62.5q152 0 170 -151h4l187 643h-123l8 37h111q213 0 293 63l-385 -1302q-31 -109 -31 -111q0 -43 37 -43q43 0 96 58.5t78 107.5l28 -16q-127 -223 -303 -224q-74 0 -115.5 59.5t-41.5 149.5h-4q-37 -78 -115 -143.5 t-170 -65.5q-117 0 -182.5 90.5t-65.5 233.5zM254 90q0 -78 70 -78q59 0 133.5 64.5t126.5 191.5q131 328 131 453q0 82 -34 119t-81 37q-57 0 -102.5 -53.5t-106.5 -233.5l-63 -187q-25 -72 -49.5 -179t-24.5 -134z" />
<glyph unicode="e" horiz-adv-x="909" d="M45 313q0 133 83 275t213 236q123 89 242 89h13q98 0 176 -57t78 -154q0 -147 -119 -220.5t-276 -73.5q-72 0 -121 16q-43 -166 -43 -274q0 -63 34.5 -100.5t94.5 -37.5q92 0 176 53.5t139 137.5l27 -15q-137 -213 -383 -213q-158 0 -246 97.5t-88 240.5zM344 453 q35 -20 86 -21q63 0 99 34t61 99q63 162 63 240q0 43 -20.5 63.5t-46.5 20.5q-68 0 -121 -101.5t-121 -334.5z" />
<glyph unicode="f" horiz-adv-x="681" d="M-332 -414q0 66 37 99.5t94 33.5q61 0 94 -33.5t33 -78.5t-26.5 -75t-61.5 -34v-4q94 0 137 73t74 249q18 98 48 264t48.5 265t40 215t37 186.5t25.5 105.5h-148l9 37h149q78 231 245 423.5t333 192.5q66 0 113.5 -37.5t47.5 -103.5q0 -57 -36.5 -94t-94.5 -37 q-55 0 -91 32.5t-36 84.5q0 92 90 125v6q-82 0 -139 -85t-117 -311q-4 -12 -23.5 -82.5t-29.5 -113.5h178l-8 -37h-178l-115 -524q-12 -53 -41.5 -145.5t-84 -221.5t-118 -238.5t-147.5 -187.5t-168 -78q-61 0 -115.5 35t-54.5 94z" />
<glyph unicode="g" horiz-adv-x="1024" d="M-96 -311q0 84 66.5 142t158.5 77v4q-127 45 -127 182q0 96 82 160.5t182 71.5v4q-61 33 -96 94t-35 131q0 160 110.5 259t268.5 99q133 0 227 -86q47 59 86 79t93 20q51 0 85.5 -35t34.5 -80v-7q0 -50 -26 -80q-27 -32 -76 -32q-43 0 -68.5 29t-25.5 70q0 29 14 55 t14 28q0 14 -14 15q-18 0 -51 -34t-43 -56q59 -90 59 -189q0 -145 -117.5 -240.5t-269.5 -95.5q-59 0 -96 13q-39 14 -53 14q-66 0 -132.5 -34t-66.5 -83q0 -43 36 -54t150 -11q27 0 155 5t165 5q235 0 235 -207q0 -209 -172 -345t-387 -136q-137 0 -251.5 61.5 t-114.5 186.5zM27 -315q0 -106 79.5 -156.5t194.5 -50.5q90 0 190.5 38t176 116.5t75.5 172.5q0 25 -8 43.5t-27.5 29.5t-37 17.5t-52 8.5t-57 3t-69.5 1q-55 0 -164 -5t-131 -5q-70 0 -120 -71t-50 -142zM332 377q0 -35 19.5 -56.5t51.5 -21.5q57 0 86 43t76 195 q61 197 62 262q0 39 -21.5 64.5t-54.5 25.5q-14 0 -28.5 -5t-26 -13.5t-22.5 -22.5t-19.5 -25.5t-16.5 -32t-13 -31.5t-12 -32.5t-9.5 -30t-6.5 -28.5l-6 -21q-6 -20 -19.5 -69.5t-20.5 -76t-13 -63t-6 -61.5z" />
<glyph unicode="h" d="M6 0l406 1405h-119l8 37h111q213 0 293 63l-248 -831l4 -2q45 55 71.5 83.5t74.5 72.5t99.5 64.5t106.5 20.5q90 0 140.5 -46t50.5 -126q0 -53 -78 -278l-92 -260q-31 -92 -31 -111q0 -43 37 -43q43 0 96 58.5t78 107.5l28 -16q-127 -223 -303 -224q-78 0 -124 50.5 t-46 121.5q0 25 29 117l162 479q22 65 22 89q0 33 -43 32q-70 0 -181.5 -125t-135.5 -207l-154 -532h-262z" />
<glyph unicode="i" horiz-adv-x="681" d="M84 145q0 39 25 121l182 586h-127l8 37h211q125 0 188 45l-223 -731q-31 -106 -31 -111q0 -43 37 -43q43 0 96.5 58.5t77.5 107.5l29 -16q-127 -223 -285 -224q-53 0 -92 16.5t-56.5 38t-27.5 50.5t-11 41t-1 24zM389 1235q0 59 41 100t100.5 41t100.5 -41t41 -100 t-41 -100t-100.5 -41t-100.5 41t-41 100z" />
<glyph unicode="j" horiz-adv-x="681" d="M-424 -385q0 53 35 93t88 40q123 0 123 -113q0 -35 -22.5 -68.5t-57.5 -39.5q-27 -4 -27 -10q0 -12 31 -13q86 0 130 72t99 262l316 1014h-127l8 37h211q125 0 188 45l-274 -899q-23 -74 -71 -162t-117.5 -179t-167 -152.5t-197.5 -61.5q-68 0 -118 34.5t-50 100.5z M389 1235q0 59 41 100t100.5 41t100.5 -41t41 -100t-41 -100t-100.5 -41t-100.5 41t-41 100z" />
<glyph unicode="k" d="M6 0l418 1405h-123l8 37h111q213 0 293 63l-287 -946h100q57 0 92 40t54.5 97.5t42 113.5t71 96t123.5 40q61 0 97 -39t36 -98q0 -55 -38.5 -92t-88.5 -37q-43 0 -80.5 22.5t-37.5 65.5q0 12 5 27.5t5 19.5q0 20 -21 21q-27 0 -52 -70t-60 -144.5t-84 -84.5v-5 q104 -51 141 -96t39 -139q2 -104 12.5 -157.5t22.5 -66t37 -12.5q47 0 85 53.5t56 108.5l29 -8q-31 -106 -98.5 -173t-161.5 -67q-102 0 -157.5 59.5t-57.5 246.5q-2 115 -8.5 166t-19.5 63t-44 12t-49 -4l-156 -518h-254z" />
<glyph unicode="l" horiz-adv-x="681" d="M74 145q0 39 24 121l334 1139h-127l8 37h111q213 0 293 63l-379 -1302q-31 -106 -31 -111q0 -43 37 -43q43 0 96.5 58.5t77.5 107.5l29 -16q-127 -223 -285 -224q-53 0 -92 16.5t-56.5 38t-27.5 50.5t-11 41t-1 24z" />
<glyph unicode="m" horiz-adv-x="1705" d="M6 0l246 852h-119l8 37h211q125 0 189 45l-84 -260l4 -2q2 2 25.5 30.5t27.5 33.5t27.5 32t32 34t32 28.5t36.5 28.5t36.5 20.5t43 18.5t45.5 10t50 5q186 0 187 -168q0 -47 -7 -71l4 -2q4 4 30 34.5t33 38t31.5 34t38 36.5t38 30.5t44 29t46 19.5t53 15t55.5 4 q96 0 148.5 -46t52.5 -126q0 -53 -78 -278l-92 -260q-31 -92 -31 -111q0 -43 37 -43q43 0 96 58.5t78 107.5l29 -16q-127 -223 -303 -224q-78 0 -124 50.5t-46 121.5q0 25 28 117l150 457q22 65 22 103q0 40 -41 40q-70 0 -183.5 -112.5t-145.5 -219.5l-158 -532h-258 l211 723q20 68 20 104.5t-43 36.5q-70 0 -181.5 -125t-135.5 -207l-154 -532h-262z" />
<glyph unicode="n" d="M6 0l246 852h-119l8 37h211q125 0 189 45l-84 -260l4 -2q45 55 71.5 83.5t74.5 72.5t99.5 64.5t106.5 20.5q90 0 140.5 -46t50.5 -126q0 -53 -78 -278l-92 -260q-31 -92 -31 -111q0 -43 37 -43q43 0 96 58.5t78 107.5l28 -16q-127 -223 -303 -224q-78 0 -124 50.5 t-46 121.5q0 25 29 117l162 479q22 65 22 89q0 33 -43 32q-70 0 -181.5 -125t-135.5 -207l-154 -532h-262z" />
<glyph unicode="o" horiz-adv-x="1024" d="M45 326q0 170 85 309t205 208.5t243 69.5q160 0 252 -106t92 -268q0 -207 -157 -385.5t-388 -178.5q-135 0 -233.5 94.5t-98.5 256.5zM254 135q0 -135 121 -135q35 0 65.5 13.5t47 27.5t36 48t23.5 46t20 51q35 88 90.5 311.5t55.5 276.5q0 61 -28 88t-91 27 q-41 0 -71.5 -14.5t-53.5 -46t-33 -53t-26 -62.5q-57 -147 -106.5 -325.5t-49.5 -252.5z" />
<glyph unicode="p" d="M-227 -543l8 37h104l398 1358h-127l12 37h141q166 0 232 43q-16 -84 -31 -199h4q47 74 125 127t164 53q119 0 176 -88t57 -215q0 -133 -54 -275t-169 -251t-258 -109q-164 0 -205 189h-4l-199 -670h136l-11 -37h-499zM375 215q0 -61 38 -125.5t93 -64.5q57 0 100 69.5 t105 241.5q37 102 70.5 238t33.5 208q0 82 -72 82q-74 0 -159.5 -92t-114.5 -188l-63 -219q-31 -115 -31 -150z" />
<glyph unicode="q" d="M45 299q0 90 39 196.5t104.5 199.5t167 155.5t213.5 62.5q152 0 170 -151h4l37 127h264l-409 -1395h135l-10 -37h-502l10 37h105l202 658h-4q-43 -57 -70.5 -88t-83 -60t-124.5 -29q-117 0 -182.5 90.5t-65.5 233.5zM324 12h12q84 0 159.5 85t121 203t72 232.5 t26.5 188.5q0 82 -34 119t-81 37q-57 0 -102.5 -53.5t-106.5 -233.5l-63 -187q-25 -74 -50 -180q-24 -98 -24 -129q0 -82 70 -82z" />
<glyph unicode="r" horiz-adv-x="909" d="M6 0l254 852h-127l8 37h211q125 0 189 45l-76 -227h4q140 206 280 206h1q72 0 115.5 -34.5t43.5 -108.5q0 -63 -41 -107.5t-112 -44.5q-57 0 -93 35t-36 92q0 25 11 49.5t21 36.5l13 15q0 6 -8 6q-33 0 -121 -104.5t-101 -145.5l-174 -602h-262z" />
<glyph unicode="s" horiz-adv-x="909" d="M6 201q0 63 33 103t92 40q53 0 87 -37t34 -88q0 -59 -32 -88t-77 -33q-35 0 -34 -14q0 -10 28.5 -29.5t81.5 -37t105 -17.5q211 0 211 170q0 57 -55.5 102t-121 74t-121 89.5t-55.5 144.5q0 143 112 238t263 95q96 0 184 -45t88 -135q0 -61 -30.5 -100t-89.5 -39 q-49 0 -81 35t-32 86q0 96 88 112q23 4 23 15q0 6 -21.5 17t-58.5 20.5t-72 9.5q-74 0 -137.5 -40t-63.5 -116q0 -53 39 -92t94.5 -65.5t110.5 -59.5t94 -93.5t39 -146.5q0 -98 -65.5 -168.5t-155.5 -101.5t-191 -31q-111 0 -212 63.5t-101 162.5z" />
<glyph unicode="t" horiz-adv-x="681" d="M66 145q0 39 24 121l164 586h-174l10 37h174l72 246q10 2 45 11t46 12t40 11.5t43 15.5t36.5 16t42 20.5t38.5 25.5l-107 -358h187l-11 -37h-186l-180 -649q-31 -106 -31 -111q0 -43 37 -43q43 0 97 60.5t85 119.5l12 29l31 -14l-29 -51q-45 -84 -120.5 -151t-157.5 -67 q-53 0 -92 16.5t-56.5 38t-27.5 50.5t-11 41t-1 24z" />
<glyph unicode="u" d="M47 137q0 31 27 129l178 586h-127l8 37h211q125 0 188 45l-221 -729q-30 -93 -30 -127q0 -41 45 -41q33 0 90 51t104 115q76 104 101 182l161 504h265l-213 -686q-31 -109 -31 -111q0 -43 37 -43q43 0 96 58.5t78 107.5l28 -16q-127 -223 -303 -224q-80 0 -125 49.5 t-45 114.5q0 43 17 101h-4q-39 -59 -67 -94t-75 -80.5t-104 -68t-123 -22.5q-76 0 -121 44t-45 118z" />
<glyph unicode="v" horiz-adv-x="1024" d="M68 138q0 41 24 128l176 586h-129l8 37h211q117 0 201 45l-219 -741q-27 -90 -27 -109q0 -14 11.5 -24.5t29.5 -10.5q82 0 178.5 68.5t168 162t120.5 186.5t49 144q0 16 -3 27.5t-14 19t-15 8.5t-25 9q-49 16 -80 50t-31 77q0 59 34 96t91 37q59 0 94 -40t35 -114 q0 -166 -106.5 -354t-275 -319.5t-328.5 -131.5q-86 0 -132 45.5t-46 117.5z" />
<glyph unicode="w" horiz-adv-x="1593" d="M70 139q0 56 26 127l178 586h-127l9 37h211q125 0 188 45l-221 -729q-31 -96 -31 -109q0 -18 14.5 -32.5t36.5 -14.5q90 0 185.5 110.5t132.5 225.5l155 504h256l-204 -696q-31 -98 -31 -113q0 -43 55 -43q88 0 216 98t223.5 236.5t95.5 238.5q0 16 -3 27.5t-14.5 19 t-15.5 8.5t-25 9q-49 16 -79.5 50t-30.5 77q0 59 33.5 96t91.5 37q59 0 94 -40t35 -114q0 -166 -106.5 -354t-275.5 -319.5t-329 -131.5q-186 0 -186 160q0 47 12 105h-4q-111 -158 -192 -211.5t-207 -53.5q-78 0 -122 45.5t-44 118.5z" />
<glyph unicode="x" d="M-27 115q0 53 31 92t82 39q47 0 78 -28t31 -77q0 -41 -17.5 -65.5t-35 -34.5t-17.5 -14q0 -14 16 -15q88 0 171 141.5t127 300t44 248.5q0 150 -110 150q-37 0 -78 -22.5t-64.5 -42t-68.5 -64.5l-78 -76l-25 15l50 51q98 102 187 151t200 49q233 0 233 -200q0 -12 -4 -54 h4q137 254 311 254q72 0 115 -45t43 -120q0 -51 -32.5 -89t-100.5 -38q-53 0 -83 32.5t-30 77.5q0 43 28 71.5t56.5 43t28.5 22.5q0 20 -47 21q-84 0 -163 -94.5t-128 -222.5t-79 -248.5t-30 -188.5q0 -123 80 -123q61 0 124 43t106 95l65 79l25 -16l-29 -35 q-78 -96 -158.5 -149.5t-195.5 -53.5q-137 0 -190.5 72t-59.5 189h-4q-33 -94 -104.5 -177.5t-167.5 -83.5q-61 0 -98.5 41t-37.5 99z" />
<glyph unicode="y" d="M-233 -403q0 66 36.5 110.5t100.5 44.5q47 0 84 -29.5t37 -89.5q0 -43 -20.5 -69.5t-41 -35.5t-20.5 -13q0 -20 24 -21q72 0 142.5 54.5t119.5 142.5l117 209l-76 704q-6 55 -11 84t-20.5 53.5t-37.5 24.5q-20 0 -39 -10.5t-35 -32t-25.5 -35.5t-25 -44t-17.5 -36l-28 10 q147 295 325 295q135 0 148 -143l51 -520h4l293 498q97 165 210 165h1q59 0 95 -34.5t36 -96.5q0 -57 -37 -98t-94 -41q-47 0 -81 29.5t-34 77t25 77.5q-31 0 -107 -122l-563 -953q-84 -145 -166 -220t-213 -75q-66 0 -111.5 38t-45.5 102z" />
<glyph unicode="z" horiz-adv-x="1024" d="M-12 42q0 45 69 105l617 547h-4q-145 -61 -361 -61q-111 0 -174 29l-45 -84l-29 12q25 49 51.5 101t57.5 114.5t47 95.5q209 -72 432 -72q33 0 86 6.5t78 6.5q0 71 38 71h1q35 0 35 -51q0 -39 -107 -131l-577 -500l4 -4q92 31 172 31q88 0 222 -67.5t169 -67.5 q27 0 47.5 28.5t20.5 49.5q0 12 -11 12q-4 0 -13 -2t-15 -2q-43 0 -71 27.5t-28 72.5q0 43 27 70t70 27q100 0 100 -115q0 -109 -97.5 -206t-244.5 -97q-82 0 -233.5 55t-219.5 55q-27 0 -26 -18q0 -8 5 -17.5t5 -15.5q0 -18 -15.5 -32.5t-39.5 -14.5q-14 0 -28.5 12.5 t-14.5 29.5z" />
<glyph unicode="{" horiz-adv-x="681" d="M-27 -322q0 96 90 351q92 264 93 319q0 61 -18.5 96t-80.5 58q104 31 153.5 88t86.5 174l129 407q61 195 159.5 258.5t278.5 63.5l-8 -37q-137 -27 -200.5 -87t-102.5 -185l-123 -387q-41 -133 -94 -199t-164 -94l-2 -4q109 -59 109 -164q0 -61 -91 -311 q-92 -256 -92 -347q0 -55 25.5 -83.5t116.5 -47.5l-9 -36q-59 0 -96 4t-78 19t-61.5 51t-20.5 93z" />
<glyph unicode="|" horiz-adv-x="454" d="M182 -438v2048h172v-2048h-172z" />
<glyph unicode="}" horiz-adv-x="681" d="M-285 -489l9 36q135 18 199.5 81t103.5 192l123 387q41 133 94 198.5t164 94.5l2 4q-63 20 -86 58t-23 106q0 66 90 311q92 256 92 346q0 57 -26.5 89t-114.5 42l8 37q137 0 196.5 -35t59.5 -133q0 -106 -90 -350q-92 -248 -92 -320q0 -61 18.5 -96t79.5 -57 q-104 -31 -153.5 -88.5t-85.5 -173.5l-129 -408q-61 -195 -160 -258t-279 -63z" />
<glyph unicode="~" horiz-adv-x="1228" d="M141 496q43 59 67.5 88.5t77 61.5t111.5 32q74 0 209 -74q131 -74 236 -74q102 0 172 148l73 -141q-45 -59 -68.5 -87t-75.5 -60t-112 -32q-74 0 -208 74q-131 74 -236 74q-102 -1 -172 -148z" />
<glyph unicode="&#xa1;" horiz-adv-x="681" d="M-74 -317q53 39 103.5 111.5t96.5 174t76.5 180t72 195.5t55.5 154l24 -6q-94 -408 -98 -623q0 -127 49 -201q-160 -86 -260 -258q-41 195 -119 273zM266 725q0 63 46 119.5t114 56.5q55 0 89 -35t34 -84q0 -63 -46 -119.5t-114 -56.5q-55 0 -89 35t-34 84z" />
<glyph unicode="&#xa2;" d="M145 301q0 129 51.5 242.5t132.5 189.5t174 122t181 56l49 176h41l-49 -174q113 0 190.5 -44t77.5 -148q0 -57 -42 -103.5t-109 -46.5q-55 0 -93 39t-38 101q0 84 63 114q4 2 18.5 7.5t20.5 10.5t6 11q0 23 -84 23h-20l-236 -846q18 -10 58 -11q100 0 195 77t142 182 l31 -13q-143 -283 -397 -282q-16 0 -41 4l-47 -166h-41l47 168q-135 20 -208 102t-73 209zM391 158q0 -84 51 -113l228 819q-111 -53 -195 -324.5t-84 -381.5z" />
<glyph unicode="&#xa3;" d="M-23 109q0 109 73 163t181 54q14 0 43 -6.5t43 -6.5q4 117 -14 383h-180l10 37h168q0 16 -1 48t-1 48q0 270 143.5 449.5t407.5 179.5q154 0 232.5 -82t78.5 -180q0 -72 -38 -122t-101 -50q-68 0 -102.5 36t-34.5 85q0 59 34.5 98t94.5 39q55 0 86 -20q-8 66 -66.5 106.5 t-128.5 40.5q-49 0 -91 -22.5t-72.5 -54.5t-58.5 -86t-45 -99t-35.5 -114.5t-27 -109.5t-20.5 -105.5t-16 -84.5h340l-9 -37h-342q-23 -182 -137 -397q213 -57 332 -57q96 0 155.5 45t98.5 137h27q-74 -250 -166.5 -345t-210.5 -95q-61 0 -129 32.5t-94.5 53t-100.5 84.5 q-94 -154 -207 -154q-47 0 -83 30.5t-36 78.5zM14 121q0 -84 80 -84q111 0 174 147q-74 43 -121 43q-57 0 -95 -25.5t-38 -80.5z" />
<glyph unicode="&#xa4;" d="M74 303l119 119q-98 135 -98.5 299t95.5 297l-116 117l106 106l117 -117q133 104 305 105q164 0 299 -99l111 111l106 -106l-110 -111q102 -133 102 -303q0 -174 -104 -305l110 -111l-106 -106l-111 112q-129 -98 -297 -98q-170 0 -301 102l-121 -120zM266 721 q0 -139 98.5 -237.5t237.5 -98.5t237.5 98.5t98.5 237.5t-98.5 237.5t-237.5 98.5t-237.5 -98.5t-98.5 -237.5z" />
<glyph unicode="&#xa5;" d="M55 365l13 49h278l49 172h-291l13 49h297l-84 770h-170l10 37h612l-10 -37h-174l59 -731l400 524q72 96 71 156q0 51 -79 51h-56l11 37h378l-10 -37h-33q-51 0 -85.5 -27.5t-90.5 -99.5l-489 -643h299l-12 -49h-295l-50 -172h308l-13 -49h-307l-94 -328h176l-10 -37h-608 l10 37h162l94 328h-279z" />
<glyph unicode="&#xa6;" horiz-adv-x="454" d="M182 -182v512h172v-512h-172zM182 842v512h172v-512h-172z" />
<glyph unicode="&#xa7;" d="M-53 -256q0 74 39 129t108 55q57 0 99.5 -35.5t42.5 -93t-35 -93.5t-99 -36q-14 0 -34.5 6.5t-26.5 6.5q-20 0 -21 -25q0 -61 85 -112.5t200 -51.5q152 0 254.5 80t102.5 215q0 84 -59.5 154.5t-143.5 121t-168 101.5t-143.5 123.5t-59.5 161.5q0 131 85 243.5t212 192.5 q-20 25 -32.5 77t-12.5 91q0 174 130 297t300 123q139 0 231.5 -60.5t92.5 -191.5q0 -55 -40 -98.5t-102 -43.5q-57 0 -96 35t-39 92q0 49 31 84t82 35q8 0 22.5 -2t20.5 -2q23 0 22 14q0 55 -74.5 78t-148.5 23q-111 0 -198 -61.5t-87 -164.5q0 -59 58.5 -116.5 t141.5 -108.5t165 -104.5t140.5 -124t58.5 -148.5q0 -106 -43 -198.5t-93.5 -144.5t-138.5 -128q45 -74 45 -162q0 -227 -143 -373.5t-375 -146.5q-135 0 -245.5 73t-110.5 214zM236 649q0 -63 66.5 -130.5t150.5 -117t176 -115t129 -118.5l24 22q27 23 32 28t26.5 25.5 t29 30t22.5 30t20.5 34.5t10.5 33.5t5 38.5q0 59 -82 125.5t-223.5 157.5t-221.5 167q-47 -37 -73.5 -58.5t-59 -67.5t-32.5 -85z" />
<glyph unicode="&#xa8;" horiz-adv-x="569" d="M150 1235q0 55 39.5 95t95 40t95.5 -40t40 -95t-40 -95t-95.5 -40t-95 40t-39.5 95zM506 1235q0 55 40 95t95 40t95 -40t40 -95t-40 -95t-95 -40t-95 40t-40 95z" />
<glyph unicode="&#xa9;" horiz-adv-x="1638" d="M106 721q0 311 221.5 532.5t532.5 221.5t532.5 -221.5t221.5 -532.5t-221.5 -532.5t-532.5 -221.5t-532.5 221.5t-221.5 532.5zM279 721q0 -254 167.5 -424t413.5 -170t414 170t168 424t-168 424t-414 170t-413.5 -170t-167.5 -424zM451 705q0 178 113.5 322t291.5 144 q49 0 126 -31.5t97 -31.5q39 0 41 37h21v-289h-21q-16 104 -92 198.5t-172 94.5q-199 0 -199 -430q0 -227 45.5 -328.5t149.5 -101.5q106 0 179 83t89 173l6 43h19v-301h-19q-10 49 -45 49q-6 0 -79.5 -35t-161.5 -35q-174 0 -281.5 131t-107.5 308z" />
<glyph unicode="&#xaa;" horiz-adv-x="739" d="M168 1085q0 131 99.5 252t232.5 121q102 0 125 -84h4l22 70h176l-131 -410q-27 -80 -26 -96q0 -18 24 -18q10 0 22.5 6t23 13t22.5 20.5t19 21.5t17.5 21.5t12.5 15.5l16 -10l-12 -15q-12 -14 -14 -17t-14.5 -16.5t-16.5 -17.5l-15.5 -15.5t-18.5 -15.5t-18 -11 t-19.5 -10t-19.5 -5t-22 -2q-78 0 -106.5 34.5t-28.5 94.5h-4q-72 -129 -182 -129q-94 0 -131 53t-37 149zM315 956q0 -49 47 -49q45 0 91 48t79 128q68 176 68 265q0 35 -20.5 60.5t-53.5 25.5q-39 0 -73.5 -61.5t-87.5 -217.5q-49 -139 -50 -199z" />
<glyph unicode="&#xab;" horiz-adv-x="1024" d="M172 530l307 351h123l-311 -351l172 -350h-111zM442 530l308 351h122l-311 -351l172 -350h-110z" />
<glyph unicode="&#xac;" horiz-adv-x="1228" d="M96 641v172h1037v-588h-172v416h-865z" />
<glyph unicode="&#xad;" horiz-adv-x="1024" d="M152 444l53 172h622l-53 -172h-622z" />
<glyph unicode="&#xae;" horiz-adv-x="1638" d="M442 1097.5q0 155.5 111 266.5t266.5 111t266 -111t110.5 -266.5t-110.5 -266t-266 -110.5t-266.5 110.5t-111 266zM528 1098q0 -127 84 -212t207 -85t207 85t84 212t-84 212t-207 85t-207 -85t-84 -212zM635 905v10h45v371h-45v10h174q160 0 160 -92q0 -45 -39 -67.5 t-90 -24.5v-2q121 -12 123 -98q0 -61 6 -77.5t24 -16.5q10 0 19 6l4 -9q-25 -18 -68 -18q-74 0 -74 102q0 66 -16 84.5t-61 20.5h-29v-189h45v-10h-178zM768 1114h31q47 2 63.5 22.5t14.5 73.5q0 49 -15.5 62.5t-54.5 13.5h-39v-172z" />
<glyph unicode="&#xaf;" horiz-adv-x="569" d="M186 1188l29 123h512l-29 -123h-512z" />
<glyph unicode="&#xb0;" horiz-adv-x="819" d="M229 1165q0 123 85 208t208 85t208 -85t85 -208t-85 -208t-208 -85t-208 85t-85 208zM328 1165q0 -84 55 -139t139 -55t139.5 55t55.5 139t-55.5 139.5t-139.5 55.5t-139 -55.5t-55 -139.5z" />
<glyph unicode="&#xb1;" horiz-adv-x="1228" d="M96 0v172h1037v-172h-1037zM96 559v172h432v305h172v-305h433v-172h-433v-309h-172v309h-432z" />
<glyph unicode="&#xb2;" horiz-adv-x="739" d="M86 586q27 70 92.5 140.5t136 129.5t138 123.5t110.5 151t43 182.5q0 121 -125 121q-66 0 -129 -37t-63 -76q0 -20 17.5 -30.5t40 -15.5t39.5 -21.5t17 -45.5q0 -37 -20.5 -64.5t-60.5 -27.5q-94 0 -95 115q0 102 87 164.5t202 62.5t195 -50t80 -150.5t-69 -179.5 t-156 -122t-193.5 -103t-159.5 -120h387q41 0 76 78h33l-129 -225h-494z" />
<glyph unicode="&#xb3;" horiz-adv-x="739" d="M104 745q0 45 30 86t77 41q39 0 65.5 -23.5t26.5 -60.5q0 -31 -18.5 -53t-48.5 -22q-20 0 -44 9t-28 9q-23 0 -23 -29q0 -45 57.5 -68.5t127.5 -23.5q82 0 141 119t59 217q0 51 -26.5 74.5t-65.5 26.5l-127 8v20h113q115 0 165 79t50 200q0 35 -21.5 53t-46 22.5 t-63.5 4.5q-45 0 -88 -24t-43 -42q0 -6 22.5 -10t46 -21.5t23.5 -54.5q0 -33 -21.5 -51.5t-56.5 -18.5q-43 0 -68.5 24t-25.5 62q0 72 75.5 116t159.5 44q115 0 191 -47t76 -143q0 -201 -320 -207v-4q104 -23 163.5 -68t59.5 -133q0 -129 -106.5 -206t-237.5 -77 q-106 0 -178 44.5t-72 127.5z" />
<glyph unicode="&#xb4;" horiz-adv-x="569" d="M379 1036l231 342q45 63 95 64q80 0 79 -60q0 -39 -55 -82l-321 -264h-29z" />
<glyph unicode="&#xb6;" horiz-adv-x="1269" d="M25 -510l12 37h164l293 1073q-127 0 -199 91t-72 198q0 250 145.5 401.5t422.5 151.5h579l-10 -37h-164l-514 -1878h156l-11 -37h-319l530 1915h-161l-531 -1915h-321zM395 901q0 -102 33 -167t80 -83l194 717q-145 -35 -226 -176t-81 -291z" />
<glyph unicode="&#xb7;" horiz-adv-x="569" d="M152 591.5q0 59.5 45 103.5t102 44t102 -44t45 -103.5t-45 -103.5t-102 -44t-102 44t-45 103.5z" />
<glyph unicode="&#xb8;" horiz-adv-x="569" d="M-41 -397l14 37q113 -31 133 -31q53 0 99.5 27.5t46.5 76.5q0 43 -32 62.5t-73 19.5q-20 0 -67 -14l-21 16l179 205h45l-158 -174l4 -4q55 20 109 20q66 0 115.5 -32.5t49.5 -94.5q0 -78 -70.5 -117.5t-156.5 -39.5q-94 0 -217 43z" />
<glyph unicode="&#xb9;" horiz-adv-x="739" d="M180 586l6 24h93l217 703q-106 -53 -254 -103l6 33q215 74 448 215h31l-258 -848h96l-6 -24h-379z" />
<glyph unicode="&#xba;" horiz-adv-x="665" d="M193 1122q0 121 108.5 228.5t239.5 107.5q109 0 170 -62.5t61 -162.5q0 -133 -105.5 -241.5t-246.5 -108.5q-115 0 -171 65.5t-56 173.5zM340 985q0 -78 78 -78q43 0 77.5 39t49.5 98q2 10 23.5 89t39 151t17.5 96q0 54 -70 54q-37 0 -65.5 -29t-43 -59.5t-30.5 -79.5 q-4 -12 -6 -19q-70 -182 -70 -262z" />
<glyph unicode="&#xbb;" horiz-adv-x="1024" d="M139 180l312 350l-172 351h110l180 -351l-307 -350h-123zM410 180l311 350l-172 351h110l181 -351l-308 -350h-122z" />
<glyph unicode="&#xbc;" horiz-adv-x="1708" d="M121 586l6 24h92l217 703q-106 -53 -254 -103l6 33q215 74 449 215h31l-258 -848h96l-6 -24h-379zM330 -33l948 1508h92l-948 -1508h-92zM905 256l10 53l560 563h112l-155 -530h131l-23 -86h-133l-68 -231h95l-7 -25h-378l8 25h90l76 231h-318zM975 342h276l129 391l-4 4 z" />
<glyph unicode="&#xbd;" horiz-adv-x="1708" d="M121 586l6 24h92l217 703q-106 -53 -254 -103l6 33q215 74 449 215h31l-258 -848h96l-6 -24h-379zM289 -33l948 1508h92l-948 -1508h-92zM883 0q27 70 92 140.5t136 130t138.5 124t110.5 150.5t43 182q0 121 -125 121q-66 0 -129.5 -37t-63.5 -76q0 -20 18.5 -30.5 t39 -15.5t39 -21.5t18.5 -44.5q0 -37 -20.5 -65t-61.5 -28q-94 0 -94 115q0 102 87 164.5t201.5 62.5t194.5 -50t80 -150.5t-68.5 -179t-155.5 -121.5t-193.5 -103.5t-159.5 -120.5h387q41 0 76 78h32l-129 -225h-493z" />
<glyph unicode="&#xbe;" horiz-adv-x="1708" d="M104 745q0 45 30 86t77 41q39 0 65.5 -23.5t26.5 -60.5q0 -31 -18.5 -53t-48.5 -22q-20 0 -44 9t-28 9q-23 0 -23 -29q0 -45 57.5 -68.5t127.5 -23.5q82 0 141 119t59 217q0 51 -26.5 74.5t-65.5 26.5l-127 8v20h113q115 0 165 79t50 200q0 35 -21.5 53t-46 22.5 t-63.5 4.5q-45 0 -88 -24t-43 -42q0 -6 22.5 -10t46 -21.5t23.5 -54.5q0 -33 -21.5 -51.5t-56.5 -18.5q-43 0 -68.5 24t-25.5 62q0 72 75.5 116t159.5 44q115 0 191 -47t76 -143q0 -201 -320 -207v-4q104 -23 163.5 -68t59.5 -133q0 -129 -106.5 -206t-237.5 -77 q-106 0 -178 44.5t-72 127.5zM350 -33l948 1508h93l-949 -1508h-92zM905 256l10 53l560 563h112l-155 -530h131l-23 -86h-133l-68 -231h95l-7 -25h-378l8 25h90l76 231h-318zM975 342h276l129 391l-4 4z" />
<glyph unicode="&#xbf;" horiz-adv-x="909" d="M-70 -244q0 176 94.5 279.5t329.5 220.5q86 43 112 73.5t44 108.5l14 60l27 -9q-68 -332 -102 -409q-16 -35 -33 -57q-31 -39 -104.5 -82t-138 -74t-117 -84t-52.5 -117q0 -92 77 -139t175 -47q57 0 129 26.5t84 69.5q2 10 -2 18q-16 6 -55 11q-41 4 -69 30.5t-28 67.5 q0 53 31 88t84 35q59 0 95 -40t36 -101q0 -104 -95 -173t-202 -69q-145 0 -239.5 85t-94.5 228zM424 725q0 63 46 119.5t114 56.5q55 0 89 -35t34 -84q0 -63 -46.5 -119.5t-113.5 -56.5q-55 0 -89 35t-34 84z" />
<glyph unicode="&#xc0;" horiz-adv-x="1366" d="M-123 0l10 37h45q86 0 164 117l901 1349h43v-1466h146l-10 -37h-601l11 37h159v401h-405l-172 -266q-43 -70 -43 -80q0 -55 92 -55h76l-10 -37h-406zM365 475h380v582h-4zM723 1874q0 59 80 59q49 0 94 -63l231 -342h-28l-322 264q-55 43 -55 82z" />
<glyph unicode="&#xc1;" horiz-adv-x="1366" d="M-123 0l10 37h45q86 0 164 117l901 1349h43v-1466h146l-10 -37h-601l11 37h159v401h-405l-172 -266q-43 -70 -43 -80q0 -55 92 -55h76l-10 -37h-406zM365 475h380v582h-4zM891 1528l231 342q45 63 95 63q80 0 79 -59q0 -39 -55 -82l-321 -264h-29z" />
<glyph unicode="&#xc2;" horiz-adv-x="1366" d="M-123 0l10 37h45q86 0 164 117l901 1349h43v-1466h146l-10 -37h-601l11 37h159v401h-405l-172 -266q-43 -70 -43 -80q0 -55 92 -55h76l-10 -37h-406zM365 475h380v582h-4zM733 1528l303 405h140l122 -405h-22l-195 258l-323 -258h-25z" />
<glyph unicode="&#xc3;" horiz-adv-x="1366" d="M-123 0l10 37h45q86 0 164 117l901 1349h43v-1466h146l-10 -37h-601l11 37h159v401h-405l-172 -266q-43 -70 -43 -80q0 -55 92 -55h76l-10 -37h-406zM365 475h380v582h-4zM684 1612q25 92 78 169t129 77q45 0 154.5 -43t156.5 -43q53 0 76.5 17.5t48.5 68.5h31 q-25 -92 -78 -169t-129 -77q-45 0 -154.5 43t-156.5 43q-53 0 -77 -17.5t-48 -68.5h-31z" />
<glyph unicode="&#xc4;" horiz-adv-x="1366" d="M-123 0l10 37h45q86 0 164 117l901 1349h43v-1466h146l-10 -37h-601l11 37h159v401h-405l-172 -266q-43 -70 -43 -80q0 -55 92 -55h76l-10 -37h-406zM365 475h380v582h-4zM735 1726.5q0 55.5 40 95.5t95.5 40t95.5 -40t40 -95.5t-40 -95.5t-95.5 -40t-95.5 40t-40 95.5z M1092 1726.5q0 55.5 39.5 95.5t95 40t95.5 -40t40 -95.5t-40 -95.5t-95.5 -40t-95 40t-39.5 95.5z" />
<glyph unicode="&#xc5;" horiz-adv-x="1366" d="M-123 0l10 37h45q86 0 164 117l901 1349h43v-1466h146l-10 -37h-601l11 37h159v401h-405l-172 -266q-43 -70 -43 -80q0 -55 92 -55h76l-10 -37h-406zM365 475h380v582h-4zM829 1753q0 90 67 155.5t155 65.5q90 0 155.5 -65.5t65.5 -155.5t-65.5 -155.5t-155.5 -65.5 t-156 65.5t-66 155.5zM915 1753q0 -57 39 -96t96.5 -39t96.5 39t39 96t-39 96t-96.5 39t-96.5 -39t-39 -96z" />
<glyph unicode="&#xc6;" horiz-adv-x="1933" d="M-152 0l11 37h32q98 4 166 94l977 1274h-182l10 37h1110l-74 -393h-34q10 72 10 86q0 270 -250 270h-264l-170 -606h141q76 0 121 29.5t70 97.5l32 94h35q-98 -344 -137 -518h-33q20 86 21 151q0 61 -36 85t-110 24h-114l-203 -725h266q205 0 333 123t189 297h35 l-125 -457h-1202l10 37h187l112 401h-442l-170 -231q-59 -84 -59 -111q0 -59 110 -59h43l-10 -37h-406zM367 475h426l258 893h-4z" />
<glyph unicode="&#xc7;" horiz-adv-x="1366" d="M121 608q0 211 119.5 413t314.5 328t397 126q137 0 252 -70q113 -70 152 -70q36 0 59 80l37 -8q-84 -309 -117 -524l-37 6q12 49 13 96q0 193 -91.5 323t-271.5 130q-244 0 -434 -520q-135 -367 -135 -605q0 -137 83 -223t222 -86q168 0 299 100.5t209 255.5l31 -22 q-80 -160 -219.5 -265.5t-305.5 -105.5q-29 0 -43 4l-131 -145l4 -4q55 20 109 20q66 0 116 -32.5t50 -94.5q0 -78 -70.5 -117.5t-157.5 -39.5q-96 0 -217 43l15 37q113 -31 133 -31q53 0 99 27.5t46 76.5q0 43 -31.5 62.5t-72.5 19.5q-20 0 -68 -14l-20 16l155 178 q-231 29 -362 208t-131 427z" />
<glyph unicode="&#xc8;" horiz-adv-x="1366" d="M-94 0l10 37h150l380 1368h-161l10 37h1110l-74 -393h-35q10 72 11 86q0 270 -250 270h-307l-168 -606h182q76 0 121 29.5t69 97.5l33 94h35q-98 -344 -137 -518h-33q20 86 20 151q0 61 -35.5 85t-109.5 24h-156l-200 -725h305q205 0 333 123t189 297h35l-125 -457h-1202 zM690 1874q0 59 80 59q49 0 94 -63l232 -342h-29l-322 264q-55 43 -55 82z" />
<glyph unicode="&#xc9;" horiz-adv-x="1366" d="M-94 0l10 37h150l380 1368h-161l10 37h1110l-74 -393h-35q10 72 11 86q0 270 -250 270h-307l-168 -606h182q76 0 121 29.5t69 97.5l33 94h35q-98 -344 -137 -518h-33q20 86 20 151q0 61 -35.5 85t-109.5 24h-156l-200 -725h305q205 0 333 123t189 297h35l-125 -457h-1202 zM829 1528l232 342q45 63 94 63q80 0 80 -59q0 -39 -55 -82l-322 -264h-29z" />
<glyph unicode="&#xca;" horiz-adv-x="1366" d="M-94 0l10 37h150l380 1368h-161l10 37h1110l-74 -393h-35q10 72 11 86q0 270 -250 270h-307l-168 -606h182q76 0 121 29.5t69 97.5l33 94h35q-98 -344 -137 -518h-33q20 86 20 151q0 61 -35.5 85t-109.5 24h-156l-200 -725h305q205 0 333 123t189 297h35l-125 -457h-1202 zM641 1528l303 405h139l123 -405h-22l-195 258l-323 -258h-25z" />
<glyph unicode="&#xcb;" horiz-adv-x="1366" d="M-94 0l10 37h150l380 1368h-161l10 37h1110l-74 -393h-35q10 72 11 86q0 270 -250 270h-307l-168 -606h182q76 0 121 29.5t69 97.5l33 94h35q-98 -344 -137 -518h-33q20 86 20 151q0 61 -35.5 85t-109.5 24h-156l-200 -725h305q205 0 333 123t189 297h35l-125 -457h-1202 zM662 1726.5q0 55.5 39.5 95.5t95 40t95.5 -40t40 -95.5t-40 -95.5t-95.5 -40t-95 40t-39.5 95.5zM1018 1726.5q0 55.5 40 95.5t95 40t95 -40t40 -95.5t-40 -95.5t-95 -40t-95 40t-40 95.5z" />
<glyph unicode="&#xcc;" horiz-adv-x="796" d="M-82 0l10 37h150l381 1368h-162l10 37h617l-11 -37h-149l-381 -1368h162l-10 -37h-617zM383 1874q0 59 80 59q49 0 94 -63l231 -342h-28l-322 264q-55 43 -55 82z" />
<glyph unicode="&#xcd;" horiz-adv-x="796" d="M-82 0l10 37h150l381 1368h-162l10 37h617l-11 -37h-149l-381 -1368h162l-10 -37h-617zM502 1528l231 342q45 63 94 63q80 0 80 -59q0 -39 -55 -82l-322 -264h-28z" />
<glyph unicode="&#xce;" horiz-adv-x="796" d="M-82 0l10 37h150l381 1368h-162l10 37h617l-11 -37h-149l-381 -1368h162l-10 -37h-617zM354 1528l303 405h140l123 -405h-23l-195 258l-323 -258h-25z" />
<glyph unicode="&#xcf;" horiz-adv-x="796" d="M-82 0l10 37h150l381 1368h-162l10 37h617l-11 -37h-149l-381 -1368h162l-10 -37h-617zM365 1726.5q0 55.5 39.5 95.5t95 40t95.5 -40t40 -95.5t-40 -95.5t-95.5 -40t-95 40t-39.5 95.5zM721 1726.5q0 55.5 40 95.5t95 40t95 -40t40 -95.5t-40 -95.5t-95 -40t-95 40 t-40 95.5z" />
<glyph unicode="&#xd0;" horiz-adv-x="1593" d="M-94 0l10 37h150l202 739h-147l16 62h154l155 567h-161l10 37h668q252 0 411.5 -145.5t159.5 -426.5q0 -231 -106.5 -429.5t-297 -319.5t-421.5 -121h-803zM371 37h325q123 0 234.5 110.5t181.5 274.5t111 340t41 319q0 174 -86 249t-213 75h-213l-156 -567h330l-17 -62 h-336z" />
<glyph unicode="&#xd1;" horiz-adv-x="1478" d="M-123 0l10 37h84q47 0 93.5 61.5t64.5 122.5l334 1184h-148l11 37h448l371 -1153h4l260 932q16 66 16 106q0 78 -108 78h-68l11 37h458l-10 -37h-70q-78 0 -119.5 -47t-68.5 -137l-348 -1221h-170l-443 1356h-4l-303 -1090q-33 -115 -32 -129q0 -100 120 -100h62l-10 -37 h-445zM713 1612q25 92 78 169t129 77q45 0 154.5 -43t156.5 -43q53 0 76.5 17.5t48.5 68.5h30q-25 -92 -78 -169t-128 -77q-45 0 -155 43t-157 43q-53 0 -76.5 -17.5t-48.5 -68.5h-30z" />
<glyph unicode="&#xd2;" horiz-adv-x="1478" d="M100 510q0 182 76 362.5t192.5 310.5t262 211t280.5 81q240 0 386.5 -175.5t146.5 -414.5q0 -225 -100.5 -433t-292 -346.5t-428.5 -138.5q-233 0 -378 159t-145 384zM358 264q0 -121 63.5 -190.5t192.5 -69.5q158 0 252.5 117t151.5 313q109 371 138.5 506t29.5 238 q0 121 -63.5 190.5t-192.5 69.5q-147 0 -255 -143.5t-206 -483.5q-111 -385 -111 -547zM690 1874q0 59 80 59q49 0 94 -63l232 -342h-29l-322 264q-55 43 -55 82z" />
<glyph unicode="&#xd3;" horiz-adv-x="1478" d="M100 510q0 182 76 362.5t192.5 310.5t262 211t280.5 81q240 0 386.5 -175.5t146.5 -414.5q0 -225 -100.5 -433t-292 -346.5t-428.5 -138.5q-233 0 -378 159t-145 384zM358 264q0 -121 63.5 -190.5t192.5 -69.5q158 0 252.5 117t151.5 313q109 371 138.5 506t29.5 238 q0 121 -63.5 190.5t-192.5 69.5q-147 0 -255 -143.5t-206 -483.5q-111 -385 -111 -547zM840 1528l231 342q45 63 94 63q80 0 80 -59q0 -39 -55 -82l-322 -264h-28z" />
<glyph unicode="&#xd4;" horiz-adv-x="1478" d="M100 510q0 182 76 362.5t192.5 310.5t262 211t280.5 81q240 0 386.5 -175.5t146.5 -414.5q0 -225 -100.5 -433t-292 -346.5t-428.5 -138.5q-233 0 -378 159t-145 384zM358 264q0 -121 63.5 -190.5t192.5 -69.5q158 0 252.5 117t151.5 313q109 371 138.5 506t29.5 238 q0 121 -63.5 190.5t-192.5 69.5q-147 0 -255 -143.5t-206 -483.5q-111 -385 -111 -547zM672 1528l303 405h139l123 -405h-23l-194 258l-324 -258h-24z" />
<glyph unicode="&#xd5;" horiz-adv-x="1478" d="M100 510q0 182 76 362.5t192.5 310.5t262 211t280.5 81q240 0 386.5 -175.5t146.5 -414.5q0 -225 -100.5 -433t-292 -346.5t-428.5 -138.5q-233 0 -378 159t-145 384zM358 264q0 -121 63.5 -190.5t192.5 -69.5q158 0 252.5 117t151.5 313q109 371 138.5 506t29.5 238 q0 121 -63.5 190.5t-192.5 69.5q-147 0 -255 -143.5t-206 -483.5q-111 -385 -111 -547zM662 1612q25 92 78 169t128 77q45 0 155 -43t157 -43q53 0 76.5 17.5t48.5 68.5h30q-25 -92 -78 -169t-129 -77q-45 0 -154.5 43t-156.5 43q-53 0 -76.5 -17.5t-48.5 -68.5h-30z" />
<glyph unicode="&#xd6;" horiz-adv-x="1478" d="M100 510q0 182 76 362.5t192.5 310.5t262 211t280.5 81q240 0 386.5 -175.5t146.5 -414.5q0 -225 -100.5 -433t-292 -346.5t-428.5 -138.5q-233 0 -378 159t-145 384zM358 264q0 -121 63.5 -190.5t192.5 -69.5q158 0 252.5 117t151.5 313q109 371 138.5 506t29.5 238 q0 121 -63.5 190.5t-192.5 69.5q-147 0 -255 -143.5t-206 -483.5q-111 -385 -111 -547zM713 1726.5q0 55.5 40 95.5t95 40t95 -40t40 -95.5t-40 -95.5t-95 -40t-95 40t-40 95.5zM1069 1726.5q0 55.5 40 95.5t95.5 40t95 -40t39.5 -95.5t-39.5 -95.5t-95 -40t-95.5 40 t-40 95.5z" />
<glyph unicode="&#xd7;" horiz-adv-x="1228" d="M139 170l348 348l-348 348l127 127l348 -348l349 348l127 -127l-349 -348l349 -348l-127 -127l-349 348l-348 -348z" />
<glyph unicode="&#xd8;" horiz-adv-x="1478" d="M100 510q0 182 76 362.5t192.5 310.5t262 211t280.5 81q178 0 306 -105l92 127l37 -24l-93 -130q92 -84 141.5 -204.5t49.5 -253.5q0 -225 -100.5 -433t-292 -346.5t-428.5 -138.5q-172 0 -299 94l-101 -139l-39 25l103 141q-186 158 -187 422zM358 264q1 -34 7 -67 l798 1099q-49 141 -233 142q-147 0 -255 -143.5t-206 -483.5q-111 -385 -111 -547zM383 141q55 -137 231 -137q158 0 252.5 117t151.5 313q109 371 138.5 506t29.5 238q0 22 -8 63z" />
<glyph unicode="&#xd9;" horiz-adv-x="1478" d="M137 311q0 41 47 215l244 879h-152l11 37h622l-10 -37h-164l-291 -1012q-25 -88 -24 -157q0 -123 79 -177.5t193 -54.5q184 0 306 94.5t171 261.5l248 871q31 104 31 121q0 25 -34 39t-87 14h-55l10 37h430l-10 -37h-98q-96 0 -131 -137l-263 -920q-59 -211 -202.5 -296 t-352.5 -85q-72 0 -151.5 15.5t-166.5 51.5t-143.5 107.5t-56.5 169.5zM793 1874q0 59 79 59q49 0 95 -63l231 -342h-29l-321 264q-55 43 -55 82z" />
<glyph unicode="&#xda;" horiz-adv-x="1478" d="M137 311q0 41 47 215l244 879h-152l11 37h622l-10 -37h-164l-291 -1012q-25 -88 -24 -157q0 -123 79 -177.5t193 -54.5q184 0 306 94.5t171 261.5l248 871q31 104 31 121q0 25 -34 39t-87 14h-55l10 37h430l-10 -37h-98q-96 0 -131 -137l-263 -920q-59 -211 -202.5 -296 t-352.5 -85q-72 0 -151.5 15.5t-166.5 51.5t-143.5 107.5t-56.5 169.5zM932 1528l231 342q45 63 94 63q80 0 80 -59q0 -39 -55 -82l-321 -264h-29z" />
<glyph unicode="&#xdb;" horiz-adv-x="1478" d="M137 311q0 41 47 215l244 879h-152l11 37h622l-10 -37h-164l-291 -1012q-25 -88 -24 -157q0 -123 79 -177.5t193 -54.5q184 0 306 94.5t171 261.5l248 871q31 104 31 121q0 25 -34 39t-87 14h-55l10 37h430l-10 -37h-98q-96 0 -131 -137l-263 -920q-59 -211 -202.5 -296 t-352.5 -85q-72 0 -151.5 15.5t-166.5 51.5t-143.5 107.5t-56.5 169.5zM741 1528l303 405h140l123 -405h-23l-194 258l-324 -258h-25z" />
<glyph unicode="&#xdc;" horiz-adv-x="1478" d="M137 311q0 41 47 215l244 879h-152l11 37h622l-10 -37h-164l-291 -1012q-25 -88 -24 -157q0 -123 79 -177.5t193 -54.5q184 0 306 94.5t171 261.5l248 871q31 104 31 121q0 25 -34 39t-87 14h-55l10 37h430l-10 -37h-98q-96 0 -131 -137l-263 -920q-59 -211 -202.5 -296 t-352.5 -85q-72 0 -151.5 15.5t-166.5 51.5t-143.5 107.5t-56.5 169.5zM764 1726.5q0 55.5 40 95.5t95 40t95 -40t40 -95.5t-40 -95.5t-95 -40t-95 40t-40 95.5zM1120 1726.5q0 55.5 40 95.5t95.5 40t95.5 -40t40 -95.5t-40 -95.5t-95.5 -40t-95.5 40t-40 95.5z" />
<glyph unicode="&#xdd;" horiz-adv-x="1251" d="M150 0l10 37h141l172 610l-78 758h-153l10 37h612l-10 -37h-162l72 -741l381 528q72 96 72 162q0 51 -82 51h-56l11 37h374l-10 -37h-33q-51 0 -84.5 -27.5t-89.5 -101.5l-481 -666l-162 -573h164l-10 -37h-608zM809 1528l231 342q45 63 95 63q80 0 79 -59q0 -39 -55 -82 l-321 -264h-29z" />
<glyph unicode="&#xde;" horiz-adv-x="1366" d="M-72 0l11 37h149l381 1368h-162l10 37h609l-11 -39h-141l-49 -182h141q469 0 469 -316q0 -236 -169 -357.5t-453 -121.5h-213l-109 -389h150l-11 -37h-602zM510 463h211q102 0 181 91t115 212t36 240q0 178 -197 178h-145z" />
<glyph unicode="&#xdf;" horiz-adv-x="1251" d="M-377 -406q0 61 34 97.5t87 36.5q125 0 125 -109q0 -53 -25.5 -80.5t-62.5 -32.5v-8q12 -4 18 -4q39 0 82 32t66 68q27 43 54.5 136.5t43.5 166t35.5 177t21.5 110.5l105 494q76 356 263 591.5t450 235.5q119 0 225 -58t106 -169q0 -84 -71.5 -166t-156.5 -132 t-156.5 -103.5t-71.5 -90.5q0 -14 7 -27.5t25.5 -29.5t25.5 -21.5t34 -23.5q141 -102 184 -153.5t43 -137.5q0 -178 -110.5 -291.5t-284.5 -113.5q-113 0 -187.5 56t-74.5 146q0 57 35.5 97.5t97.5 40.5q57 0 91 -31t34 -86q0 -37 -25.5 -66.5t-56.5 -38.5q-45 -18 -49 -26 q0 -29 53 -48.5t84 -19.5q92 0 169 59.5t77 161.5q0 51 -36 93.5t-86 73t-100.5 60t-86 69.5t-35.5 87q0 57 35.5 110.5t89 93.5t116 91.5t115.5 102.5t89 130t36 171q0 154 -170 153q-162 0 -246 -134t-168 -460q-113 -449 -143 -552q-31 -109 -81 -236t-128 -278.5 t-184.5 -251t-214.5 -99.5q-53 0 -99.5 37t-46.5 100z" />
<glyph unicode="&#xe0;" d="M45 299q0 90 39 196.5t104.5 199.5t167 155.5t213.5 62.5q152 0 170 -151h4l37 127h256l-202 -686q-31 -109 -31 -111q0 -43 37 -43q43 0 96 58.5t78 107.5l28 -16q-127 -223 -303 -224q-74 0 -115.5 59.5t-41.5 149.5h-4q-37 -78 -115 -143.5t-170 -65.5 q-117 0 -182.5 90.5t-65.5 233.5zM254 90q0 -78 70 -78q59 0 133.5 64.5t126.5 191.5q131 328 131 453q0 82 -34 119t-81 37q-57 0 -102.5 -53.5t-106.5 -233.5l-63 -187q-25 -72 -49.5 -179t-24.5 -134zM422 1382q0 59 80 60q49 0 94 -64l231 -342h-28l-322 264 q-55 43 -55 82z" />
<glyph unicode="&#xe1;" d="M45 299q0 90 39 196.5t104.5 199.5t167 155.5t213.5 62.5q152 0 170 -151h4l37 127h256l-202 -686q-31 -109 -31 -111q0 -43 37 -43q43 0 96 58.5t78 107.5l28 -16q-127 -223 -303 -224q-74 0 -115.5 59.5t-41.5 149.5h-4q-37 -78 -115 -143.5t-170 -65.5 q-117 0 -182.5 90.5t-65.5 233.5zM254 90q0 -78 70 -78q59 0 133.5 64.5t126.5 191.5q131 328 131 453q0 82 -34 119t-81 37q-57 0 -102.5 -53.5t-106.5 -233.5l-63 -187q-25 -72 -49.5 -179t-24.5 -134zM623 1036l231 342q45 63 94 64q80 0 80 -60q0 -39 -55 -82l-322 -264 h-28z" />
<glyph unicode="&#xe2;" d="M45 299q0 90 39 196.5t104.5 199.5t167 155.5t213.5 62.5q152 0 170 -151h4l37 127h256l-202 -686q-31 -109 -31 -111q0 -43 37 -43q43 0 96 58.5t78 107.5l28 -16q-127 -223 -303 -224q-74 0 -115.5 59.5t-41.5 149.5h-4q-37 -78 -115 -143.5t-170 -65.5 q-117 0 -182.5 90.5t-65.5 233.5zM254 90q0 -78 70 -78q59 0 133.5 64.5t126.5 191.5q131 328 131 453q0 82 -34 119t-81 37q-57 0 -102.5 -53.5t-106.5 -233.5l-63 -187q-25 -72 -49.5 -179t-24.5 -134zM424 1036l303 406h139l123 -406h-22l-195 258l-323 -258h-25z" />
<glyph unicode="&#xe3;" d="M45 299q0 90 39 196.5t104.5 199.5t167 155.5t213.5 62.5q152 0 170 -151h4l37 127h256l-202 -686q-31 -109 -31 -111q0 -43 37 -43q43 0 96 58.5t78 107.5l28 -16q-127 -223 -303 -224q-74 0 -115.5 59.5t-41.5 149.5h-4q-37 -78 -115 -143.5t-170 -65.5 q-117 0 -182.5 90.5t-65.5 233.5zM254 90q0 -78 70 -78q59 0 133.5 64.5t126.5 191.5q131 328 131 453q0 82 -34 119t-81 37q-57 0 -102.5 -53.5t-106.5 -233.5l-63 -187q-25 -72 -49.5 -179t-24.5 -134zM403 1120q25 92 78.5 169t128.5 77q45 0 154.5 -43t157.5 -43 q53 0 76.5 17.5t48.5 68.5h30q-25 -92 -78 -169t-129 -77q-45 0 -154.5 43t-156.5 43q-53 0 -76.5 -17.5t-48.5 -68.5h-31z" />
<glyph unicode="&#xe4;" d="M45 299q0 90 39 196.5t104.5 199.5t167 155.5t213.5 62.5q152 0 170 -151h4l37 127h256l-202 -686q-31 -109 -31 -111q0 -43 37 -43q43 0 96 58.5t78 107.5l28 -16q-127 -223 -303 -224q-74 0 -115.5 59.5t-41.5 149.5h-4q-37 -78 -115 -143.5t-170 -65.5 q-117 0 -182.5 90.5t-65.5 233.5zM254 90q0 -78 70 -78q59 0 133.5 64.5t126.5 191.5q131 328 131 453q0 82 -34 119t-81 37q-57 0 -102.5 -53.5t-106.5 -233.5l-63 -187q-25 -72 -49.5 -179t-24.5 -134zM455 1235q0 55 40 95t95 40t95 -40t40 -95t-40 -95t-95 -40t-95 40 t-40 95zM811 1235q0 55 40 95t95 40t95 -40t40 -95t-40 -95t-95 -40t-95 40t-40 95z" />
<glyph unicode="&#xe5;" d="M45 299q0 90 39 196.5t104.5 199.5t167 155.5t213.5 62.5q152 0 170 -151h4l37 127h256l-202 -686q-31 -109 -31 -111q0 -43 37 -43q43 0 96 58.5t78 107.5l28 -16q-127 -223 -303 -224q-74 0 -115.5 59.5t-41.5 149.5h-4q-37 -78 -115 -143.5t-170 -65.5 q-117 0 -182.5 90.5t-65.5 233.5zM254 90q0 -78 70 -78q59 0 133.5 64.5t126.5 191.5q131 328 131 453q0 82 -34 119t-81 37q-57 0 -102.5 -53.5t-106.5 -233.5l-63 -187q-25 -72 -49.5 -179t-24.5 -134zM539 1261.5q0 90.5 66.5 156t154.5 65.5q90 0 155.5 -65.5t65.5 -156 t-65.5 -156t-155.5 -65.5t-155.5 65.5t-65.5 156zM625 1261.5q0 -57.5 38.5 -96.5t96 -39t96.5 39t39 96.5t-39 96.5t-96.5 39t-96 -39t-38.5 -96.5z" />
<glyph unicode="&#xe6;" horiz-adv-x="1478" d="M45 299q0 236 154.5 425t349.5 189q76 0 127 -49t49 -153h4l51 178h260q29 12 70 18q37 6 70 6q96 0 167.5 -56t71.5 -155q0 -78 -38 -138t-99 -92t-126.5 -48t-131.5 -16q-78 0 -121 6q-55 -152 -55 -264q0 -61 47 -99.5t109 -38.5q92 0 176 53.5t139 137.5l27 -15 q-137 -213 -383 -213q-143 0 -234.5 74t-112.5 180h-6q-25 -76 -118 -165t-199 -89q-117 0 -182.5 90.5t-65.5 233.5zM254 90q0 -78 69.5 -78t144.5 61.5t114 162.5q119 303 118 469q0 84 -31.5 128t-70.5 44q-55 0 -100.5 -53.5t-106.5 -233.5l-63 -187q-25 -72 -49.5 -179 t-24.5 -134zM909 442q41 -10 86 -10q66 0 102 33t62 100q63 162 64 254q0 68 -76 68q-35 2 -74 -28t-55 -85z" />
<glyph unicode="&#xe7;" horiz-adv-x="909" d="M45 301q0 256 187.5 434t400.5 178q106 0 183 -44t77 -148q0 -57 -42 -103.5t-110 -46.5q-55 0 -93 40t-38 102q0 51 27 80.5t54.5 41t27.5 19.5q0 23 -92 23q-80 0 -149.5 -100.5t-107.5 -233.5t-58.5 -240.5t-20.5 -144.5q0 -145 145 -146q100 0 195.5 80.5 t142.5 186.5l31 -13q-137 -274 -373 -289l-137 -151l4 -4q55 20 109 20q66 0 115.5 -32.5t49.5 -94.5q0 -78 -70.5 -117.5t-156.5 -39.5q-96 0 -217 43l14 37q113 -31 133 -31q53 0 99.5 27.5t46.5 76.5q0 43 -32 62.5t-73 19.5q-20 0 -67 -14l-21 16l158 182 q-162 4 -252 92.5t-90 231.5z" />
<glyph unicode="&#xe8;" horiz-adv-x="909" d="M45 313q0 133 83 275.5t213 236t255 88.5q98 0 176 -57t78 -154q0 -147 -119 -220.5t-276 -73.5q-72 0 -121 16q-43 -166 -43 -274q0 -63 34.5 -100.5t94.5 -37.5q92 0 176 53.5t139 137.5l27 -15q-137 -213 -383 -213q-158 0 -246 97.5t-88 240.5zM344 453 q35 -20 86 -21q63 0 99 34t61 99q63 162 63 240q0 43 -20.5 63.5t-46.5 20.5q-68 0 -121 -101.5t-121 -334.5zM369 1382q0 59 80 60q49 0 94 -64l231 -342h-29l-321 264q-55 43 -55 82z" />
<glyph unicode="&#xe9;" horiz-adv-x="909" d="M45 313q0 133 83 275.5t213 236t255 88.5q98 0 176 -57t78 -154q0 -147 -119 -220.5t-276 -73.5q-72 0 -121 16q-43 -166 -43 -274q0 -63 34.5 -100.5t94.5 -37.5q92 0 176 53.5t139 137.5l27 -15q-137 -213 -383 -213q-158 0 -246 97.5t-88 240.5zM344 453 q35 -20 86 -21q63 0 99 34t61 99q63 162 63 240q0 43 -20.5 63.5t-46.5 20.5q-68 0 -121 -101.5t-121 -334.5zM549 1036l231 342q45 63 94 64q80 0 80 -60q0 -39 -55 -82l-321 -264h-29z" />
<glyph unicode="&#xea;" horiz-adv-x="909" d="M45 313q0 133 83 275.5t213 236t255 88.5q98 0 176 -57t78 -154q0 -147 -119 -220.5t-276 -73.5q-72 0 -121 16q-43 -166 -43 -274q0 -63 34.5 -100.5t94.5 -37.5q92 0 176 53.5t139 137.5l27 -15q-137 -213 -383 -213q-158 0 -246 97.5t-88 240.5zM330 1036l303 406h139 l123 -406h-23l-194 258l-324 -258h-24zM344 453q35 -20 86 -21q63 0 99 34t61 99q63 162 63 240q0 43 -20.5 63.5t-46.5 20.5q-68 0 -121 -101.5t-121 -334.5z" />
<glyph unicode="&#xeb;" horiz-adv-x="909" d="M45 313q0 133 83 275.5t213 236t255 88.5q98 0 176 -57t78 -154q0 -147 -119 -220.5t-276 -73.5q-72 0 -121 16q-43 -166 -43 -274q0 -63 34.5 -100.5t94.5 -37.5q92 0 176 53.5t139 137.5l27 -15q-137 -213 -383 -213q-158 0 -246 97.5t-88 240.5zM340 1235q0 55 40 95 t95 40t95 -40t40 -95t-40 -95t-95 -40t-95 40t-40 95zM344 453q35 -20 86 -21q63 0 99 34t61 99q63 162 63 240q0 43 -20.5 63.5t-46.5 20.5q-68 0 -121 -101.5t-121 -334.5zM696 1235q0 55 40 95t95.5 40t95.5 -40t40 -95t-40 -95t-95.5 -40t-95.5 40t-40 95z" />
<glyph unicode="&#xec;" horiz-adv-x="681" d="M84 145q0 39 25 121l182 586h-127l8 37h211q125 0 188 45l-223 -731q-31 -106 -31 -111q0 -43 37 -43q43 0 96.5 58.5t77.5 107.5l29 -16q-127 -223 -285 -224q-53 0 -92 16.5t-56.5 38t-27.5 50.5t-11 41t-1 24zM215 1382q0 59 80 60q49 0 94 -64l232 -342h-29l-322 264 q-55 43 -55 82z" />
<glyph unicode="&#xed;" horiz-adv-x="681" d="M84 145q0 39 25 121l182 586h-127l8 37h211q125 0 188 45l-223 -731q-31 -106 -31 -111q0 -43 37 -43q43 0 96.5 58.5t77.5 107.5l29 -16q-127 -223 -285 -224q-53 0 -92 16.5t-56.5 38t-27.5 50.5t-11 41t-1 24zM313 1036l232 342q45 63 94 64q80 0 80 -60 q0 -39 -55 -82l-322 -264h-29z" />
<glyph unicode="&#xee;" horiz-adv-x="681" d="M84 145q0 39 25 121l182 586h-127l8 37h211q125 0 188 45l-223 -731q-31 -106 -31 -111q0 -43 37 -43q43 0 96.5 58.5t77.5 107.5l29 -16q-127 -223 -285 -224q-53 0 -92 16.5t-56.5 38t-27.5 50.5t-11 41t-1 24zM156 1036l303 406h139l123 -406h-23l-194 258l-324 -258 h-24z" />
<glyph unicode="&#xef;" horiz-adv-x="681" d="M84 145q0 39 25 121l182 586h-127l8 37h211q125 0 188 45l-223 -731q-31 -106 -31 -111q0 -43 37 -43q43 0 96.5 58.5t77.5 107.5l29 -16q-127 -223 -285 -224q-53 0 -92 16.5t-56.5 38t-27.5 50.5t-11 41t-1 24zM166 1235q0 55 40 95t95 40t95 -40t40 -95t-40 -95 t-95 -40t-95 40t-40 95zM522 1235q0 55 40 95t95.5 40t95.5 -40t40 -95t-40 -95t-95.5 -40t-95.5 40t-40 95z" />
<glyph unicode="&#xf0;" horiz-adv-x="1024" d="M45 326q0 170 85 309t205 208.5t243 69.5q90 0 135 -36q0 184 -82 344l-221 -111l-27 55l213 105q-49 109 -150 180l39 25q109 -59 197 -162l213 106l33 -53l-199 -96q2 -4 33 -50t44 -68t39.5 -79t40 -105t25 -121t11.5 -151q0 -182 -68 -346t-195 -269.5t-282 -105.5 q-135 0 -233.5 94.5t-98.5 256.5zM254 135q0 -135 121 -135q35 0 65.5 13.5t47 27.5t36 48t23.5 46t20 51q35 88 90.5 311.5t55.5 276.5q0 61 -28 88t-91 27q-41 0 -71.5 -14.5t-53.5 -46t-33 -53t-26 -62.5q-57 -147 -106.5 -325.5t-49.5 -252.5z" />
<glyph unicode="&#xf1;" d="M6 0l246 852h-119l8 37h211q125 0 189 45l-84 -260l4 -2q45 55 71.5 83.5t74.5 72.5t99.5 64.5t106.5 20.5q90 0 140.5 -46t50.5 -126q0 -53 -78 -278l-92 -260q-31 -92 -31 -111q0 -43 37 -43q43 0 96 58.5t78 107.5l28 -16q-127 -223 -303 -224q-78 0 -124 50.5 t-46 121.5q0 25 29 117l162 479q23 68 22 91q0 31 -43 30q-70 0 -181.5 -125t-135.5 -207l-154 -532h-262zM403 1120q25 92 78.5 169t128.5 77q45 0 154.5 -43t157.5 -43q53 0 76.5 17.5t48.5 68.5h30q-25 -92 -78 -169t-129 -77q-45 0 -154.5 43t-156.5 43 q-53 0 -76.5 -17.5t-48.5 -68.5h-31z" />
<glyph unicode="&#xf2;" horiz-adv-x="1024" d="M45 326q0 170 85 309t205 208.5t243 69.5q160 0 252 -106t92 -268q0 -207 -157 -385.5t-388 -178.5q-135 0 -233.5 94.5t-98.5 256.5zM254 135q0 -135 121 -135q35 0 65.5 13.5t47 27.5t36 48t23.5 46t20 51q35 88 90.5 311.5t55.5 276.5q0 61 -28 88t-91 27 q-41 0 -71.5 -14.5t-53.5 -46t-33 -53t-26 -62.5q-57 -147 -106.5 -325.5t-49.5 -252.5zM385 1382q0 59 80 60q49 0 94 -64l232 -342h-29l-322 264q-55 43 -55 82z" />
<glyph unicode="&#xf3;" horiz-adv-x="1024" d="M45 326q0 170 85 309t205 208.5t243 69.5q160 0 252 -106t92 -268q0 -207 -157 -385.5t-388 -178.5q-135 0 -233.5 94.5t-98.5 256.5zM254 135q0 -135 121 -135q35 0 65.5 13.5t47 27.5t36 48t23.5 46t20 51q35 88 90.5 311.5t55.5 276.5q0 61 -28 88t-91 27 q-41 0 -71.5 -14.5t-53.5 -46t-33 -53t-26 -62.5q-57 -147 -106.5 -325.5t-49.5 -252.5zM504 1036l231 342q45 63 94 64q80 0 80 -60q0 -39 -55 -82l-322 -264h-28z" />
<glyph unicode="&#xf4;" horiz-adv-x="1024" d="M45 326q0 170 85 309t205 208.5t243 69.5q160 0 252 -106t92 -268q0 -207 -157 -385.5t-388 -178.5q-135 0 -233.5 94.5t-98.5 256.5zM254 135q0 -135 121 -135q35 0 65.5 13.5t47 27.5t36 48t23.5 46t20 51q35 88 90.5 311.5t55.5 276.5q0 61 -28 88t-91 27 q-41 0 -71.5 -14.5t-53.5 -46t-33 -53t-26 -62.5q-57 -147 -106.5 -325.5t-49.5 -252.5zM367 1036l303 406h139l123 -406h-23l-194 258l-324 -258h-24z" />
<glyph unicode="&#xf5;" horiz-adv-x="1024" d="M45 326q0 170 85 309t205 208.5t243 69.5q160 0 252 -106t92 -268q0 -207 -157 -385.5t-388 -178.5q-135 0 -233.5 94.5t-98.5 256.5zM254 135q0 -135 121 -135q35 0 65.5 13.5t47 27.5t36 48t23.5 46t20 51q35 88 90.5 311.5t55.5 276.5q0 61 -28 88t-91 27 q-41 0 -71.5 -14.5t-53.5 -46t-33 -53t-26 -62.5q-57 -147 -106.5 -325.5t-49.5 -252.5zM346 1120q25 92 78 169t129 77q45 0 154.5 -43t156.5 -43q53 0 76.5 17.5t48.5 68.5h31q-25 -92 -78 -169t-129 -77q-45 0 -154.5 43t-156.5 43q-53 0 -77 -17.5t-48 -68.5h-31z" />
<glyph unicode="&#xf6;" horiz-adv-x="1024" d="M45 326q0 170 85 309t205 208.5t243 69.5q160 0 252 -106t92 -268q0 -207 -157 -385.5t-388 -178.5q-135 0 -233.5 94.5t-98.5 256.5zM254 135q0 -135 121 -135q35 0 65.5 13.5t47 27.5t36 48t23.5 46t20 51q35 88 90.5 311.5t55.5 276.5q0 61 -28 88t-91 27 q-41 0 -71.5 -14.5t-53.5 -46t-33 -53t-26 -62.5q-57 -147 -106.5 -325.5t-49.5 -252.5zM356 1235q0 55 40 95t95.5 40t95.5 -40t40 -95t-40 -95t-95.5 -40t-95.5 40t-40 95zM713 1235q0 55 40 95t95 40t95 -40t40 -95t-40 -95t-95 -40t-95 40t-40 95z" />
<glyph unicode="&#xf7;" horiz-adv-x="1228" d="M96 432v172h1037v-172h-1037zM459 94.5q0 57.5 45 102.5t102.5 45t102.5 -45t45 -102.5t-45 -102.5t-102.5 -45t-102.5 45t-45 102.5zM459 942q0 57 45 102.5t102.5 45.5t102.5 -45.5t45 -102.5t-45 -102t-102.5 -45t-102.5 45t-45 102z" />
<glyph unicode="&#xf8;" horiz-adv-x="1024" d="M45 326q0 170 85 309t205 208.5t243 69.5q98 0 172 -43l61 84l31 -20l-62 -82q141 -104 142 -313q0 -207 -157 -385.5t-388 -178.5q-111 0 -195 66l-69 -94l-31 22l70 94q-106 96 -107 263zM254 135q0 -135 121 -135q39 0 67.5 10t56 48t48 83t49.5 142.5t52.5 197 t64.5 273.5l-4 4zM264 219l4 -4l445 598q0 31 -32 53.5t-87 22.5q-111 0 -169 -132t-161 -538z" />
<glyph unicode="&#xf9;" d="M47 137q0 31 27 129l178 586h-127l8 37h211q125 0 188 45l-221 -729q-31 -96 -30 -129q0 -39 45 -39q33 0 90 51t104 115q76 104 101 182l161 504h265l-213 -686q-31 -109 -31 -111q0 -43 37 -43q43 0 96 58.5t78 107.5l28 -16q-127 -223 -303 -224q-80 0 -125 49.5 t-45 114.5q0 43 17 101h-4q-39 -59 -67 -94t-75 -80.5t-104 -68t-123 -22.5q-76 0 -121 44t-45 118zM442 1382q0 59 80 60q49 0 94 -64l232 -342h-29l-321 264q-55 43 -56 82z" />
<glyph unicode="&#xfa;" d="M47 137q0 31 27 129l178 586h-127l8 37h211q125 0 188 45l-221 -729q-31 -96 -30 -129q0 -39 45 -39q33 0 90 51t104 115q76 104 101 182l161 504h265l-213 -686q-31 -109 -31 -111q0 -43 37 -43q43 0 96 58.5t78 107.5l28 -16q-127 -223 -303 -224q-80 0 -125 49.5 t-45 114.5q0 43 17 101h-4q-39 -59 -67 -94t-75 -80.5t-104 -68t-123 -22.5q-76 0 -121 44t-45 118zM582 1036l231 342q45 63 94 64q80 0 80 -60q0 -39 -55 -82l-322 -264h-28z" />
<glyph unicode="&#xfb;" d="M47 137q0 31 27 129l178 586h-127l8 37h211q125 0 188 45l-221 -729q-31 -96 -30 -129q0 -39 45 -39q33 0 90 51t104 115q76 104 101 182l161 504h265l-213 -686q-31 -109 -31 -111q0 -43 37 -43q43 0 96 58.5t78 107.5l28 -16q-127 -223 -303 -224q-80 0 -125 49.5 t-45 114.5q0 43 17 101h-4q-39 -59 -67 -94t-75 -80.5t-104 -68t-123 -22.5q-76 0 -121 44t-45 118zM424 1036l303 406h139l123 -406h-22l-195 258l-323 -258h-25z" />
<glyph unicode="&#xfc;" d="M47 137q0 31 27 129l178 586h-127l8 37h211q125 0 188 45l-221 -729q-31 -96 -30 -129q0 -39 45 -39q33 0 90 51t104 115q76 104 101 182l161 504h265l-213 -686q-31 -109 -31 -111q0 -43 37 -43q43 0 96 58.5t78 107.5l28 -16q-127 -223 -303 -224q-80 0 -125 49.5 t-45 114.5q0 43 17 101h-4q-39 -59 -67 -94t-75 -80.5t-104 -68t-123 -22.5q-76 0 -121 44t-45 118zM408 1235q0 55 39.5 95t95 40t95.5 -40t40 -95t-40 -95t-95.5 -40t-95 40t-39.5 95zM764 1235q0 55 40 95t95 40t95 -40t40 -95t-40 -95t-95 -40t-95 40t-40 95z" />
<glyph unicode="&#xfd;" d="M-233 -403q0 66 36.5 110.5t100.5 44.5q47 0 84 -29.5t37 -89.5q0 -43 -20.5 -69.5t-41 -35.5t-20.5 -13q0 -20 24 -21q72 0 142.5 54.5t119.5 142.5l117 209l-76 704q-6 55 -11 84t-20.5 53.5t-37.5 24.5q-20 0 -39 -10.5t-35 -32t-25.5 -35.5t-25 -44t-17.5 -36l-28 10 q147 295 325 295q135 0 148 -143l51 -520h4l293 498q98 166 211 165q59 0 95 -34.5t36 -96.5q0 -57 -37 -98t-94 -41q-47 0 -81 29.5t-34 77t25 77.5q-31 0 -107 -122l-563 -953q-84 -145 -166 -220t-213 -75q-66 0 -111.5 38t-45.5 102zM623 1036l231 342q45 63 94 64 q80 0 80 -60q0 -39 -55 -82l-322 -264h-28z" />
<glyph unicode="&#xfe;" d="M-227 -543l8 37h104l561 1911h-127l9 37h110q213 0 293 63l-221 -772h4q47 74 125 127t164 53q119 0 176 -88t57 -215q0 -133 -54 -275t-169 -251t-258 -109q-164 0 -205 189h-4l-199 -670h136l-11 -37h-499zM375 215q0 -61 38 -125.5t93 -64.5q57 0 100 69.5t105 241.5 q37 102 70.5 238.5t33.5 207.5q0 82 -72 82q-74 0 -159.5 -92t-114.5 -188l-63 -219q-31 -115 -31 -150z" />
<glyph unicode="&#xff;" d="M-233 -403q0 66 36.5 110.5t100.5 44.5q47 0 84 -29.5t37 -89.5q0 -43 -20.5 -69.5t-41 -35.5t-20.5 -13q0 -20 24 -21q72 0 142.5 54.5t119.5 142.5l117 209l-76 704q-6 55 -11 84t-20.5 53.5t-37.5 24.5q-20 0 -39 -10.5t-35 -32t-25.5 -35.5t-25 -44t-17.5 -36l-28 10 q147 295 325 295q135 0 148 -143l51 -520h4l293 498q98 166 211 165q59 0 95 -34.5t36 -96.5q0 -57 -37 -98t-94 -41q-47 0 -81 29.5t-34 77t25 77.5q-31 0 -107 -122l-563 -953q-84 -145 -166 -220t-213 -75q-66 0 -111.5 38t-45.5 102zM414 1235q0 55 40 95t95 40t95 -40 t40 -95t-40 -95t-95 -40t-95 40t-40 95zM770 1235q0 55 40 95t95.5 40t95 -40t39.5 -95t-39.5 -95t-95 -40t-95.5 40t-40 95z" />
<glyph unicode="&#x152;" horiz-adv-x="2048" d="M100 541q0 231 120 448t316.5 351.5t405.5 134.5q72 0 113 -9q31 -6 92 -16q35 -8 108 -8h832l-74 -393h-35q10 72 11 86q0 270 -250 270h-234l-170 -606h142q76 0 120.5 29.5t69.5 97.5l33 94h35q-98 -344 -138 -518h-32q20 86 20 151q0 61 -36 85t-109 24h-115 l-203 -725h228q205 0 332.5 123t189.5 297h35l-125 -457h-834q-16 0 -79.5 -10t-84.5 -13q-88 -10 -120 -10q-246 0 -406 157t-158 417zM358 264q0 -111 73 -185.5t198 -74.5t167 40t85 198l286 1026q12 39 13 71q0 98 -232 99q-78 0 -145.5 -36t-113.5 -89t-88 -139.5 t-68.5 -159t-55.5 -172.5q-119 -412 -119 -578z" />
<glyph unicode="&#x153;" horiz-adv-x="1478" d="M45 326q0 170 85 309t205 208.5t243 69.5q82 0 156.5 -31.5t113.5 -93.5q143 125 317 125q98 0 176 -57t78 -154q0 -147 -118.5 -220.5t-276.5 -73.5q-72 0 -121 16q-43 -166 -43 -274q0 -63 35 -100.5t94 -37.5q92 0 176.5 53.5t139.5 137.5l26 -15q-137 -213 -383 -213 q-172 0 -258 105q-125 -104 -313 -105q-135 0 -233.5 94.5t-98.5 256.5zM254 135q0 -135 121 -135q35 0 65.5 13.5t47 27.5t36 48t23.5 46t20 51q35 88 90.5 311.5t55.5 276.5q0 61 -28 88t-91 27q-41 0 -71.5 -14.5t-53.5 -46t-33 -53t-26 -62.5q-57 -152 -106.5 -328 t-49.5 -250zM913 453q35 -20 86 -21q63 0 99.5 34t60.5 99q64 162 64 240q0 43 -20.5 63.5t-47.5 20.5q-68 0 -121 -101.5t-121 -334.5z" />
<glyph unicode="&#x178;" horiz-adv-x="1251" d="M150 0l10 37h141l172 610l-78 758h-153l10 37h612l-10 -37h-162l72 -741l381 528q72 96 72 162q0 51 -82 51h-56l11 37h374l-10 -37h-33q-51 0 -84.5 -27.5t-89.5 -101.5l-481 -666l-162 -573h164l-10 -37h-608zM651 1726.5q0 55.5 40 95.5t95.5 40t95.5 -40t40 -95.5 t-40 -95.5t-95.5 -40t-95.5 40t-40 95.5zM1008 1726.5q0 55.5 39.5 95.5t95 40t95.5 -40t40 -95.5t-40 -95.5t-95.5 -40t-95 40t-39.5 95.5z" />
<glyph unicode="&#x2c6;" horiz-adv-x="569" d="M139 1036l303 406h140l123 -406h-23l-195 258l-323 -258h-25z" />
<glyph unicode="&#x2dc;" horiz-adv-x="569" d="M119 1120q25 92 78 169t129 77q45 0 154.5 -43t156.5 -43q53 0 76.5 17.5t48.5 68.5h31q-25 -92 -78 -169t-129 -77q-45 0 -154.5 43t-157.5 43q-53 0 -76.5 -17.5t-47.5 -68.5h-31z" />
<glyph unicode="&#x2000;" horiz-adv-x="987" />
<glyph unicode="&#x2001;" horiz-adv-x="1974" />
<glyph unicode="&#x2002;" horiz-adv-x="987" />
<glyph unicode="&#x2003;" horiz-adv-x="1974" />
<glyph unicode="&#x2004;" horiz-adv-x="658" />
<glyph unicode="&#x2005;" horiz-adv-x="493" />
<glyph unicode="&#x2006;" horiz-adv-x="329" />
<glyph unicode="&#x2007;" horiz-adv-x="329" />
<glyph unicode="&#x2008;" horiz-adv-x="246" />
<glyph unicode="&#x2009;" horiz-adv-x="394" />
<glyph unicode="&#x200a;" horiz-adv-x="109" />
<glyph unicode="&#x2010;" horiz-adv-x="1024" d="M152 444l53 172h622l-53 -172h-622z" />
<glyph unicode="&#x2011;" horiz-adv-x="1024" d="M152 444l53 172h622l-53 -172h-622z" />
<glyph unicode="&#x2012;" horiz-adv-x="1024" d="M152 444l53 172h622l-53 -172h-622z" />
<glyph unicode="&#x2013;" horiz-adv-x="1024" d="M-23 451l46 159h1024l-46 -159h-1024z" />
<glyph unicode="&#x2014;" horiz-adv-x="2048" d="M244 451l45 159h1515l-45 -159h-1515z" />
<glyph unicode="&#x2018;" horiz-adv-x="569" d="M236 1004q0 143 115.5 283.5t258.5 187.5l6 -35q-88 -23 -185 -118t-97 -179q0 -14 10 -15q4 0 23.5 5.5t38.5 5.5q49 0 84.5 -37t35.5 -86q0 -72 -44 -122t-113 -50q-61 0 -97 48t-36 112z" />
<glyph unicode="&#x2019;" horiz-adv-x="569" d="M236 879q88 23 185 118t97 179q0 14 -10 14q-4 0 -23.5 -5t-38.5 -5q-49 0 -84.5 36.5t-35.5 86.5q0 72 44 122t113 50q61 0 97 -48.5t36 -111.5q0 -143 -115.5 -283.5t-258.5 -187.5z" />
<glyph unicode="&#x201a;" horiz-adv-x="569" d="M-51 -317q88 23 185 118t97 179q0 14 -10 14q-4 0 -24 -4q-12 -6 -37 -6q-49 0 -85 36.5t-36 85.5q0 72 44 122.5t114 50.5q61 0 97 -48.5t36 -111.5q0 -143 -116 -283.5t-259 -187.5z" />
<glyph unicode="&#x201c;" horiz-adv-x="1024" d="M266 1004q0 143 116 283.5t259 187.5l6 -35q-88 -23 -185 -118t-97 -179q0 -14 10 -15q4 0 23.5 5.5t37.5 5.5q49 0 85 -37t36 -86q0 -72 -44 -122t-114 -50q-61 0 -97 48t-36 112zM659 1004q0 143 116 283.5t259 187.5l6 -35q-88 -23 -185 -118t-97 -179q0 -14 10 -15 q4 0 23.5 5.5t37.5 5.5q49 0 85 -37t36 -86q0 -72 -44 -122t-113 -50q-61 0 -97.5 48t-36.5 112z" />
<glyph unicode="&#x201d;" horiz-adv-x="1024" d="M266 879q88 23 185.5 118t97.5 179q0 14 -10 14q-4 0 -23.5 -5t-38.5 -5q-49 0 -85 36.5t-36 86.5q0 72 44 122t114 50q61 0 97 -48.5t36 -111.5q0 -143 -116 -283.5t-259 -187.5zM659 879q88 23 185.5 118t97.5 179q0 14 -10 14q-4 0 -23.5 -5t-38.5 -5 q-49 0 -84.5 36.5t-35.5 86.5q0 72 44 122t113 50q61 0 97 -48.5t36 -111.5q0 -143 -115.5 -283.5t-258.5 -187.5z" />
<glyph unicode="&#x201e;" horiz-adv-x="1024" d="M-6 -317q88 23 185 118t97 179q0 14 -10 14q-4 0 -24 -4q-12 -6 -37 -6q-49 0 -85 36.5t-36 85.5q0 72 44 122.5t114 50.5q61 0 97 -48.5t36 -111.5q0 -143 -116 -283.5t-259 -187.5zM387 -317q88 23 185.5 118t97.5 179q0 14 -11 14q-4 0 -24 -4q-12 -6 -37 -6 q-49 0 -85 36.5t-36 85.5q0 72 44 122.5t114 50.5q61 0 97 -48.5t36 -111.5q0 -143 -116 -283.5t-259 -187.5z" />
<glyph unicode="&#x2022;" horiz-adv-x="1024" d="M178 720.5q0 149.5 105.5 255t255 105.5t255 -105.5t105.5 -255t-105.5 -255t-255 -105.5t-255 105.5t-105.5 255z" />
<glyph unicode="&#x2026;" horiz-adv-x="2048" d="M78 109q0 68 44 119t109 51q61 0 95 -35t34 -97q0 -55 -37.5 -109t-129.5 -54q-39 0 -66 16t-36 43t-11 40.5t-2 25.5zM760 109q0 68 44 119t109 51q61 0 95 -35t34 -97q0 -55 -37.5 -109t-130.5 -54q-39 0 -65.5 16t-35.5 43t-11 40.5t-2 25.5zM1442 109q0 68 44 119 t109 51q61 0 95 -35t34 -97q0 -55 -37.5 -109t-130.5 -54q-39 0 -65.5 16t-35.5 43t-11 40.5t-2 25.5z" />
<glyph unicode="&#x202f;" horiz-adv-x="394" />
<glyph unicode="&#x2039;" horiz-adv-x="569" d="M70 530l307 351h123l-312 -351l172 -350h-110z" />
<glyph unicode="&#x203a;" horiz-adv-x="569" d="M70 180l311 350l-172 351h110l181 -351l-307 -350h-123z" />
<glyph unicode="&#x205f;" horiz-adv-x="493" />
<glyph unicode="&#x2122;" horiz-adv-x="2048" d="M262 1219v223h645v-223h-18q-12 98 -51 151t-131 53h-41v-684h94v-18h-350v18h96v684h-43q-92 0 -130 -53t-52 -151h-19zM1004 721v18h4q78 0 77 88v596h-77v19h262l170 -494h2l174 494h246v-19h-76v-684h76v-18h-324v18h88v666h-2l-240 -684h-26l-246 696h-2v-579 q0 -59 17.5 -79t60.5 -20h14v-18h-198z" />
<glyph unicode="&#x25fc;" horiz-adv-x="911" d="M0 0v911h911v-911h-911z" />
</font>
</defs>
</svg>
