<?xml version="1.0" encoding="UTF-8" standalone="no"?>
<svg width="14px" height="14px" viewBox="0 0 14 14" version="1.1" xmlns="http://www.w3.org/2000/svg" xmlns:xlink="http://www.w3.org/1999/xlink" xmlns:sketch="http://www.bohemiancoding.com/sketch/ns">
    <!-- Generator: Sketch 3.2.2 (9983) - http://www.bohemiancoding.com/sketch -->
    <title>dribbble</title>
    <desc>Created with Sketch.</desc>
    <defs></defs>
    <g id="Maquettes" stroke="none" stroke-width="1" fill="none" fill-rule="evenodd" sketch:type="MSPage">
        <g id="Sidebar" sketch:type="MSArtboardGroup" transform="translate(-876.000000, -3091.000000)" fill="#3D3B3A">
            <g id="CONTACT" sketch:type="MSLayerGroup" transform="translate(0.000000, 2582.000000)">
                <path d="M885.176696,516.687826 C885.961913,518.845652 886.279957,520.600217 886.34037,520.957826 C887.682543,520.050717 888.63637,518.614348 888.902065,516.948043 C888.783217,516.91 887.109609,516.378913 885.176696,516.687826 L885.176696,516.687826 Z M884.286022,514.568043 C884.425717,514.852609 884.559174,515.143109 884.683348,515.435435 C884.72763,515.538913 884.770391,515.64087 884.812391,515.744348 C886.877087,515.48413 888.909674,515.925435 888.976174,515.93913 C888.962022,514.52087 888.455283,513.219783 887.616652,512.201739 C887.604326,512.22 886.645478,513.604783 884.286022,514.568043 L884.286022,514.568043 Z M884.016978,516.976957 C880.508304,518.200435 879.350109,520.659565 879.326674,520.709783 C880.340761,521.501087 881.613696,521.977391 883,521.977391 C883.827978,521.977391 884.616543,521.808478 885.333587,521.50413 C885.245174,520.980652 884.897304,519.15 884.056543,516.964783 C884.043457,516.969196 884.03037,516.972391 884.016978,516.976957 L884.016978,516.976957 Z M883,523 C879.134022,523 876,519.865217 876,516 C876,512.133261 879.134022,509 883,509 C886.86613,509 890,512.133261 890,516 C890,519.865217 886.86613,523 883,523 L883,523 Z M886.948152,511.512391 C885.895413,510.585652 884.513674,510.021087 883,510.021087 C882.514261,510.021087 882.043283,510.080435 881.591478,510.19 C881.682326,510.310217 882.804304,511.801522 883.826152,513.677826 C886.080304,512.831739 886.932326,511.536739 886.948152,511.512391 L886.948152,511.512391 Z M881.567891,510.196087 C881.562565,510.196087 881.557239,510.197609 881.552217,510.19913 C881.5615,510.197609 881.566978,510.196087 881.566978,510.196087 L881.567891,510.196087 L881.567891,510.196087 Z M879.325761,520.711304 L879.326674,520.709783 C879.282391,520.674783 879.234761,520.642826 879.191391,520.606304 C879.270826,520.670217 879.325761,520.711304 879.325761,520.711304 L879.325761,520.711304 Z M883.413609,516.045652 C883.491826,516.019783 883.570348,515.996957 883.649326,515.97413 C883.499283,515.634783 883.335543,515.293913 883.164348,514.957609 C880.086022,515.879783 877.131717,515.812826 877.02687,515.809783 C877.025043,515.872174 877.022,515.936087 877.022,516 C877.022,517.536957 877.602848,518.936957 878.555761,519.996087 C878.553935,519.994565 878.5515,519.991522 878.5515,519.991522 C878.5515,519.991522 880.187978,517.088043 883.413609,516.045652 L883.413609,516.045652 Z M882.669174,514.036957 C881.635457,512.200217 880.530522,510.702826 880.449413,510.591739 C878.782196,511.38 877.538022,512.915435 877.149826,514.767391 C877.30687,514.768913 879.798261,514.799348 882.669174,514.036957 L882.669174,514.036957 Z" id="dribbble" sketch:type="MSShapeGroup"></path>
            </g>
        </g>
    </g>
</svg>