<?xml version="1.0" encoding="UTF-8" standalone="no"?>
<svg width="16px" height="12px" viewBox="0 0 16 12" version="1.1" xmlns="http://www.w3.org/2000/svg" xmlns:xlink="http://www.w3.org/1999/xlink" xmlns:sketch="http://www.bohemiancoding.com/sketch/ns">
    <!-- Generator: Sketch 3.2.2 (9983) - http://www.bohemiancoding.com/sketch -->
    <title>twitter</title>
    <desc>Created with Sketch.</desc>
    <defs></defs>
    <g id="Maquettes" stroke="none" stroke-width="1" fill="none" fill-rule="evenodd" sketch:type="MSPage">
        <g id="Sidebar" sketch:type="MSArtboardGroup" transform="translate(-770.000000, -3092.000000)" fill="#3D3B3A">
            <g id="CONTACT" sketch:type="MSLayerGroup" transform="translate(0.000000, 2582.000000)">
                <path d="M786,511.420356 C785.410435,511.661094 784.777391,511.824796 784.114783,511.897018 C784.791304,511.523071 785.313043,510.92925 785.558261,510.221479 C784.923478,510.568142 784.22087,510.82172 783.473043,510.956533 C782.874783,510.367527 782.02087,510 781.076522,510 C779.264348,510 777.794783,511.356159 777.794783,513.030092 C777.794783,513.267621 777.822609,513.498729 777.88,513.720209 C775.151304,513.59342 772.732174,512.388124 771.113043,510.555303 C770.831304,511.001471 770.669565,511.523071 770.669565,512.078374 C770.669565,513.127993 771.248696,514.055637 772.128696,514.599706 C771.591304,514.583657 771.085217,514.447238 770.641739,514.220944 L770.641739,514.257857 C770.641739,515.726361 771.773913,516.950916 773.274783,517.228568 C773,517.297579 772.709565,517.334492 772.410435,517.334492 C772.198261,517.334492 771.993043,517.316838 771.793043,517.279925 C772.210435,518.483616 773.422609,519.359904 774.85913,519.383978 C773.735652,520.197673 772.32,520.680754 770.782609,520.680754 C770.518261,520.680754 770.255652,520.66631 770,520.639026 C771.452174,521.497659 773.177391,522 775.031304,522 C781.069565,522 784.372174,517.384245 784.372174,513.379965 C784.372174,513.249967 784.368696,513.118363 784.361739,512.988364 C785.003478,512.561455 785.56,512.028621 786,511.420356" id="twitter" sketch:type="MSShapeGroup"></path>
            </g>
        </g>
    </g>
</svg>